{"glyphs":{"0":{"ha":897,"x_min":87,"x_max":870,"o":"m 400 -11 q 219 46 293 -11 q 116 205 144 102 q 115 447 87 308 l 138 555 q 227 796 166 694 q 375 955 288 899 q 572 1011 463 1011 q 745 960 674 1011 q 843 806 817 908 q 838 550 870 703 l 816 441 q 665 111 772 233 q 400 -11 558 -11 m 393 29 q 563 81 486 29 q 693 227 639 133 q 773 447 747 321 l 795 555 q 804 786 825 694 q 722 925 783 878 q 571 971 662 971 q 393 919 472 971 q 260 771 315 866 q 180 549 206 677 l 159 442 q 156 228 134 321 q 239 82 178 135 q 393 29 300 29 z "},"1":{"ha":509,"x_min":205,"x_max":492,"o":"m 248 0 l 437 962 l 456 954 l 205 831 l 215 878 l 464 1000 l 492 1000 l 290 0 l 248 0 z "},"2":{"ha":763,"x_min":11,"x_max":724,"o":"m 11 0 l 16 28 l 378 380 q 484 481 431 431 q 582 582 537 532 q 653 684 626 633 q 680 789 680 736 q 625 917 680 863 q 474 971 569 971 q 346 939 404 971 q 251 853 288 907 q 205 731 214 799 l 163 736 q 214 874 172 812 q 323 974 256 937 q 475 1011 391 1011 q 605 982 549 1011 q 693 903 661 954 q 724 789 724 853 q 697 674 724 729 q 624 566 670 618 q 523 460 578 513 q 410 353 467 408 l 85 43 l 82 40 l 252 40 l 618 40 l 612 0 l 11 0 z "},"3":{"ha":758,"x_min":52,"x_max":703,"o":"m 338 -11 q 187 27 253 -11 q 86 131 121 64 q 60 281 52 197 l 102 275 q 125 150 95 206 q 211 62 155 94 q 341 29 268 29 q 483 66 420 29 q 582 165 546 104 q 618 299 618 227 q 603 383 618 344 q 557 451 588 422 q 479 498 526 481 q 370 515 433 515 l 334 515 l 341 555 l 388 555 q 517 589 455 555 q 620 678 580 623 q 661 799 661 734 q 607 921 661 871 q 467 971 553 971 q 353 944 404 971 q 270 869 302 916 q 232 764 238 823 l 189 770 q 232 892 196 838 q 329 979 269 947 q 465 1011 389 1011 q 590 983 537 1011 q 673 907 644 956 q 703 799 703 859 q 676 689 703 741 q 605 599 650 637 q 506 539 561 560 q 394 522 451 519 l 397 545 q 542 515 483 548 q 631 425 601 481 q 662 298 662 368 q 619 144 662 214 q 503 31 576 73 q 338 -11 430 -11 z "},"4":{"ha":771,"x_min":29,"x_max":721,"o":"m 478 0 l 627 747 l 662 909 l 656 909 l 559 793 l 104 284 l 104 280 l 720 280 l 712 239 l 29 239 l 35 263 l 688 1000 l 721 1000 l 521 0 l 478 0 z "},"5":{"ha":772,"x_min":66,"x_max":762,"o":"m 353 -11 q 223 16 284 -11 q 121 90 163 42 q 66 200 80 137 l 107 210 q 150 118 116 159 q 236 53 184 77 q 351 29 289 29 q 507 74 438 29 q 617 193 576 119 q 657 349 657 266 q 597 517 657 450 q 425 585 536 585 q 291 556 349 585 q 212 500 233 528 l 182 520 l 277 1000 l 762 1000 l 752 960 l 310 960 l 227 536 l 212 549 q 299 603 239 581 q 425 625 359 625 q 565 592 503 625 q 663 496 627 559 q 699 346 699 433 q 652 165 699 246 q 527 37 606 85 q 353 -11 449 -11 z "},"6":{"ha":800,"x_min":73,"x_max":707,"o":"m 365 -11 q 210 29 276 -11 q 109 136 144 69 q 73 281 73 202 q 93 390 73 342 q 143 478 113 438 q 204 555 173 518 l 581 1000 l 635 1000 l 273 575 l 246 560 q 337 609 289 596 q 426 623 385 623 q 572 584 509 623 q 671 480 635 546 q 707 331 707 414 q 661 158 707 235 q 537 35 614 81 q 365 -11 459 -11 m 368 29 q 520 71 453 29 q 626 182 587 113 q 665 337 665 252 q 635 466 665 410 q 550 551 605 521 q 422 582 496 582 q 268 542 338 582 q 156 435 197 503 q 114 283 114 367 q 146 154 114 212 q 236 63 178 96 q 368 29 294 29 z "},"7":{"ha":711,"x_min":150,"x_max":784,"o":"m 170 0 l 736 981 l 745 960 l 150 960 l 158 1000 l 784 1000 l 780 972 l 219 0 l 170 0 z "},"8":{"ha":800,"x_min":62,"x_max":737,"o":"m 348 -11 q 200 22 264 -11 q 99 112 136 54 q 62 243 62 169 q 91 368 62 310 q 171 470 120 426 q 287 539 221 514 q 426 564 353 564 q 572 532 509 564 q 671 443 635 500 q 707 312 707 387 q 679 186 707 245 q 601 84 650 128 q 486 14 551 39 q 348 -11 421 -11 m 347 29 q 506 68 434 29 q 622 172 578 107 q 665 313 665 237 q 600 465 665 408 q 427 523 534 523 q 266 485 340 523 q 149 384 193 448 q 104 243 104 321 q 135 133 104 181 q 221 57 166 84 q 347 29 275 29 m 437 523 q 318 550 368 523 q 242 625 269 578 q 216 732 216 673 q 257 872 216 809 q 366 974 298 936 q 515 1011 433 1011 q 631 986 581 1011 q 709 915 681 961 q 737 804 737 868 q 697 663 737 727 q 588 561 656 599 q 437 523 520 523 m 439 564 q 566 597 508 564 q 660 684 625 630 q 696 800 696 738 q 648 922 696 871 q 515 974 600 974 q 389 940 448 974 q 294 850 330 905 q 258 731 258 795 q 310 609 258 655 q 439 564 361 564 z "},"9":{"ha":800,"x_min":150,"x_max":785,"o":"m 492 1011 q 647 971 581 1011 q 749 865 713 931 q 785 720 785 798 q 765 610 785 659 q 714 523 745 562 q 653 446 684 483 l 276 1 l 222 1 l 584 425 l 611 440 q 521 391 568 404 q 431 378 473 378 q 285 416 349 378 q 186 520 222 454 q 150 669 150 587 q 196 843 150 765 q 320 966 243 920 q 492 1011 398 1011 m 489 971 q 337 929 405 971 q 231 818 270 888 q 192 663 192 748 q 222 535 192 590 q 307 449 252 480 q 435 418 361 418 q 590 458 519 418 q 702 566 660 498 q 743 717 743 633 q 711 847 743 789 q 622 938 679 904 q 489 971 564 971 z "},"A":{"ha":913,"x_min":-28,"x_max":799,"o":"m -28 0 l 566 1000 l 604 1000 l 799 0 l 755 0 l 692 338 l 689 350 l 578 936 l 572 936 l 229 354 l 216 331 l 22 0 l -28 0 m 193 324 l 202 365 l 719 365 l 709 324 l 193 324 z "},"Á":{"ha":913,"x_min":-28,"x_max":799,"o":"m -28 0 l 566 1000 l 604 1000 l 799 0 l 755 0 l 692 338 l 689 350 l 578 936 l 572 936 l 229 354 l 216 331 l 22 0 l -28 0 m 193 324 l 202 365 l 719 365 l 709 324 l 193 324 m 618 1055 l 582 1088 l 726 1274 l 760 1244 l 618 1055 z "},"Ă":{"ha":913,"x_min":-28,"x_max":822,"o":"m -28 0 l 566 1000 l 604 1000 l 799 0 l 755 0 l 692 338 l 689 350 l 578 936 l 572 936 l 229 354 l 216 331 l 22 0 l -28 0 m 193 324 l 202 365 l 719 365 l 709 324 l 193 324 m 604 1055 q 508 1078 548 1054 q 451 1139 469 1102 q 443 1215 434 1177 l 481 1210 q 487 1149 473 1175 q 532 1110 501 1124 q 603 1096 562 1096 q 723 1130 671 1096 q 783 1215 774 1164 l 822 1210 q 782 1130 815 1164 q 702 1075 749 1095 q 604 1055 654 1055 z "},"Ắ":{"ha":913,"x_min":-28,"x_max":843,"o":"m -28 0 l 566 1000 l 604 1000 l 799 0 l 755 0 l 692 338 l 689 350 l 578 936 l 572 936 l 229 354 l 216 331 l 22 0 l -28 0 m 193 324 l 202 365 l 719 365 l 709 324 l 193 324 m 640 1152 l 602 1177 l 724 1390 l 756 1366 l 640 1152 m 629 1055 q 536 1080 576 1055 q 476 1144 496 1104 q 464 1227 456 1183 l 502 1221 q 511 1159 494 1188 q 560 1112 527 1130 q 634 1093 593 1093 q 746 1134 699 1093 q 805 1227 793 1175 l 843 1221 q 806 1139 836 1177 q 731 1078 777 1101 q 629 1055 686 1055 z "},"Ặ":{"ha":913,"x_min":-28,"x_max":822,"o":"m -28 0 l 566 1000 l 604 1000 l 799 0 l 755 0 l 692 338 l 689 350 l 578 936 l 572 936 l 229 354 l 216 331 l 22 0 l -28 0 m 193 324 l 202 365 l 719 365 l 709 324 l 193 324 m 372 -208 q 330 -191 347 -208 q 313 -149 313 -174 q 330 -108 313 -125 q 372 -91 347 -91 q 413 -108 396 -91 q 430 -149 430 -125 q 413 -191 430 -174 q 372 -208 396 -208 m 604 1055 q 508 1079 548 1055 q 451 1140 469 1103 q 443 1216 434 1177 l 481 1211 q 487 1150 473 1176 q 532 1111 501 1124 q 603 1097 562 1097 q 723 1131 671 1097 q 783 1216 774 1164 l 822 1211 q 782 1131 815 1165 q 702 1076 749 1096 q 604 1055 654 1056 z "},"Ằ":{"ha":913,"x_min":-28,"x_max":799,"o":"m -28 0 l 566 1000 l 604 1000 l 799 0 l 755 0 l 692 338 l 689 350 l 578 936 l 572 936 l 229 354 l 216 331 l 22 0 l -28 0 m 193 324 l 202 365 l 719 365 l 709 324 l 193 324 m 605 1160 l 450 1350 l 481 1379 l 637 1190 l 605 1160 m 579 1055 q 487 1080 527 1055 q 426 1144 446 1104 q 414 1227 406 1183 l 452 1221 q 461 1159 445 1188 q 510 1112 477 1130 q 585 1093 543 1093 q 696 1134 649 1093 q 755 1227 744 1175 l 793 1221 q 756 1139 786 1177 q 682 1078 727 1101 q 579 1055 636 1055 z "},"Ẳ":{"ha":913,"x_min":-28,"x_max":822,"o":"m -28 0 l 566 1000 l 604 1000 l 799 0 l 755 0 l 692 338 l 689 350 l 578 936 l 572 936 l 229 354 l 216 331 l 22 0 l -28 0 m 193 324 l 202 365 l 719 365 l 709 324 l 193 324 m 608 1053 q 515 1077 555 1053 q 455 1141 475 1101 q 443 1225 435 1181 l 481 1219 q 490 1156 473 1185 q 539 1109 506 1127 q 613 1090 572 1090 q 725 1131 677 1090 q 784 1225 772 1172 l 822 1219 q 785 1137 814 1175 q 710 1076 755 1099 q 608 1053 665 1053 m 623 1164 l 601 1194 q 658 1234 633 1209 q 687 1284 682 1259 q 676 1324 692 1310 q 630 1339 660 1339 q 586 1334 609 1339 q 547 1322 564 1329 l 551 1363 q 595 1374 574 1371 q 633 1377 616 1377 q 709 1349 685 1377 q 724 1278 732 1320 q 689 1213 717 1244 q 623 1164 661 1181 z "},"Ẵ":{"ha":913,"x_min":-28,"x_max":842,"o":"m -28 0 l 566 1000 l 604 1000 l 799 0 l 755 0 l 692 338 l 689 350 l 578 936 l 572 936 l 229 354 l 216 331 l 22 0 l -28 0 m 193 324 l 202 365 l 719 365 l 709 324 l 193 324 m 476 1266 l 438 1272 q 483 1358 448 1328 q 565 1388 517 1388 q 617 1376 597 1388 q 651 1349 637 1364 q 679 1322 665 1333 q 713 1310 692 1310 q 769 1331 745 1310 q 801 1390 793 1351 l 842 1385 q 818 1323 836 1349 q 773 1283 800 1297 q 715 1269 747 1269 q 665 1281 684 1269 q 630 1309 645 1293 q 598 1337 614 1325 q 559 1350 583 1350 q 509 1329 532 1350 q 476 1266 486 1308 m 583 1055 q 491 1080 531 1055 q 430 1144 450 1104 q 418 1227 410 1183 l 456 1221 q 465 1159 449 1188 q 514 1112 481 1130 q 589 1093 547 1093 q 701 1134 653 1093 q 760 1227 748 1175 l 798 1221 q 761 1139 790 1177 q 686 1078 731 1101 q 583 1055 640 1055 z "},"Ǎ":{"ha":913,"x_min":-28,"x_max":822,"o":"m -28 0 l 566 1000 l 604 1000 l 799 0 l 755 0 l 692 338 l 689 350 l 578 936 l 572 936 l 229 354 l 216 331 l 22 0 l -28 0 m 193 324 l 202 365 l 719 365 l 709 324 l 193 324 m 583 1055 l 429 1199 l 457 1232 l 595 1099 l 603 1099 l 796 1232 l 822 1199 l 608 1055 l 583 1055 z "},"Â":{"ha":913,"x_min":-28,"x_max":805,"o":"m -28 0 l 566 1000 l 604 1000 l 799 0 l 755 0 l 692 338 l 689 350 l 578 936 l 572 936 l 229 354 l 216 331 l 22 0 l -28 0 m 193 324 l 202 365 l 719 365 l 709 324 l 193 324 m 438 1055 l 412 1088 l 627 1232 l 652 1232 l 805 1088 l 777 1055 l 640 1188 l 631 1188 l 438 1055 z "},"Ấ":{"ha":913,"x_min":-28,"x_max":972,"o":"m -28 0 l 566 1000 l 604 1000 l 799 0 l 755 0 l 692 338 l 689 350 l 578 936 l 572 936 l 229 354 l 216 331 l 22 0 l -28 0 m 193 324 l 202 365 l 719 365 l 709 324 l 193 324 m 758 1175 l 732 1204 l 941 1379 l 972 1347 l 758 1175 m 432 1046 l 406 1077 l 618 1224 l 643 1224 l 799 1077 l 770 1046 l 631 1177 l 622 1177 l 432 1046 z "},"Ậ":{"ha":913,"x_min":-28,"x_max":805,"o":"m -28 0 l 566 1000 l 604 1000 l 799 0 l 755 0 l 692 338 l 689 350 l 578 936 l 572 936 l 229 354 l 216 331 l 22 0 l -28 0 m 193 324 l 202 365 l 719 365 l 709 324 l 193 324 m 372 -208 q 330 -191 347 -208 q 313 -149 313 -174 q 330 -108 313 -125 q 372 -91 347 -91 q 413 -108 396 -91 q 430 -149 430 -125 q 413 -191 430 -174 q 372 -208 396 -208 m 438 1055 l 412 1088 l 627 1233 l 652 1233 l 805 1088 l 777 1055 l 640 1189 l 631 1189 l 438 1055 z "},"Ầ":{"ha":913,"x_min":-28,"x_max":802,"o":"m -28 0 l 566 1000 l 604 1000 l 799 0 l 755 0 l 692 338 l 689 350 l 578 936 l 572 936 l 229 354 l 216 331 l 22 0 l -28 0 m 193 324 l 202 365 l 719 365 l 709 324 l 193 324 m 472 1169 l 339 1356 l 372 1380 l 505 1191 l 472 1169 m 435 1040 l 410 1070 l 621 1217 l 646 1217 l 802 1070 l 774 1040 l 634 1171 l 625 1171 l 435 1040 z "},"Ẩ":{"ha":913,"x_min":-28,"x_max":848,"o":"m -28 0 l 566 1000 l 604 1000 l 799 0 l 755 0 l 692 338 l 689 350 l 578 936 l 572 936 l 229 354 l 216 331 l 22 0 l -28 0 m 193 324 l 202 365 l 719 365 l 709 324 l 193 324 m 749 1169 l 722 1194 q 770 1239 748 1212 q 798 1290 793 1266 q 787 1330 803 1315 q 741 1344 772 1344 q 699 1342 722 1344 q 657 1333 676 1339 l 661 1371 q 701 1379 679 1377 q 739 1381 722 1381 q 820 1355 793 1381 q 838 1285 848 1329 q 804 1220 831 1253 q 749 1169 777 1188 m 433 1046 l 408 1077 l 619 1224 l 644 1224 l 800 1077 l 772 1046 l 632 1177 l 623 1177 l 433 1046 z "},"Ẫ":{"ha":913,"x_min":-28,"x_max":833,"o":"m -28 0 l 566 1000 l 604 1000 l 799 0 l 755 0 l 692 338 l 689 350 l 578 936 l 572 936 l 229 354 l 216 331 l 22 0 l -28 0 m 193 324 l 202 365 l 719 365 l 709 324 l 193 324 m 467 1266 l 429 1272 q 474 1358 439 1328 q 556 1388 509 1388 q 608 1376 589 1388 q 642 1349 628 1364 q 670 1322 656 1333 q 705 1310 684 1310 q 760 1331 736 1310 q 792 1390 785 1351 l 833 1385 q 809 1323 827 1349 q 764 1283 791 1297 q 706 1269 738 1269 q 656 1281 675 1269 q 621 1309 636 1293 q 590 1337 606 1325 q 551 1350 574 1350 q 501 1329 526 1350 q 467 1266 477 1308 m 433 1046 l 407 1077 l 618 1224 l 644 1224 l 800 1077 l 771 1046 l 631 1177 l 623 1177 l 433 1046 z "},"Ȁ":{"ha":913,"x_min":-28,"x_max":799,"o":"m -28 0 l 566 1000 l 604 1000 l 799 0 l 755 0 l 692 338 l 689 350 l 578 936 l 572 936 l 229 354 l 216 331 l 22 0 l -28 0 m 193 324 l 202 365 l 719 365 l 709 324 l 193 324 m 489 1086 l 398 1299 l 445 1322 l 522 1099 l 489 1086 m 680 1086 l 595 1299 l 642 1322 l 715 1099 l 680 1086 z "},"Ä":{"ha":913,"x_min":-28,"x_max":806,"o":"m -28 0 l 566 1000 l 604 1000 l 799 0 l 755 0 l 692 338 l 689 350 l 578 936 l 572 936 l 229 354 l 216 331 l 22 0 l -28 0 m 193 324 l 202 365 l 719 365 l 709 324 l 193 324 m 752 1086 q 710 1103 728 1086 q 693 1143 693 1120 q 709 1182 693 1166 q 749 1198 725 1198 q 790 1182 773 1198 q 806 1139 806 1165 q 791 1101 806 1117 q 752 1086 776 1086 m 484 1086 q 444 1103 461 1086 q 427 1143 427 1120 q 443 1182 427 1166 q 481 1198 458 1198 q 523 1181 506 1198 q 540 1139 540 1164 q 524 1102 540 1118 q 484 1086 508 1086 z "},"Ȧ":{"ha":913,"x_min":-28,"x_max":799,"o":"m -28 0 l 566 1000 l 604 1000 l 799 0 l 755 0 l 692 338 l 689 350 l 578 936 l 572 936 l 229 354 l 216 331 l 22 0 l -28 0 m 193 324 l 202 365 l 719 365 l 709 324 l 193 324 m 625 1080 q 584 1097 601 1080 q 567 1139 567 1114 q 584 1180 567 1163 q 625 1197 601 1197 q 667 1180 650 1197 q 684 1139 684 1163 q 667 1097 684 1114 q 625 1080 650 1080 z "},"Ạ":{"ha":913,"x_min":-28,"x_max":799,"o":"m -28 0 l 566 1000 l 604 1000 l 799 0 l 755 0 l 692 338 l 689 350 l 578 936 l 572 936 l 229 354 l 216 331 l 22 0 l -28 0 m 193 324 l 202 365 l 719 365 l 709 324 l 193 324 m 372 -208 q 330 -191 347 -208 q 313 -149 313 -174 q 330 -108 313 -125 q 372 -91 347 -91 q 413 -108 396 -91 q 430 -149 430 -125 q 413 -191 430 -174 q 372 -208 396 -208 z "},"À":{"ha":913,"x_min":-28,"x_max":799,"o":"m -28 0 l 566 1000 l 604 1000 l 799 0 l 755 0 l 692 338 l 689 350 l 578 936 l 572 936 l 229 354 l 216 331 l 22 0 l -28 0 m 193 324 l 202 365 l 719 365 l 709 324 l 193 324 m 602 1055 l 450 1244 l 481 1274 l 635 1088 l 602 1055 z "},"Ả":{"ha":913,"x_min":-28,"x_max":799,"o":"m -28 0 l 566 1000 l 604 1000 l 799 0 l 755 0 l 692 338 l 689 350 l 578 936 l 572 936 l 229 354 l 216 331 l 22 0 l -28 0 m 193 324 l 202 365 l 719 365 l 709 324 l 193 324 m 617 1097 l 595 1128 q 652 1167 628 1143 q 682 1218 677 1192 q 671 1258 687 1244 q 625 1272 654 1272 q 581 1267 604 1272 q 541 1255 558 1262 l 545 1297 q 589 1307 568 1304 q 627 1310 610 1310 q 703 1282 680 1310 q 718 1211 727 1254 q 683 1146 711 1178 q 617 1097 655 1114 z "},"Ȃ":{"ha":913,"x_min":-28,"x_max":800,"o":"m -28 0 l 566 1000 l 604 1000 l 799 0 l 755 0 l 692 338 l 689 350 l 578 936 l 572 936 l 229 354 l 216 331 l 22 0 l -28 0 m 193 324 l 202 365 l 719 365 l 709 324 l 193 324 m 790 1051 l 751 1058 q 727 1142 763 1109 q 627 1175 692 1175 q 511 1139 561 1175 q 449 1052 460 1104 l 410 1058 q 452 1137 420 1102 q 530 1192 484 1171 q 628 1213 576 1212 q 725 1189 685 1213 q 783 1128 765 1165 q 790 1051 800 1090 z "},"Ā":{"ha":913,"x_min":-28,"x_max":849,"o":"m -28 0 l 566 1000 l 604 1000 l 799 0 l 755 0 l 692 338 l 689 350 l 578 936 l 572 936 l 229 354 l 216 331 l 22 0 l -28 0 m 193 324 l 202 365 l 719 365 l 709 324 l 193 324 m 387 1122 l 394 1162 l 849 1162 l 842 1122 l 387 1122 z "},"Ą":{"ha":913,"x_min":-28,"x_max":799,"o":"m -28 0 l 566 1000 l 604 1000 l 799 0 l 755 0 l 692 338 l 689 350 l 578 936 l 572 936 l 229 354 l 216 331 l 22 0 l -28 0 m 193 324 l 202 365 l 719 365 l 709 324 l 193 324 m 689 -261 q 624 -233 646 -261 q 612 -161 603 -205 q 669 -64 623 -106 q 769 20 715 -22 l 799 0 q 739 -52 772 -25 q 680 -108 705 -79 q 648 -168 654 -137 q 656 -210 642 -197 q 696 -223 671 -223 q 749 -212 722 -223 q 790 -191 776 -200 l 782 -235 q 739 -254 766 -246 q 689 -261 713 -261 z "},"Å":{"ha":913,"x_min":-28,"x_max":799,"o":"m -28 0 l 566 1000 l 604 1000 l 799 0 l 755 0 l 692 338 l 689 350 l 578 936 l 572 936 l 229 354 l 216 331 l 22 0 l -28 0 m 193 324 l 202 365 l 719 365 l 709 324 l 193 324 m 604 1044 q 542 1060 568 1044 q 502 1106 515 1077 q 497 1174 490 1135 q 552 1266 509 1231 q 646 1301 595 1301 q 710 1284 684 1301 q 749 1237 737 1267 q 753 1171 761 1208 q 724 1104 746 1133 q 670 1060 702 1076 q 604 1044 639 1044 m 602 1085 q 677 1113 646 1085 q 715 1176 708 1140 q 702 1238 722 1216 q 644 1261 682 1261 q 575 1236 609 1261 q 534 1168 542 1211 q 547 1108 527 1131 q 602 1085 568 1085 z "},"Ǻ":{"ha":913,"x_min":-28,"x_max":856,"o":"m 621 1100 q 558 1117 585 1100 q 519 1164 532 1135 q 514 1230 507 1194 q 563 1311 524 1278 q 651 1343 603 1343 q 713 1325 687 1343 q 750 1278 739 1308 q 755 1215 762 1249 q 708 1134 746 1167 q 621 1100 669 1100 m 621 1138 q 682 1161 653 1138 q 718 1217 711 1185 q 704 1280 725 1255 q 648 1305 682 1305 q 587 1282 617 1305 q 551 1223 557 1259 q 564 1166 545 1194 q 621 1138 583 1138 m 715 1372 l 678 1405 l 822 1591 l 856 1561 l 715 1372 m -28 0 l 566 1000 l 604 1000 l 799 0 l 755 0 l 692 338 l 689 350 l 578 936 l 572 936 l 229 354 l 216 331 l 22 0 l -28 0 m 193 324 l 202 365 l 719 365 l 709 324 l 193 324 z "},"Ã":{"ha":913,"x_min":-28,"x_max":822,"o":"m -28 0 l 566 1000 l 604 1000 l 799 0 l 755 0 l 692 338 l 689 350 l 578 936 l 572 936 l 229 354 l 216 331 l 22 0 l -28 0 m 193 324 l 202 365 l 719 365 l 709 324 l 193 324 m 454 1080 l 412 1086 q 461 1177 425 1142 q 543 1213 498 1213 q 596 1199 576 1213 q 629 1167 616 1185 q 656 1135 643 1149 q 691 1121 670 1121 q 749 1149 724 1121 q 780 1215 773 1178 l 822 1210 q 775 1118 811 1154 q 692 1082 740 1082 q 643 1096 662 1082 q 608 1127 623 1109 q 577 1158 593 1145 q 537 1172 561 1172 q 487 1146 510 1172 q 454 1080 463 1120 z "},"Æ":{"ha":1230,"x_min":-61,"x_max":1264,"o":"m -61 0 l 696 1000 l 730 1000 l 720 926 l 690 926 l 438 595 l -9 0 l -61 0 m 217 323 l 228 365 l 642 365 l 637 323 l 217 323 m 586 0 l 675 810 l 703 1000 l 1264 1000 l 1256 959 l 732 959 l 631 41 l 1071 41 l 1063 0 l 586 0 m 671 491 l 677 532 l 1105 532 l 1097 491 l 671 491 z "},"Ǽ":{"ha":1230,"x_min":-61,"x_max":1264,"o":"m -61 0 l 696 1000 l 730 1000 l 720 926 l 690 926 l 438 595 l -9 0 l -61 0 m 217 323 l 228 365 l 642 365 l 637 323 l 217 323 m 586 0 l 675 810 l 703 1000 l 1264 1000 l 1256 959 l 732 959 l 631 41 l 1071 41 l 1063 0 l 586 0 m 671 491 l 677 532 l 1105 532 l 1097 491 l 671 491 m 918 1055 l 882 1088 l 1025 1274 l 1059 1244 l 918 1055 z "},"B":{"ha":802,"x_min":66,"x_max":714,"o":"m 104 0 l 111 41 l 387 41 q 525 70 465 41 q 621 153 586 100 q 656 274 656 205 q 627 386 656 336 q 546 466 597 436 q 425 495 494 495 l 176 495 l 187 536 l 430 536 q 550 570 496 536 q 638 661 605 605 q 671 781 671 717 q 643 880 671 841 q 571 939 615 920 q 479 959 527 959 l 270 959 l 281 1000 l 481 1000 q 602 971 550 1000 q 684 893 654 943 q 714 778 714 844 q 689 666 714 718 q 620 573 664 613 q 515 510 575 533 l 513 519 q 610 472 568 507 q 676 387 652 437 q 699 274 699 336 q 659 131 699 193 q 548 35 618 69 q 389 0 477 0 l 104 0 m 66 0 l 269 1000 l 313 1000 l 111 0 l 66 0 z "},"C":{"ha":911,"x_min":104,"x_max":951,"o":"m 477 -11 q 269 45 351 -11 q 145 195 186 102 q 104 400 104 289 q 146 629 104 519 q 264 824 189 739 q 440 960 339 910 q 659 1010 541 1010 q 828 981 750 1010 q 951 905 907 951 l 927 865 q 817 942 890 913 q 659 970 743 970 q 456 923 549 970 q 294 796 363 876 q 186 613 224 715 q 148 401 148 511 q 183 217 148 301 q 293 81 218 132 q 482 30 367 30 q 650 62 572 30 q 790 152 728 94 l 802 107 q 643 17 726 45 q 477 -11 560 -11 z "},"Ć":{"ha":911,"x_min":104,"x_max":951,"o":"m 477 -11 q 269 45 351 -11 q 145 195 186 102 q 104 400 104 289 q 146 629 104 519 q 264 824 189 739 q 440 960 339 910 q 659 1010 541 1010 q 828 981 750 1010 q 951 905 907 951 l 927 865 q 817 942 890 913 q 659 970 743 970 q 456 923 549 970 q 294 796 363 876 q 186 613 224 715 q 148 401 148 511 q 183 217 148 301 q 293 81 218 132 q 482 30 367 30 q 650 62 572 30 q 790 152 728 94 l 802 107 q 643 17 726 45 q 477 -11 560 -11 m 705 1055 l 668 1088 l 812 1274 l 846 1244 l 705 1055 z "},"Č":{"ha":911,"x_min":104,"x_max":951,"o":"m 477 -11 q 269 45 351 -11 q 145 195 186 102 q 104 400 104 289 q 146 629 104 519 q 264 824 189 739 q 440 960 339 910 q 659 1010 541 1010 q 828 981 750 1010 q 951 905 907 951 l 927 865 q 817 942 890 913 q 659 970 743 970 q 456 923 549 970 q 294 796 363 876 q 186 613 224 715 q 148 401 148 511 q 183 217 148 301 q 293 81 218 132 q 482 30 367 30 q 650 62 572 30 q 790 152 728 94 l 802 107 q 643 17 726 45 q 477 -11 560 -11 m 669 1055 l 515 1199 l 543 1232 l 681 1099 l 689 1099 l 882 1232 l 908 1199 l 694 1055 l 669 1055 z "},"Ç":{"ha":911,"x_min":104,"x_max":951,"o":"m 477 -11 q 269 45 351 -11 q 145 195 186 102 q 104 400 104 289 q 146 629 104 519 q 264 824 189 739 q 440 960 339 910 q 659 1010 541 1010 q 828 981 750 1010 q 951 905 907 951 l 927 865 q 817 942 890 913 q 659 970 743 970 q 456 923 549 970 q 294 796 363 876 q 186 613 224 715 q 148 401 148 511 q 183 217 148 301 q 293 81 218 132 q 482 30 367 30 q 650 62 572 30 q 790 152 728 94 l 802 107 q 643 17 726 45 q 477 -11 560 -11 m 319 -291 l 323 -250 q 434 -237 388 -252 q 488 -178 479 -221 q 469 -132 494 -150 q 395 -114 445 -114 l 454 0 l 495 0 l 438 -109 l 432 -81 q 487 -95 464 -82 q 522 -131 511 -109 q 527 -183 533 -154 q 487 -251 518 -227 q 412 -282 456 -274 q 319 -291 368 -291 z "},"Ḉ":{"ha":911,"x_min":104,"x_max":951,"o":"m 477 -11 q 269 45 351 -11 q 145 195 186 102 q 104 400 104 289 q 146 629 104 519 q 264 824 189 739 q 440 960 339 910 q 659 1010 541 1010 q 828 981 750 1010 q 951 905 907 951 l 927 865 q 817 942 890 913 q 659 970 743 970 q 456 923 549 970 q 294 796 363 876 q 186 613 224 715 q 148 401 148 511 q 183 217 148 301 q 293 81 218 132 q 482 30 367 30 q 650 62 572 30 q 790 152 728 94 l 802 107 q 643 17 726 45 q 477 -11 560 -11 m 319 -291 l 323 -250 q 434 -237 388 -252 q 488 -178 479 -221 q 469 -132 494 -150 q 395 -114 445 -114 l 454 0 l 495 0 l 438 -109 l 432 -81 q 487 -95 464 -82 q 522 -131 511 -109 q 527 -183 533 -154 q 487 -251 518 -227 q 412 -282 456 -274 q 319 -291 368 -291 m 705 1055 l 668 1088 l 812 1274 l 846 1244 l 705 1055 z "},"Ĉ":{"ha":911,"x_min":104,"x_max":951,"o":"m 477 -11 q 269 45 351 -11 q 145 195 186 102 q 104 400 104 289 q 146 629 104 519 q 264 824 189 739 q 440 960 339 910 q 659 1010 541 1010 q 828 981 750 1010 q 951 905 907 951 l 927 865 q 817 942 890 913 q 659 970 743 970 q 456 923 549 970 q 294 796 363 876 q 186 613 224 715 q 148 401 148 511 q 183 217 148 301 q 293 81 218 132 q 482 30 367 30 q 650 62 572 30 q 790 152 728 94 l 802 107 q 643 17 726 45 q 477 -11 560 -11 m 524 1055 l 498 1088 l 713 1232 l 738 1232 l 891 1088 l 863 1055 l 726 1188 l 717 1188 l 524 1055 z "},"Ċ":{"ha":911,"x_min":104,"x_max":951,"o":"m 477 -11 q 269 45 351 -11 q 145 195 186 102 q 104 400 104 289 q 146 629 104 519 q 264 824 189 739 q 440 960 339 910 q 659 1010 541 1010 q 828 981 750 1010 q 951 905 907 951 l 927 865 q 817 942 890 913 q 659 970 743 970 q 456 923 549 970 q 294 796 363 876 q 186 613 224 715 q 148 401 148 511 q 183 217 148 301 q 293 81 218 132 q 482 30 367 30 q 650 62 572 30 q 790 152 728 94 l 802 107 q 643 17 726 45 q 477 -11 560 -11 m 711 1080 q 670 1097 687 1080 q 653 1139 653 1114 q 670 1180 653 1163 q 711 1197 687 1197 q 753 1180 736 1197 q 770 1139 770 1163 q 753 1097 770 1114 q 711 1080 736 1080 z "},"D":{"ha":940,"x_min":66,"x_max":886,"o":"m 66 0 l 269 1000 l 533 1000 q 728 946 649 1000 q 846 798 806 892 q 886 581 886 704 q 852 361 886 465 q 752 175 817 256 q 593 47 686 94 q 384 0 500 0 l 66 0 m 119 41 l 388 41 q 579 85 494 41 q 722 205 663 129 q 812 378 781 281 q 843 582 843 475 q 805 785 843 701 q 697 914 768 869 q 528 959 627 959 l 304 959 l 119 41 z "},"Ǆ":{"ha":1716,"x_min":66,"x_max":1733,"o":"m 66 0 l 269 1000 l 533 1000 q 728 946 649 1000 q 846 798 806 892 q 886 581 886 704 q 852 361 886 465 q 752 175 817 256 q 593 47 686 94 q 384 0 500 0 l 66 0 m 119 41 l 388 41 q 579 85 494 41 q 722 205 663 129 q 812 378 781 281 q 843 582 843 475 q 805 785 843 701 q 697 914 768 869 q 528 959 627 959 l 304 959 l 119 41 m 920 0 l 924 27 l 1660 956 l 1660 959 l 1131 959 l 1139 1000 l 1733 1000 l 1728 975 l 989 43 l 989 41 l 1560 41 l 1552 0 l 920 0 m 1445 1055 l 1291 1199 l 1320 1232 l 1457 1099 l 1466 1099 l 1659 1232 l 1685 1199 l 1470 1055 l 1445 1055 z "},"Ď":{"ha":940,"x_min":66,"x_max":886,"o":"m 66 0 l 269 1000 l 533 1000 q 728 946 649 1000 q 846 798 806 892 q 886 581 886 704 q 852 361 886 465 q 752 175 817 256 q 593 47 686 94 q 384 0 500 0 l 66 0 m 119 41 l 388 41 q 579 85 494 41 q 722 205 663 129 q 812 378 781 281 q 843 582 843 475 q 805 785 843 701 q 697 914 768 869 q 528 959 627 959 l 304 959 l 119 41 m 587 1055 l 433 1199 l 461 1232 l 599 1099 l 607 1099 l 800 1232 l 826 1199 l 612 1055 l 587 1055 z "},"Đ":{"ha":957,"x_min":64,"x_max":903,"o":"m 83 0 l 286 1000 l 550 1000 q 745 946 666 1000 q 863 798 823 892 q 903 581 903 704 q 869 361 903 465 q 769 175 834 256 q 610 47 703 94 q 401 0 517 0 l 83 0 m 136 41 l 405 41 q 596 85 511 41 q 739 205 680 129 q 829 378 798 281 q 860 582 860 475 q 822 785 860 701 q 714 914 785 869 q 545 959 644 959 l 321 959 l 136 41 m 64 481 l 71 518 l 353 518 l 347 481 l 64 481 z "},"Ḍ":{"ha":940,"x_min":66,"x_max":886,"o":"m 66 0 l 269 1000 l 533 1000 q 728 946 649 1000 q 846 798 806 892 q 886 581 886 704 q 852 361 886 465 q 752 175 817 256 q 593 47 686 94 q 384 0 500 0 l 66 0 m 119 41 l 388 41 q 579 85 494 41 q 722 205 663 129 q 812 378 781 281 q 843 582 843 475 q 805 785 843 701 q 697 914 768 869 q 528 959 627 959 l 304 959 l 119 41 m 366 -208 q 325 -191 342 -208 q 308 -149 308 -174 q 325 -108 308 -125 q 366 -91 342 -91 q 408 -108 391 -91 q 425 -149 425 -125 q 408 -191 425 -174 q 366 -208 391 -208 z "},"Ḏ":{"ha":940,"x_min":66,"x_max":886,"o":"m 66 0 l 269 1000 l 533 1000 q 728 946 649 1000 q 846 798 806 892 q 886 581 886 704 q 852 361 886 465 q 752 175 817 256 q 593 47 686 94 q 384 0 500 0 l 66 0 m 119 41 l 388 41 q 579 85 494 41 q 722 205 663 129 q 812 378 781 281 q 843 582 843 475 q 805 785 843 701 q 697 914 768 869 q 528 959 627 959 l 304 959 l 119 41 m 134 -255 l 141 -218 l 566 -218 l 559 -255 l 134 -255 z "},"ǅ":{"ha":1526,"x_min":66,"x_max":1516,"o":"m 66 0 l 269 1000 l 533 1000 q 728 946 649 1000 q 846 798 806 892 q 886 581 886 704 q 852 361 886 465 q 752 175 817 256 q 593 47 686 94 q 384 0 500 0 l 66 0 m 119 41 l 388 41 q 579 85 494 41 q 722 205 663 129 q 812 378 781 281 q 843 582 843 475 q 805 785 843 701 q 697 914 768 869 q 528 959 627 959 l 304 959 l 119 41 m 902 0 l 907 26 l 1447 671 l 1447 674 l 1056 674 l 1063 711 l 1515 711 l 1514 692 l 972 42 l 972 38 l 1387 38 l 1379 0 l 902 0 m 1287 823 l 1145 1000 l 1173 1027 l 1299 866 l 1304 866 l 1490 1027 l 1516 1000 l 1310 823 l 1287 823 z "},"Ð":{"ha":957,"x_min":64,"x_max":903,"o":"m 83 0 l 286 1000 l 550 1000 q 745 946 666 1000 q 863 798 823 892 q 903 581 903 704 q 869 361 903 465 q 769 175 834 256 q 610 47 703 94 q 401 0 517 0 l 83 0 m 136 41 l 405 41 q 596 85 511 41 q 739 205 680 129 q 829 378 798 281 q 860 582 860 475 q 822 785 860 701 q 714 914 785 869 q 545 959 644 959 l 321 959 l 136 41 m 64 481 l 71 518 l 353 518 l 347 481 l 64 481 z "},"E":{"ha":730,"x_min":66,"x_max":764,"o":"m 66 0 l 269 1000 l 764 1000 l 756 959 l 304 959 l 218 532 l 606 532 l 598 491 l 210 491 l 119 41 l 571 41 l 563 0 l 66 0 z "},"É":{"ha":730,"x_min":66,"x_max":764,"o":"m 66 0 l 269 1000 l 764 1000 l 756 959 l 304 959 l 218 532 l 606 532 l 598 491 l 210 491 l 119 41 l 571 41 l 563 0 l 66 0 m 555 1055 l 519 1088 l 663 1274 l 696 1244 l 555 1055 z "},"Ĕ":{"ha":730,"x_min":66,"x_max":764,"o":"m 66 0 l 269 1000 l 764 1000 l 756 959 l 304 959 l 218 532 l 606 532 l 598 491 l 210 491 l 119 41 l 571 41 l 563 0 l 66 0 m 541 1055 q 445 1078 485 1054 q 388 1139 406 1102 q 380 1215 371 1177 l 418 1210 q 424 1149 410 1175 q 469 1110 438 1124 q 540 1096 499 1096 q 660 1130 608 1096 q 720 1215 711 1164 l 759 1210 q 719 1130 752 1164 q 639 1075 686 1095 q 541 1055 591 1055 z "},"Ě":{"ha":730,"x_min":66,"x_max":764,"o":"m 66 0 l 269 1000 l 764 1000 l 756 959 l 304 959 l 218 532 l 606 532 l 598 491 l 210 491 l 119 41 l 571 41 l 563 0 l 66 0 m 519 1055 l 366 1199 l 394 1232 l 532 1099 l 540 1099 l 733 1232 l 759 1199 l 545 1055 l 519 1055 z "},"Ḝ":{"ha":730,"x_min":66,"x_max":764,"o":"m 66 0 l 269 1000 l 764 1000 l 756 959 l 304 959 l 218 532 l 606 532 l 598 491 l 210 491 l 119 41 l 571 41 l 563 0 l 66 0 m 180 -291 l 184 -250 q 294 -237 248 -252 q 349 -178 340 -221 q 330 -132 354 -150 q 256 -114 305 -114 l 315 0 l 355 0 l 298 -109 l 292 -81 q 348 -95 324 -82 q 382 -131 371 -109 q 387 -183 393 -154 q 348 -251 378 -227 q 273 -282 317 -274 q 180 -291 229 -291 m 541 1055 q 445 1078 485 1054 q 388 1139 406 1102 q 380 1215 371 1177 l 418 1210 q 424 1149 410 1175 q 469 1110 438 1124 q 540 1096 499 1096 q 660 1130 608 1096 q 720 1215 711 1164 l 759 1210 q 719 1130 752 1164 q 639 1075 686 1095 q 541 1055 591 1055 z "},"Ê":{"ha":730,"x_min":66,"x_max":764,"o":"m 66 0 l 269 1000 l 764 1000 l 756 959 l 304 959 l 218 532 l 606 532 l 598 491 l 210 491 l 119 41 l 571 41 l 563 0 l 66 0 m 375 1055 l 349 1088 l 564 1232 l 589 1232 l 742 1088 l 713 1055 l 576 1188 l 568 1188 l 375 1055 z "},"Ế":{"ha":730,"x_min":66,"x_max":909,"o":"m 66 0 l 269 1000 l 764 1000 l 756 959 l 304 959 l 218 532 l 606 532 l 598 491 l 210 491 l 119 41 l 571 41 l 563 0 l 66 0 m 694 1175 l 669 1204 l 878 1379 l 909 1347 l 694 1175 m 369 1046 l 343 1077 l 555 1224 l 580 1224 l 736 1077 l 707 1046 l 568 1177 l 559 1177 l 369 1046 z "},"Ệ":{"ha":730,"x_min":66,"x_max":764,"o":"m 66 0 l 269 1000 l 764 1000 l 756 959 l 304 959 l 218 532 l 606 532 l 598 491 l 210 491 l 119 41 l 571 41 l 563 0 l 66 0 m 327 -208 q 286 -191 302 -208 q 269 -149 269 -174 q 286 -108 269 -125 q 327 -91 302 -91 q 368 -108 351 -91 q 385 -149 385 -125 q 368 -191 385 -174 q 327 -208 351 -208 m 393 1055 l 368 1088 l 582 1233 l 607 1233 l 760 1088 l 732 1055 l 595 1189 l 586 1189 l 393 1055 z "},"Ề":{"ha":730,"x_min":66,"x_max":764,"o":"m 66 0 l 269 1000 l 764 1000 l 756 959 l 304 959 l 218 532 l 606 532 l 598 491 l 210 491 l 119 41 l 571 41 l 563 0 l 66 0 m 409 1169 l 276 1356 l 309 1380 l 441 1191 l 409 1169 m 372 1040 l 347 1070 l 558 1217 l 583 1217 l 739 1070 l 711 1040 l 571 1171 l 562 1171 l 372 1040 z "},"Ể":{"ha":730,"x_min":66,"x_max":785,"o":"m 66 0 l 269 1000 l 764 1000 l 756 959 l 304 959 l 218 532 l 606 532 l 598 491 l 210 491 l 119 41 l 571 41 l 563 0 l 66 0 m 686 1169 l 659 1194 q 707 1239 685 1212 q 734 1290 730 1266 q 724 1330 740 1315 q 677 1344 709 1344 q 636 1342 659 1344 q 594 1333 613 1339 l 598 1371 q 637 1379 616 1377 q 676 1381 659 1381 q 757 1355 730 1381 q 775 1285 785 1329 q 741 1220 768 1253 q 686 1169 713 1188 m 370 1046 l 345 1077 l 556 1224 l 581 1224 l 737 1077 l 709 1046 l 569 1177 l 560 1177 l 370 1046 z "},"Ễ":{"ha":730,"x_min":66,"x_max":770,"o":"m 66 0 l 269 1000 l 764 1000 l 756 959 l 304 959 l 218 532 l 606 532 l 598 491 l 210 491 l 119 41 l 571 41 l 563 0 l 66 0 m 404 1266 l 366 1272 q 411 1358 376 1328 q 493 1388 446 1388 q 545 1376 526 1388 q 579 1349 565 1364 q 607 1322 593 1333 q 642 1310 621 1310 q 697 1331 673 1310 q 729 1390 722 1351 l 770 1385 q 746 1323 764 1349 q 701 1283 728 1297 q 643 1269 675 1269 q 593 1281 612 1269 q 558 1309 573 1293 q 527 1337 543 1325 q 488 1350 511 1350 q 438 1329 463 1350 q 404 1266 414 1308 m 370 1046 l 344 1077 l 555 1224 l 581 1224 l 736 1077 l 708 1046 l 568 1177 l 559 1177 l 370 1046 z "},"Ȅ":{"ha":730,"x_min":66,"x_max":764,"o":"m 66 0 l 269 1000 l 764 1000 l 756 959 l 304 959 l 218 532 l 606 532 l 598 491 l 210 491 l 119 41 l 571 41 l 563 0 l 66 0 m 426 1086 l 335 1299 l 382 1322 l 459 1099 l 426 1086 m 617 1086 l 532 1299 l 578 1322 l 652 1099 l 617 1086 z "},"Ë":{"ha":730,"x_min":66,"x_max":764,"o":"m 66 0 l 269 1000 l 764 1000 l 756 959 l 304 959 l 218 532 l 606 532 l 598 491 l 210 491 l 119 41 l 571 41 l 563 0 l 66 0 m 689 1086 q 647 1103 665 1086 q 630 1143 630 1120 q 646 1182 630 1166 q 686 1198 662 1198 q 727 1182 710 1198 q 743 1139 743 1165 q 728 1101 743 1117 q 689 1086 713 1086 m 420 1086 q 381 1103 398 1086 q 364 1143 364 1120 q 380 1182 364 1166 q 418 1198 395 1198 q 460 1181 443 1198 q 477 1139 477 1164 q 461 1102 477 1118 q 420 1086 445 1086 z "},"Ė":{"ha":730,"x_min":66,"x_max":764,"o":"m 66 0 l 269 1000 l 764 1000 l 756 959 l 304 959 l 218 532 l 606 532 l 598 491 l 210 491 l 119 41 l 571 41 l 563 0 l 66 0 m 562 1080 q 521 1097 538 1080 q 504 1139 504 1114 q 521 1180 504 1163 q 562 1197 538 1197 q 604 1180 587 1197 q 621 1139 621 1163 q 604 1097 621 1114 q 562 1080 587 1080 z "},"Ẹ":{"ha":730,"x_min":66,"x_max":764,"o":"m 66 0 l 269 1000 l 764 1000 l 756 959 l 304 959 l 218 532 l 606 532 l 598 491 l 210 491 l 119 41 l 571 41 l 563 0 l 66 0 m 313 -208 q 272 -191 289 -208 q 255 -149 255 -174 q 272 -108 255 -125 q 313 -91 289 -91 q 355 -108 338 -91 q 372 -149 372 -125 q 355 -191 372 -174 q 313 -208 338 -208 z "},"È":{"ha":730,"x_min":66,"x_max":764,"o":"m 66 0 l 269 1000 l 764 1000 l 756 959 l 304 959 l 218 532 l 606 532 l 598 491 l 210 491 l 119 41 l 571 41 l 563 0 l 66 0 m 538 1055 l 387 1244 l 418 1274 l 572 1088 l 538 1055 z "},"Ẻ":{"ha":730,"x_min":66,"x_max":764,"o":"m 66 0 l 269 1000 l 764 1000 l 756 959 l 304 959 l 218 532 l 606 532 l 598 491 l 210 491 l 119 41 l 571 41 l 563 0 l 66 0 m 554 1097 l 532 1128 q 589 1167 565 1143 q 618 1218 614 1192 q 608 1258 624 1244 q 562 1272 591 1272 q 518 1267 541 1272 q 478 1255 495 1262 l 482 1297 q 526 1307 505 1304 q 564 1310 547 1310 q 640 1282 616 1310 q 655 1211 664 1254 q 620 1146 648 1178 q 554 1097 592 1114 z "},"Ȇ":{"ha":730,"x_min":66,"x_max":764,"o":"m 66 0 l 269 1000 l 764 1000 l 756 959 l 304 959 l 218 532 l 606 532 l 598 491 l 210 491 l 119 41 l 571 41 l 563 0 l 66 0 m 727 1051 l 688 1058 q 664 1142 700 1109 q 564 1175 629 1175 q 448 1139 498 1175 q 386 1052 397 1104 l 347 1058 q 389 1137 357 1102 q 467 1192 420 1171 q 565 1213 513 1212 q 662 1189 622 1213 q 720 1128 702 1165 q 727 1051 737 1090 z "},"Ē":{"ha":730,"x_min":66,"x_max":786,"o":"m 66 0 l 269 1000 l 764 1000 l 756 959 l 304 959 l 218 532 l 606 532 l 598 491 l 210 491 l 119 41 l 571 41 l 563 0 l 66 0 m 324 1122 l 331 1162 l 786 1162 l 779 1122 l 324 1122 z "},"Ḗ":{"ha":730,"x_min":66,"x_max":786,"o":"m 66 0 l 269 1000 l 764 1000 l 756 959 l 304 959 l 218 532 l 606 532 l 598 491 l 210 491 l 119 41 l 571 41 l 563 0 l 66 0 m 324 1122 l 331 1162 l 786 1162 l 779 1122 l 324 1122 m 587 1217 l 551 1251 l 694 1436 l 728 1407 l 587 1217 z "},"Ḕ":{"ha":730,"x_min":66,"x_max":786,"o":"m 66 0 l 269 1000 l 764 1000 l 756 959 l 304 959 l 218 532 l 606 532 l 598 491 l 210 491 l 119 41 l 571 41 l 563 0 l 66 0 m 324 1122 l 331 1162 l 786 1162 l 779 1122 l 324 1122 m 570 1217 l 418 1407 l 450 1436 l 604 1251 l 570 1217 z "},"Ę":{"ha":730,"x_min":66,"x_max":764,"o":"m 66 0 l 269 1000 l 764 1000 l 756 959 l 304 959 l 218 532 l 606 532 l 598 491 l 210 491 l 119 41 l 571 41 l 563 0 l 66 0 m 453 -261 q 388 -233 410 -261 q 376 -161 367 -205 q 433 -64 387 -106 q 533 20 479 -22 l 563 0 q 503 -52 536 -25 q 444 -108 469 -79 q 412 -168 418 -137 q 420 -210 406 -197 q 460 -223 435 -223 q 513 -212 486 -223 q 554 -191 540 -200 l 546 -235 q 503 -254 530 -246 q 453 -261 477 -261 z "},"Ẽ":{"ha":730,"x_min":66,"x_max":764,"o":"m 66 0 l 269 1000 l 764 1000 l 756 959 l 304 959 l 218 532 l 606 532 l 598 491 l 210 491 l 119 41 l 571 41 l 563 0 l 66 0 m 391 1080 l 349 1086 q 398 1177 362 1142 q 479 1213 435 1213 q 533 1199 513 1213 q 566 1167 553 1185 q 593 1135 580 1149 q 628 1121 607 1121 q 686 1149 661 1121 q 717 1215 710 1178 l 759 1210 q 712 1118 748 1154 q 629 1082 677 1082 q 579 1096 599 1082 q 545 1127 560 1109 q 514 1158 530 1145 q 474 1172 498 1172 q 424 1146 447 1172 q 391 1080 400 1120 z "},"Ə":{"ha":977,"x_min":100,"x_max":932,"o":"m 421 -11 q 247 33 319 -11 q 138 159 176 77 q 100 353 100 241 q 104 427 100 388 q 115 514 109 467 l 899 514 l 890 473 l 151 473 q 142 412 145 441 q 140 355 140 382 q 215 116 140 203 q 422 30 290 30 q 615 83 529 30 q 764 226 702 137 q 859 422 825 315 q 892 637 892 530 q 814 887 892 804 q 598 970 736 970 q 409 928 502 970 q 240 795 315 886 l 203 819 q 383 962 278 913 q 600 1010 488 1010 q 777 968 703 1010 q 892 842 852 926 q 932 631 932 758 q 897 399 932 513 q 794 192 861 285 q 633 44 727 100 q 421 -11 538 -11 z "},"F":{"ha":675,"x_min":66,"x_max":749,"o":"m 66 0 l 269 1000 l 749 1000 l 741 959 l 304 959 l 218 533 l 601 533 l 593 492 l 210 492 l 111 0 l 66 0 z "},"G":{"ha":1013,"x_min":104,"x_max":960,"o":"m 480 -11 q 333 17 401 -11 q 214 98 265 45 q 133 227 162 151 q 104 399 104 303 q 146 625 104 515 q 264 821 189 734 q 439 959 339 908 q 654 1010 538 1010 q 826 975 754 1010 q 937 899 899 940 l 911 860 q 800 942 867 915 q 656 970 732 970 q 457 922 549 970 q 295 792 365 873 q 187 609 226 711 q 148 401 148 508 q 192 204 148 288 q 311 75 235 121 q 479 30 386 30 q 665 81 576 30 q 820 234 753 132 q 914 488 886 336 l 930 473 l 528 473 l 534 514 l 960 514 l 954 475 q 865 230 930 340 q 702 54 800 119 q 480 -11 604 -11 z "},"Ğ":{"ha":1013,"x_min":104,"x_max":960,"o":"m 480 -11 q 333 17 401 -11 q 214 98 265 45 q 133 227 162 151 q 104 399 104 303 q 146 625 104 515 q 264 821 189 734 q 439 959 339 908 q 654 1010 538 1010 q 826 975 754 1010 q 937 899 899 940 l 911 860 q 800 942 867 915 q 656 970 732 970 q 457 922 549 970 q 295 792 365 873 q 187 609 226 711 q 148 401 148 508 q 192 204 148 288 q 311 75 235 121 q 479 30 386 30 q 665 81 576 30 q 820 234 753 132 q 914 488 886 336 l 930 473 l 528 473 l 534 514 l 960 514 l 954 475 q 865 230 930 340 q 702 54 800 119 q 480 -11 604 -11 m 662 1055 q 566 1078 606 1054 q 509 1139 526 1102 q 500 1215 492 1177 l 538 1210 q 545 1149 531 1175 q 589 1110 559 1124 q 661 1096 620 1096 q 781 1130 729 1096 q 841 1215 832 1164 l 880 1210 q 840 1130 873 1164 q 760 1075 807 1095 q 662 1055 712 1055 z "},"Ǧ":{"ha":1013,"x_min":104,"x_max":960,"o":"m 480 -11 q 333 17 401 -11 q 214 98 265 45 q 133 227 162 151 q 104 399 104 303 q 146 625 104 515 q 264 821 189 734 q 439 959 339 908 q 654 1010 538 1010 q 826 975 754 1010 q 937 899 899 940 l 911 860 q 800 942 867 915 q 656 970 732 970 q 457 922 549 970 q 295 792 365 873 q 187 609 226 711 q 148 401 148 508 q 192 204 148 288 q 311 75 235 121 q 479 30 386 30 q 665 81 576 30 q 820 234 753 132 q 914 488 886 336 l 930 473 l 528 473 l 534 514 l 960 514 l 954 475 q 865 230 930 340 q 702 54 800 119 q 480 -11 604 -11 m 640 1055 l 486 1199 l 515 1232 l 652 1099 l 661 1099 l 854 1232 l 880 1199 l 665 1055 l 640 1055 z "},"Ĝ":{"ha":1013,"x_min":104,"x_max":960,"o":"m 480 -11 q 333 17 401 -11 q 214 98 265 45 q 133 227 162 151 q 104 399 104 303 q 146 625 104 515 q 264 821 189 734 q 439 959 339 908 q 654 1010 538 1010 q 826 975 754 1010 q 937 899 899 940 l 911 860 q 800 942 867 915 q 656 970 732 970 q 457 922 549 970 q 295 792 365 873 q 187 609 226 711 q 148 401 148 508 q 192 204 148 288 q 311 75 235 121 q 479 30 386 30 q 665 81 576 30 q 820 234 753 132 q 914 488 886 336 l 930 473 l 528 473 l 534 514 l 960 514 l 954 475 q 865 230 930 340 q 702 54 800 119 q 480 -11 604 -11 m 496 1055 l 470 1088 l 684 1232 l 709 1232 l 863 1088 l 834 1055 l 697 1188 l 688 1188 l 496 1055 z "},"Ģ":{"ha":1013,"x_min":104,"x_max":960,"o":"m 480 -11 q 333 17 401 -11 q 214 98 265 45 q 133 227 162 151 q 104 399 104 303 q 146 625 104 515 q 264 821 189 734 q 439 959 339 908 q 654 1010 538 1010 q 826 975 754 1010 q 937 899 899 940 l 911 860 q 800 942 867 915 q 656 970 732 970 q 457 922 549 970 q 295 792 365 873 q 187 609 226 711 q 148 401 148 508 q 192 204 148 288 q 311 75 235 121 q 479 30 386 30 q 665 81 576 30 q 820 234 753 132 q 914 488 886 336 l 930 473 l 528 473 l 534 514 l 960 514 l 954 475 q 865 230 930 340 q 702 54 800 119 q 480 -11 604 -11 m 335 -347 l 313 -322 l 380 -267 q 407 -242 397 -254 q 421 -219 416 -231 q 426 -194 426 -207 l 443 -194 q 429 -213 436 -207 q 410 -219 422 -219 q 379 -205 393 -219 q 364 -172 364 -192 q 376 -140 364 -155 q 410 -125 388 -125 q 445 -140 430 -125 q 460 -183 460 -155 q 441 -245 460 -216 q 404 -289 422 -274 l 335 -347 z "},"Ġ":{"ha":1013,"x_min":104,"x_max":960,"o":"m 480 -11 q 333 17 401 -11 q 214 98 265 45 q 133 227 162 151 q 104 399 104 303 q 146 625 104 515 q 264 821 189 734 q 439 959 339 908 q 654 1010 538 1010 q 826 975 754 1010 q 937 899 899 940 l 911 860 q 800 942 867 915 q 656 970 732 970 q 457 922 549 970 q 295 792 365 873 q 187 609 226 711 q 148 401 148 508 q 192 204 148 288 q 311 75 235 121 q 479 30 386 30 q 665 81 576 30 q 820 234 753 132 q 914 488 886 336 l 930 473 l 528 473 l 534 514 l 960 514 l 954 475 q 865 230 930 340 q 702 54 800 119 q 480 -11 604 -11 m 683 1080 q 642 1097 659 1080 q 625 1139 625 1114 q 642 1180 625 1163 q 683 1197 659 1197 q 724 1180 707 1197 q 741 1139 741 1163 q 724 1097 741 1114 q 683 1080 707 1080 z "},"Ḡ":{"ha":1013,"x_min":104,"x_max":960,"o":"m 480 -11 q 333 17 401 -11 q 214 98 265 45 q 133 227 162 151 q 104 399 104 303 q 146 625 104 515 q 264 821 189 734 q 439 959 339 908 q 654 1010 538 1010 q 826 975 754 1010 q 937 899 899 940 l 911 860 q 800 942 867 915 q 656 970 732 970 q 457 922 549 970 q 295 792 365 873 q 187 609 226 711 q 148 401 148 508 q 192 204 148 288 q 311 75 235 121 q 479 30 386 30 q 665 81 576 30 q 820 234 753 132 q 914 488 886 336 l 930 473 l 528 473 l 534 514 l 960 514 l 954 475 q 865 230 930 340 q 702 54 800 119 q 480 -11 604 -11 m 445 1122 l 452 1162 l 907 1162 l 900 1122 l 445 1122 z "},"H":{"ha":943,"x_min":67,"x_max":930,"o":"m 67 0 l 265 1000 l 309 1000 l 217 532 l 795 532 l 886 1000 l 930 1000 l 736 0 l 692 0 l 787 491 l 209 491 l 111 0 l 67 0 z "},"Ħ":{"ha":978,"x_min":78,"x_max":1015,"o":"m 93 713 l 100 751 l 1015 751 l 1008 713 l 93 713 m 78 0 l 276 1000 l 320 1000 l 228 532 l 806 532 l 897 1000 l 941 1000 l 747 0 l 703 0 l 798 491 l 220 491 l 122 0 l 78 0 z "},"Ḫ":{"ha":943,"x_min":67,"x_max":930,"o":"m 67 0 l 265 1000 l 309 1000 l 217 532 l 795 532 l 886 1000 l 930 1000 l 736 0 l 692 0 l 787 491 l 209 491 l 111 0 l 67 0 m 357 -269 q 263 -243 302 -269 q 207 -174 224 -218 q 199 -78 189 -130 l 237 -83 q 258 -188 224 -145 q 358 -231 292 -231 q 440 -211 400 -231 q 508 -155 479 -190 q 543 -78 536 -120 l 581 -83 q 538 -178 572 -136 q 458 -245 505 -220 q 357 -269 410 -269 z "},"Ĥ":{"ha":943,"x_min":67,"x_max":930,"o":"m 67 0 l 265 1000 l 309 1000 l 217 532 l 795 532 l 886 1000 l 930 1000 l 736 0 l 692 0 l 787 491 l 209 491 l 111 0 l 67 0 m 447 1055 l 421 1088 l 635 1232 l 661 1232 l 814 1088 l 785 1055 l 648 1188 l 640 1188 l 447 1055 z "},"Ḥ":{"ha":943,"x_min":67,"x_max":930,"o":"m 67 0 l 265 1000 l 309 1000 l 217 532 l 795 532 l 886 1000 l 930 1000 l 736 0 l 692 0 l 787 491 l 209 491 l 111 0 l 67 0 m 369 -208 q 328 -191 345 -208 q 311 -149 311 -174 q 328 -108 311 -125 q 369 -91 345 -91 q 410 -108 393 -91 q 427 -149 427 -125 q 410 -191 427 -174 q 369 -208 393 -208 z "},"I":{"ha":339,"x_min":76,"x_max":320,"o":"m 76 0 l 276 1000 l 320 1000 l 120 0 l 76 0 z "},"Í":{"ha":339,"x_min":76,"x_max":469,"o":"m 76 0 l 276 1000 l 320 1000 l 120 0 l 76 0 m 328 1055 l 291 1088 l 435 1274 l 469 1244 l 328 1055 z "},"Ĭ":{"ha":361,"x_min":87,"x_max":542,"o":"m 87 0 l 287 1000 l 331 1000 l 131 0 l 87 0 m 324 1055 q 228 1078 268 1054 q 171 1139 189 1102 q 163 1215 154 1177 l 201 1210 q 207 1149 193 1175 q 252 1110 221 1124 q 323 1096 282 1096 q 443 1130 391 1096 q 503 1215 494 1164 l 542 1210 q 502 1130 535 1164 q 422 1075 469 1095 q 324 1055 374 1055 z "},"Ǐ":{"ha":361,"x_min":87,"x_max":542,"o":"m 87 0 l 287 1000 l 331 1000 l 131 0 l 87 0 m 302 1055 l 149 1199 l 177 1232 l 315 1099 l 323 1099 l 516 1232 l 542 1199 l 328 1055 l 302 1055 z "},"Î":{"ha":361,"x_min":87,"x_max":525,"o":"m 87 0 l 287 1000 l 331 1000 l 131 0 l 87 0 m 158 1055 l 132 1088 l 347 1232 l 372 1232 l 525 1088 l 496 1055 l 359 1188 l 351 1188 l 158 1055 z "},"Ȉ":{"ha":361,"x_min":87,"x_max":435,"o":"m 87 0 l 287 1000 l 331 1000 l 131 0 l 87 0 m 209 1086 l 118 1299 l 165 1322 l 242 1099 l 209 1086 m 400 1086 l 315 1299 l 361 1322 l 435 1099 l 400 1086 z "},"Ï":{"ha":408,"x_min":111,"x_max":550,"o":"m 111 0 l 311 1000 l 355 1000 l 155 0 l 111 0 m 496 1086 q 454 1103 471 1086 q 437 1143 437 1120 q 453 1182 437 1166 q 493 1198 469 1198 q 533 1182 517 1198 q 550 1139 550 1165 q 535 1101 550 1117 q 496 1086 519 1086 m 227 1086 q 188 1103 205 1086 q 171 1143 171 1120 q 186 1182 171 1166 q 224 1198 202 1198 q 267 1181 250 1198 q 283 1139 283 1164 q 268 1102 283 1118 q 227 1086 252 1086 z "},"Ḯ":{"ha":408,"x_min":111,"x_max":550,"o":"m 111 0 l 311 1000 l 355 1000 l 155 0 l 111 0 m 496 1086 q 454 1103 471 1086 q 437 1143 437 1120 q 453 1182 437 1166 q 493 1198 469 1198 q 533 1182 517 1198 q 550 1139 550 1165 q 535 1101 550 1117 q 496 1086 519 1086 m 227 1086 q 188 1103 205 1086 q 171 1143 171 1120 q 186 1182 171 1166 q 224 1198 202 1198 q 267 1181 250 1198 q 283 1139 283 1164 q 268 1102 283 1118 q 227 1086 252 1086 m 390 1202 l 353 1235 l 497 1421 l 531 1391 l 390 1202 z "},"İ":{"ha":339,"x_min":76,"x_max":393,"o":"m 76 0 l 276 1000 l 320 1000 l 120 0 l 76 0 m 334 1080 q 293 1097 310 1080 q 276 1139 276 1114 q 293 1180 276 1163 q 334 1197 310 1197 q 376 1180 359 1197 q 393 1139 393 1163 q 376 1097 393 1114 q 334 1080 359 1080 z "},"Ị":{"ha":339,"x_min":9,"x_max":320,"o":"m 76 0 l 276 1000 l 320 1000 l 120 0 l 76 0 m 68 -208 q 26 -191 43 -208 q 9 -149 9 -174 q 26 -108 9 -125 q 68 -91 43 -91 q 109 -108 92 -91 q 126 -149 126 -125 q 109 -191 126 -174 q 68 -208 92 -208 z "},"Ì":{"ha":339,"x_min":76,"x_max":345,"o":"m 76 0 l 276 1000 l 320 1000 l 120 0 l 76 0 m 311 1055 l 159 1244 l 190 1274 l 345 1088 l 311 1055 z "},"Ỉ":{"ha":339,"x_min":76,"x_max":436,"o":"m 76 0 l 276 1000 l 320 1000 l 120 0 l 76 0 m 326 1097 l 304 1128 q 361 1167 337 1143 q 391 1218 386 1192 q 380 1258 396 1244 q 334 1272 363 1272 q 290 1267 313 1272 q 250 1255 267 1262 l 254 1297 q 298 1307 277 1304 q 336 1310 319 1310 q 412 1282 389 1310 q 427 1211 436 1254 q 392 1146 420 1178 q 326 1097 364 1114 z "},"Ȋ":{"ha":408,"x_min":111,"x_max":544,"o":"m 111 0 l 311 1000 l 355 1000 l 155 0 l 111 0 m 534 1051 l 495 1058 q 471 1142 507 1109 q 370 1175 435 1175 q 254 1139 304 1175 q 193 1052 204 1104 l 154 1058 q 196 1137 164 1102 q 273 1192 227 1171 q 372 1213 319 1212 q 469 1189 429 1213 q 526 1128 509 1165 q 534 1051 544 1090 z "},"Ī":{"ha":408,"x_min":111,"x_max":593,"o":"m 111 0 l 311 1000 l 355 1000 l 155 0 l 111 0 m 131 1122 l 138 1162 l 593 1162 l 586 1122 l 131 1122 z "},"Į":{"ha":339,"x_min":-76,"x_max":320,"o":"m 76 0 l 276 1000 l 320 1000 l 120 0 l 76 0 m 10 -261 q -55 -233 -33 -261 q -67 -161 -76 -205 q -9 -64 -56 -106 q 90 20 37 -22 l 120 0 q 60 -52 93 -25 q 1 -108 26 -79 q -31 -168 -25 -137 q -22 -210 -37 -197 q 17 -223 -8 -223 q 70 -212 43 -223 q 111 -191 97 -200 l 103 -235 q 60 -254 87 -246 q 10 -261 34 -261 z "},"Ĩ":{"ha":419,"x_min":116,"x_max":571,"o":"m 116 0 l 316 1000 l 360 1000 l 160 0 l 116 0 m 203 1080 l 161 1086 q 211 1177 174 1142 q 292 1213 247 1213 q 345 1199 325 1213 q 378 1167 365 1185 q 406 1135 392 1149 q 440 1121 419 1121 q 498 1149 473 1121 q 529 1215 522 1178 l 571 1210 q 525 1118 560 1154 q 441 1082 489 1082 q 392 1096 411 1082 q 357 1127 372 1109 q 326 1158 342 1145 q 286 1172 310 1172 q 236 1146 259 1172 q 203 1080 212 1120 z "},"J":{"ha":614,"x_min":-4,"x_max":606,"o":"m 213 -11 q 96 22 147 -11 q 21 111 45 54 q 8 239 -4 167 l 52 233 q 60 124 39 170 q 121 54 81 79 q 210 30 162 30 q 314 64 273 30 q 380 156 355 98 q 419 289 405 215 l 561 1000 l 606 1000 l 464 289 q 371 63 433 136 q 213 -11 309 -11 z "},"Ĵ":{"ha":625,"x_min":-4,"x_max":799,"o":"m 213 -11 q 96 22 147 -11 q 21 111 45 54 q 8 239 -4 167 l 52 233 q 60 124 39 170 q 121 54 81 79 q 210 30 162 30 q 314 64 273 30 q 380 156 355 98 q 419 289 405 215 l 561 1000 l 606 1000 l 464 289 q 371 63 433 136 q 213 -11 309 -11 m 432 1055 l 406 1088 l 621 1232 l 646 1232 l 799 1088 l 770 1055 l 633 1188 l 625 1188 l 432 1055 z "},"K":{"ha":777,"x_min":67,"x_max":840,"o":"m 67 0 l 265 1000 l 309 1000 l 216 525 l 239 525 l 206 503 l 779 1000 l 840 1000 l 248 486 l 247 511 l 676 0 l 623 0 l 206 496 l 227 479 l 206 479 l 111 0 l 67 0 z "},"Ķ":{"ha":777,"x_min":67,"x_max":840,"o":"m 67 0 l 265 1000 l 309 1000 l 216 525 l 239 525 l 206 503 l 779 1000 l 840 1000 l 248 486 l 247 511 l 676 0 l 623 0 l 206 496 l 227 479 l 206 479 l 111 0 l 67 0 m 236 -347 l 214 -322 l 281 -267 q 308 -242 298 -254 q 322 -219 317 -231 q 327 -194 327 -207 l 344 -194 q 330 -213 337 -207 q 311 -219 323 -219 q 280 -205 294 -219 q 265 -172 265 -192 q 277 -140 265 -155 q 311 -125 289 -125 q 346 -140 331 -125 q 361 -183 361 -155 q 342 -245 361 -216 q 305 -289 323 -274 l 236 -347 z "},"L":{"ha":656,"x_min":67,"x_max":557,"o":"m 67 0 l 265 1000 l 309 1000 l 119 41 l 557 41 l 549 0 l 67 0 z "},"Ǉ":{"ha":1271,"x_min":67,"x_max":1262,"o":"m 67 0 l 265 1000 l 309 1000 l 119 41 l 557 41 l 549 0 l 67 0 m 869 -11 q 753 22 804 -11 q 677 111 702 54 q 665 239 652 167 l 708 233 q 716 124 696 170 q 778 54 737 79 q 867 30 819 30 q 970 64 929 30 q 1036 156 1011 98 q 1076 289 1061 215 l 1217 1000 l 1262 1000 l 1120 289 q 1027 63 1090 136 q 869 -11 965 -11 z "},"Ĺ":{"ha":656,"x_min":67,"x_max":557,"o":"m 67 0 l 265 1000 l 309 1000 l 119 41 l 557 41 l 549 0 l 67 0 m 315 1055 l 279 1088 l 422 1274 l 456 1244 l 315 1055 z "},"Ľ":{"ha":656,"x_min":67,"x_max":764,"o":"m 67 0 l 265 1000 l 309 1000 l 119 41 l 557 41 l 549 0 l 67 0 m 661 726 l 721 1000 l 764 1000 l 699 726 l 661 726 z "},"Ļ":{"ha":656,"x_min":67,"x_max":557,"o":"m 67 0 l 265 1000 l 309 1000 l 119 41 l 557 41 l 549 0 l 67 0 m 210 -347 l 188 -322 l 256 -267 q 282 -242 272 -254 q 296 -219 292 -231 q 301 -194 301 -207 l 318 -194 q 304 -213 311 -207 q 285 -219 297 -219 q 254 -205 269 -219 q 239 -172 239 -192 q 251 -140 239 -155 q 285 -125 263 -125 q 320 -140 305 -125 q 336 -183 336 -155 q 316 -245 336 -216 q 279 -289 297 -274 l 210 -347 z "},"Ŀ":{"ha":656,"x_min":67,"x_max":589,"o":"m 67 0 l 265 1000 l 309 1000 l 119 41 l 557 41 l 549 0 l 67 0 m 532 456 q 491 473 508 456 q 475 513 475 490 q 491 554 475 537 q 532 570 508 570 q 572 554 555 570 q 589 513 589 537 q 572 473 589 490 q 532 456 555 456 z "},"Ḷ":{"ha":656,"x_min":67,"x_max":557,"o":"m 67 0 l 265 1000 l 309 1000 l 119 41 l 557 41 l 549 0 l 67 0 m 290 -208 q 249 -191 266 -208 q 232 -149 232 -174 q 249 -108 232 -125 q 290 -91 266 -91 q 332 -108 315 -91 q 349 -149 349 -125 q 332 -191 349 -174 q 290 -208 315 -208 z "},"ǈ":{"ha":954,"x_min":67,"x_max":983,"o":"m 67 0 l 265 1000 l 309 1000 l 119 41 l 557 41 l 549 0 l 67 0 m 551 -297 q 524 -295 538 -297 q 496 -289 510 -293 l 505 -252 q 528 -257 517 -256 q 545 -259 539 -259 q 651 -212 610 -259 q 704 -100 691 -164 l 866 711 l 907 711 l 746 -98 q 707 -200 734 -155 q 641 -271 680 -245 q 551 -297 601 -297 m 925 853 q 884 870 901 853 q 867 911 867 887 q 884 953 867 936 q 925 970 901 970 q 966 953 949 970 q 983 911 983 936 q 966 870 983 887 q 925 853 949 853 z "},"Ḻ":{"ha":656,"x_min":58,"x_max":557,"o":"m 67 0 l 265 1000 l 309 1000 l 119 41 l 557 41 l 549 0 l 67 0 m 58 -255 l 65 -218 l 490 -218 l 483 -255 l 58 -255 z "},"Ł":{"ha":691,"x_min":63,"x_max":591,"o":"m 78 400 l 63 430 l 224 522 l 239 527 l 365 599 l 379 569 l 232 483 l 214 475 l 78 400 m 102 0 l 300 1000 l 344 1000 l 154 41 l 591 41 l 583 0 l 102 0 z "},"M":{"ha":1063,"x_min":67,"x_max":1052,"o":"m 67 0 l 265 1000 l 317 1000 l 507 259 l 515 259 l 992 1000 l 1052 1000 l 855 0 l 811 0 l 956 730 l 995 921 l 989 921 l 514 186 l 486 186 l 296 917 l 291 917 l 255 728 l 111 0 l 67 0 z "},"Ṃ":{"ha":1063,"x_min":67,"x_max":1052,"o":"m 67 0 l 265 1000 l 317 1000 l 507 259 l 515 259 l 992 1000 l 1052 1000 l 855 0 l 811 0 l 956 730 l 995 921 l 989 921 l 514 186 l 486 186 l 296 917 l 291 917 l 255 728 l 111 0 l 67 0 m 446 -208 q 405 -191 422 -208 q 388 -149 388 -174 q 405 -108 388 -125 q 446 -91 422 -91 q 488 -108 471 -91 q 505 -149 505 -125 q 488 -191 505 -174 q 446 -208 471 -208 z "},"N":{"ha":939,"x_min":67,"x_max":928,"o":"m 67 0 l 265 1000 l 303 1000 l 621 262 l 696 85 l 704 85 l 756 349 l 884 1000 l 928 1000 l 732 0 l 690 0 l 373 734 l 297 911 l 292 911 l 241 658 l 111 0 l 67 0 z "},"Ǌ":{"ha":1554,"x_min":67,"x_max":1545,"o":"m 67 0 l 265 1000 l 303 1000 l 621 262 l 696 85 l 704 85 l 756 349 l 884 1000 l 928 1000 l 732 0 l 690 0 l 373 734 l 297 911 l 292 911 l 241 658 l 111 0 l 67 0 m 1152 -11 q 1036 22 1086 -11 q 960 111 985 54 q 947 239 935 167 l 991 233 q 999 124 979 170 q 1061 54 1020 79 q 1149 30 1101 30 q 1253 64 1212 30 q 1319 156 1294 98 q 1358 289 1344 215 l 1500 1000 l 1545 1000 l 1403 289 q 1310 63 1373 136 q 1152 -11 1248 -11 z "},"Ń":{"ha":939,"x_min":67,"x_max":928,"o":"m 67 0 l 265 1000 l 303 1000 l 621 262 l 696 85 l 704 85 l 756 349 l 884 1000 l 928 1000 l 732 0 l 690 0 l 373 734 l 297 911 l 292 911 l 241 658 l 111 0 l 67 0 m 627 1055 l 590 1088 l 734 1274 l 768 1244 l 627 1055 z "},"Ň":{"ha":939,"x_min":67,"x_max":928,"o":"m 67 0 l 265 1000 l 303 1000 l 621 262 l 696 85 l 704 85 l 756 349 l 884 1000 l 928 1000 l 732 0 l 690 0 l 373 734 l 297 911 l 292 911 l 241 658 l 111 0 l 67 0 m 591 1055 l 437 1199 l 465 1232 l 603 1099 l 611 1099 l 804 1232 l 830 1199 l 616 1055 l 591 1055 z "},"Ņ":{"ha":939,"x_min":67,"x_max":928,"o":"m 67 0 l 265 1000 l 303 1000 l 621 262 l 696 85 l 704 85 l 756 349 l 884 1000 l 928 1000 l 732 0 l 690 0 l 373 734 l 297 911 l 292 911 l 241 658 l 111 0 l 67 0 m 280 -347 l 258 -322 l 326 -267 q 352 -242 342 -254 q 366 -219 361 -231 q 371 -194 371 -207 l 388 -194 q 374 -213 381 -207 q 355 -219 367 -219 q 324 -205 338 -219 q 309 -172 309 -192 q 321 -140 309 -155 q 355 -125 333 -125 q 390 -140 375 -125 q 406 -183 406 -155 q 386 -245 406 -216 q 349 -289 367 -274 l 280 -347 z "},"Ṅ":{"ha":939,"x_min":67,"x_max":928,"o":"m 67 0 l 265 1000 l 303 1000 l 621 262 l 696 85 l 704 85 l 756 349 l 884 1000 l 928 1000 l 732 0 l 690 0 l 373 734 l 297 911 l 292 911 l 241 658 l 111 0 l 67 0 m 633 1080 q 592 1097 609 1080 q 575 1139 575 1114 q 592 1180 575 1163 q 633 1197 609 1197 q 675 1180 658 1197 q 692 1139 692 1163 q 675 1097 692 1114 q 633 1080 658 1080 z "},"Ṇ":{"ha":939,"x_min":67,"x_max":928,"o":"m 67 0 l 265 1000 l 303 1000 l 621 262 l 696 85 l 704 85 l 756 349 l 884 1000 l 928 1000 l 732 0 l 690 0 l 373 734 l 297 911 l 292 911 l 241 658 l 111 0 l 67 0 m 360 -208 q 319 -191 336 -208 q 302 -149 302 -174 q 319 -108 302 -125 q 360 -91 336 -91 q 401 -108 385 -91 q 418 -149 418 -125 q 401 -191 418 -174 q 360 -208 385 -208 z "},"ǋ":{"ha":1236,"x_min":67,"x_max":1266,"o":"m 67 0 l 265 1000 l 303 1000 l 621 262 l 696 85 l 704 85 l 756 349 l 884 1000 l 928 1000 l 732 0 l 690 0 l 373 734 l 297 911 l 292 911 l 241 658 l 111 0 l 67 0 m 833 -297 q 807 -295 821 -297 q 779 -289 793 -293 l 787 -252 q 811 -257 800 -256 q 828 -259 822 -259 q 933 -212 893 -259 q 987 -100 974 -164 l 1149 711 l 1190 711 l 1029 -98 q 990 -200 1017 -155 q 923 -271 963 -245 q 833 -297 884 -297 m 1208 853 q 1166 870 1183 853 q 1149 911 1149 887 q 1166 953 1149 936 q 1208 970 1183 970 q 1249 953 1232 970 q 1266 911 1266 936 q 1249 870 1266 887 q 1208 853 1232 853 z "},"Ṉ":{"ha":939,"x_min":67,"x_max":928,"o":"m 67 0 l 265 1000 l 303 1000 l 621 262 l 696 85 l 704 85 l 756 349 l 884 1000 l 928 1000 l 732 0 l 690 0 l 373 734 l 297 911 l 292 911 l 241 658 l 111 0 l 67 0 m 128 -255 l 135 -218 l 560 -218 l 553 -255 l 128 -255 z "},"Ñ":{"ha":939,"x_min":67,"x_max":928,"o":"m 67 0 l 265 1000 l 303 1000 l 621 262 l 696 85 l 704 85 l 756 349 l 884 1000 l 928 1000 l 732 0 l 690 0 l 373 734 l 297 911 l 292 911 l 241 658 l 111 0 l 67 0 m 462 1080 l 420 1086 q 470 1177 433 1142 q 551 1213 506 1213 q 604 1199 584 1213 q 637 1167 624 1185 q 665 1135 651 1149 q 699 1121 678 1121 q 757 1149 732 1121 q 788 1215 781 1178 l 830 1210 q 784 1118 819 1154 q 701 1082 748 1082 q 651 1096 670 1082 q 616 1127 631 1109 q 585 1158 602 1145 q 545 1172 569 1172 q 495 1146 518 1172 q 462 1080 471 1120 z "},"Ŋ":{"ha":939,"x_min":67,"x_max":928,"o":"m 499 -296 q 435 -287 467 -296 q 371 -261 404 -279 l 386 -218 q 434 -243 400 -232 q 505 -255 467 -255 q 616 -210 574 -255 q 669 -105 657 -165 l 690 0 l 732 0 l 713 -92 q 643 -241 694 -186 q 499 -296 591 -296 m 67 0 l 265 1000 l 303 1000 l 621 262 l 696 85 l 704 85 l 756 349 l 884 1000 l 928 1000 l 732 0 l 690 0 l 373 734 l 297 911 l 292 911 l 241 658 l 111 0 l 67 0 z "},"O":{"ha":1053,"x_min":111,"x_max":998,"o":"m 494 -11 q 287 48 373 -11 q 156 208 201 107 q 111 431 111 308 q 149 650 111 546 q 255 836 186 754 q 416 964 323 917 q 618 1010 509 1010 q 787 975 715 1010 q 905 876 858 939 q 975 735 952 814 q 998 569 998 656 q 960 349 998 454 q 854 164 922 245 q 694 36 786 83 q 494 -11 602 -11 m 495 30 q 678 75 594 30 q 824 196 762 119 q 921 371 886 273 q 956 573 956 468 q 918 769 956 679 q 805 915 881 860 q 616 970 730 970 q 429 925 513 970 q 282 803 344 880 q 187 629 220 726 q 153 428 153 532 q 195 223 153 313 q 313 82 236 134 q 495 30 389 30 z "},"Ó":{"ha":1053,"x_min":111,"x_max":998,"o":"m 494 -11 q 287 48 373 -11 q 156 208 201 107 q 111 431 111 308 q 149 650 111 546 q 255 836 186 754 q 416 964 323 917 q 618 1010 509 1010 q 787 975 715 1010 q 905 876 858 939 q 975 735 952 814 q 998 569 998 656 q 960 349 998 454 q 854 164 922 245 q 694 36 786 83 q 494 -11 602 -11 m 495 30 q 678 75 594 30 q 824 196 762 119 q 921 371 886 273 q 956 573 956 468 q 918 769 956 679 q 805 915 881 860 q 616 970 730 970 q 429 925 513 970 q 282 803 344 880 q 187 629 220 726 q 153 428 153 532 q 195 223 153 313 q 313 82 236 134 q 495 30 389 30 m 677 1055 l 640 1088 l 784 1274 l 818 1244 l 677 1055 z "},"Ŏ":{"ha":1053,"x_min":111,"x_max":998,"o":"m 494 -11 q 287 48 373 -11 q 156 208 201 107 q 111 431 111 308 q 149 650 111 546 q 255 836 186 754 q 416 964 323 917 q 618 1010 509 1010 q 787 975 715 1010 q 905 876 858 939 q 975 735 952 814 q 998 569 998 656 q 960 349 998 454 q 854 164 922 245 q 694 36 786 83 q 494 -11 602 -11 m 495 30 q 678 75 594 30 q 824 196 762 119 q 921 371 886 273 q 956 573 956 468 q 918 769 956 679 q 805 915 881 860 q 616 970 730 970 q 429 925 513 970 q 282 803 344 880 q 187 629 220 726 q 153 428 153 532 q 195 223 153 313 q 313 82 236 134 q 495 30 389 30 m 663 1055 q 567 1078 606 1054 q 510 1139 527 1102 q 501 1215 492 1177 l 539 1210 q 546 1149 532 1175 q 590 1110 559 1124 q 661 1096 621 1096 q 781 1130 730 1096 q 842 1215 833 1164 l 880 1210 q 841 1130 873 1164 q 760 1075 808 1095 q 663 1055 713 1055 z "},"Ô":{"ha":1053,"x_min":111,"x_max":998,"o":"m 494 -11 q 287 48 373 -11 q 156 208 201 107 q 111 431 111 308 q 149 650 111 546 q 255 836 186 754 q 416 964 323 917 q 618 1010 509 1010 q 787 975 715 1010 q 905 876 858 939 q 975 735 952 814 q 998 569 998 656 q 960 349 998 454 q 854 164 922 245 q 694 36 786 83 q 494 -11 602 -11 m 495 30 q 678 75 594 30 q 824 196 762 119 q 921 371 886 273 q 956 573 956 468 q 918 769 956 679 q 805 915 881 860 q 616 970 730 970 q 429 925 513 970 q 282 803 344 880 q 187 629 220 726 q 153 428 153 532 q 195 223 153 313 q 313 82 236 134 q 495 30 389 30 m 496 1055 l 471 1088 l 685 1232 l 710 1232 l 863 1088 l 835 1055 l 698 1188 l 689 1188 l 496 1055 z "},"Ố":{"ha":1053,"x_min":111,"x_max":1030,"o":"m 494 -11 q 287 48 373 -11 q 156 208 201 107 q 111 431 111 308 q 149 650 111 546 q 255 836 186 754 q 416 964 323 917 q 618 1010 509 1010 q 787 975 715 1010 q 905 876 858 939 q 975 735 952 814 q 998 569 998 656 q 960 349 998 454 q 854 164 922 245 q 694 36 786 83 q 494 -11 602 -11 m 495 30 q 678 75 594 30 q 824 196 762 119 q 921 371 886 273 q 956 573 956 468 q 918 769 956 679 q 805 915 881 860 q 616 970 730 970 q 429 925 513 970 q 282 803 344 880 q 187 629 220 726 q 153 428 153 532 q 195 223 153 313 q 313 82 236 134 q 495 30 389 30 m 816 1175 l 791 1204 l 1000 1379 l 1030 1347 l 816 1175 m 490 1046 l 465 1077 l 676 1224 l 701 1224 l 857 1077 l 829 1046 l 689 1177 l 680 1177 l 490 1046 z "},"Ộ":{"ha":1053,"x_min":111,"x_max":998,"o":"m 494 -11 q 287 48 373 -11 q 156 208 201 107 q 111 431 111 308 q 149 650 111 546 q 255 836 186 754 q 416 964 323 917 q 618 1010 509 1010 q 787 975 715 1010 q 905 876 858 939 q 975 735 952 814 q 998 569 998 656 q 960 349 998 454 q 854 164 922 245 q 694 36 786 83 q 494 -11 602 -11 m 495 30 q 678 75 594 30 q 824 196 762 119 q 921 371 886 273 q 956 573 956 468 q 918 769 956 679 q 805 915 881 860 q 616 970 730 970 q 429 925 513 970 q 282 803 344 880 q 187 629 220 726 q 153 428 153 532 q 195 223 153 313 q 313 82 236 134 q 495 30 389 30 m 441 -208 q 400 -191 417 -208 q 383 -149 383 -174 q 400 -108 383 -125 q 441 -91 417 -91 q 483 -108 466 -91 q 500 -149 500 -125 q 483 -191 500 -174 q 441 -208 466 -208 m 508 1055 l 482 1088 l 696 1233 l 722 1233 l 875 1088 l 846 1055 l 709 1189 l 701 1189 l 508 1055 z "},"Ồ":{"ha":1053,"x_min":111,"x_max":998,"o":"m 494 -11 q 287 48 373 -11 q 156 208 201 107 q 111 431 111 308 q 149 650 111 546 q 255 836 186 754 q 416 964 323 917 q 618 1010 509 1010 q 787 975 715 1010 q 905 876 858 939 q 975 735 952 814 q 998 569 998 656 q 960 349 998 454 q 854 164 922 245 q 694 36 786 83 q 494 -11 602 -11 m 495 30 q 678 75 594 30 q 824 196 762 119 q 921 371 886 273 q 956 573 956 468 q 918 769 956 679 q 805 915 881 860 q 616 970 730 970 q 429 925 513 970 q 282 803 344 880 q 187 629 220 726 q 153 428 153 532 q 195 223 153 313 q 313 82 236 134 q 495 30 389 30 m 530 1169 l 397 1356 l 430 1380 l 563 1191 l 530 1169 m 494 1040 l 468 1070 l 680 1217 l 705 1217 l 861 1070 l 832 1040 l 692 1171 l 684 1171 l 494 1040 z "},"Ổ":{"ha":1053,"x_min":111,"x_max":998,"o":"m 494 -11 q 287 48 373 -11 q 156 208 201 107 q 111 431 111 308 q 149 650 111 546 q 255 836 186 754 q 416 964 323 917 q 618 1010 509 1010 q 787 975 715 1010 q 905 876 858 939 q 975 735 952 814 q 998 569 998 656 q 960 349 998 454 q 854 164 922 245 q 694 36 786 83 q 494 -11 602 -11 m 495 30 q 678 75 594 30 q 824 196 762 119 q 921 371 886 273 q 956 573 956 468 q 918 769 956 679 q 805 915 881 860 q 616 970 730 970 q 429 925 513 970 q 282 803 344 880 q 187 629 220 726 q 153 428 153 532 q 195 223 153 313 q 313 82 236 134 q 495 30 389 30 m 808 1169 l 781 1194 q 829 1239 806 1212 q 856 1290 851 1266 q 846 1330 861 1315 q 799 1344 830 1344 q 757 1342 780 1344 q 715 1333 734 1339 l 720 1371 q 759 1379 737 1377 q 798 1381 781 1381 q 879 1355 851 1381 q 897 1285 906 1329 q 862 1220 890 1253 q 808 1169 835 1188 m 492 1046 l 466 1077 l 677 1224 l 703 1224 l 859 1077 l 830 1046 l 690 1177 l 682 1177 l 492 1046 z "},"Ỗ":{"ha":1053,"x_min":111,"x_max":998,"o":"m 494 -11 q 287 48 373 -11 q 156 208 201 107 q 111 431 111 308 q 149 650 111 546 q 255 836 186 754 q 416 964 323 917 q 618 1010 509 1010 q 787 975 715 1010 q 905 876 858 939 q 975 735 952 814 q 998 569 998 656 q 960 349 998 454 q 854 164 922 245 q 694 36 786 83 q 494 -11 602 -11 m 495 30 q 678 75 594 30 q 824 196 762 119 q 921 371 886 273 q 956 573 956 468 q 918 769 956 679 q 805 915 881 860 q 616 970 730 970 q 429 925 513 970 q 282 803 344 880 q 187 629 220 726 q 153 428 153 532 q 195 223 153 313 q 313 82 236 134 q 495 30 389 30 m 526 1266 l 488 1272 q 532 1358 498 1328 q 614 1388 567 1388 q 667 1376 647 1388 q 700 1349 686 1364 q 728 1322 714 1333 q 763 1310 742 1310 q 819 1331 794 1310 q 850 1390 843 1351 l 892 1385 q 867 1323 886 1349 q 823 1283 849 1297 q 764 1269 796 1269 q 714 1281 734 1269 q 679 1309 694 1293 q 648 1337 664 1325 q 609 1350 632 1350 q 559 1329 584 1350 q 526 1266 535 1308 m 491 1046 l 465 1077 l 677 1224 l 702 1224 l 858 1077 l 829 1046 l 690 1177 l 681 1177 l 491 1046 z "},"Ȍ":{"ha":1053,"x_min":111,"x_max":998,"o":"m 494 -11 q 287 48 373 -11 q 156 208 201 107 q 111 431 111 308 q 149 650 111 546 q 255 836 186 754 q 416 964 323 917 q 618 1010 509 1010 q 787 975 715 1010 q 905 876 858 939 q 975 735 952 814 q 998 569 998 656 q 960 349 998 454 q 854 164 922 245 q 694 36 786 83 q 494 -11 602 -11 m 495 30 q 678 75 594 30 q 824 196 762 119 q 921 371 886 273 q 956 573 956 468 q 918 769 956 679 q 805 915 881 860 q 616 970 730 970 q 429 925 513 970 q 282 803 344 880 q 187 629 220 726 q 153 428 153 532 q 195 223 153 313 q 313 82 236 134 q 495 30 389 30 m 547 1086 l 456 1299 l 503 1322 l 581 1099 l 547 1086 m 739 1086 l 653 1299 l 700 1322 l 774 1099 l 739 1086 z "},"Ö":{"ha":1053,"x_min":111,"x_max":998,"o":"m 494 -11 q 287 48 373 -11 q 156 208 201 107 q 111 431 111 308 q 149 650 111 546 q 255 836 186 754 q 416 964 323 917 q 618 1010 509 1010 q 787 975 715 1010 q 905 876 858 939 q 975 735 952 814 q 998 569 998 656 q 960 349 998 454 q 854 164 922 245 q 694 36 786 83 q 494 -11 602 -11 m 495 30 q 678 75 594 30 q 824 196 762 119 q 921 371 886 273 q 956 573 956 468 q 918 769 956 679 q 805 915 881 860 q 616 970 730 970 q 429 925 513 970 q 282 803 344 880 q 187 629 220 726 q 153 428 153 532 q 195 223 153 313 q 313 82 236 134 q 495 30 389 30 m 810 1086 q 769 1103 786 1086 q 751 1143 751 1120 q 767 1182 751 1166 q 808 1198 783 1198 q 848 1182 831 1198 q 865 1139 865 1165 q 849 1101 865 1117 q 810 1086 834 1086 m 542 1086 q 503 1103 519 1086 q 486 1143 486 1120 q 501 1182 486 1166 q 539 1198 517 1198 q 581 1181 564 1198 q 598 1139 598 1164 q 582 1102 598 1118 q 542 1086 566 1086 z "},"Ȫ":{"ha":1053,"x_min":111,"x_max":998,"o":"m 494 -11 q 287 48 373 -11 q 156 208 201 107 q 111 431 111 308 q 149 650 111 546 q 255 836 186 754 q 416 964 323 917 q 618 1010 509 1010 q 787 975 715 1010 q 905 876 858 939 q 975 735 952 814 q 998 569 998 656 q 960 349 998 454 q 854 164 922 245 q 694 36 786 83 q 494 -11 602 -11 m 495 30 q 678 75 594 30 q 824 196 762 119 q 921 371 886 273 q 956 573 956 468 q 918 769 956 679 q 805 915 881 860 q 616 970 730 970 q 429 925 513 970 q 282 803 344 880 q 187 629 220 726 q 153 428 153 532 q 195 223 153 313 q 313 82 236 134 q 495 30 389 30 m 810 1086 q 769 1103 786 1086 q 751 1143 751 1120 q 767 1182 751 1166 q 808 1198 783 1198 q 848 1182 831 1198 q 865 1139 865 1165 q 849 1101 865 1117 q 810 1086 834 1086 m 542 1086 q 503 1103 519 1086 q 486 1143 486 1120 q 501 1182 486 1166 q 539 1198 517 1198 q 581 1181 564 1198 q 598 1139 598 1164 q 582 1102 598 1118 q 542 1086 566 1086 m 473 1269 l 480 1310 l 935 1310 l 928 1269 l 473 1269 z "},"Ȱ":{"ha":1053,"x_min":111,"x_max":998,"o":"m 494 -11 q 287 48 373 -11 q 156 208 201 107 q 111 431 111 308 q 149 650 111 546 q 255 836 186 754 q 416 964 323 917 q 618 1010 509 1010 q 787 975 715 1010 q 905 876 858 939 q 975 735 952 814 q 998 569 998 656 q 960 349 998 454 q 854 164 922 245 q 694 36 786 83 q 494 -11 602 -11 m 495 30 q 678 75 594 30 q 824 196 762 119 q 921 371 886 273 q 956 573 956 468 q 918 769 956 679 q 805 915 881 860 q 616 970 730 970 q 429 925 513 970 q 282 803 344 880 q 187 629 220 726 q 153 428 153 532 q 195 223 153 313 q 313 82 236 134 q 495 30 389 30 m 684 1080 q 642 1097 659 1080 q 625 1139 625 1114 q 642 1180 625 1163 q 684 1197 659 1197 q 725 1180 708 1197 q 742 1139 742 1163 q 725 1097 742 1114 q 684 1080 708 1080 m 483 1261 l 490 1302 l 945 1302 l 938 1261 l 483 1261 z "},"Ọ":{"ha":1053,"x_min":111,"x_max":998,"o":"m 494 -11 q 287 48 373 -11 q 156 208 201 107 q 111 431 111 308 q 149 650 111 546 q 255 836 186 754 q 416 964 323 917 q 618 1010 509 1010 q 787 975 715 1010 q 905 876 858 939 q 975 735 952 814 q 998 569 998 656 q 960 349 998 454 q 854 164 922 245 q 694 36 786 83 q 494 -11 602 -11 m 495 30 q 678 75 594 30 q 824 196 762 119 q 921 371 886 273 q 956 573 956 468 q 918 769 956 679 q 805 915 881 860 q 616 970 730 970 q 429 925 513 970 q 282 803 344 880 q 187 629 220 726 q 153 428 153 532 q 195 223 153 313 q 313 82 236 134 q 495 30 389 30 m 428 -208 q 387 -191 404 -208 q 370 -149 370 -174 q 387 -108 370 -125 q 428 -91 404 -91 q 469 -108 452 -91 q 486 -149 486 -125 q 469 -191 486 -174 q 428 -208 452 -208 z "},"Ò":{"ha":1053,"x_min":111,"x_max":998,"o":"m 494 -11 q 287 48 373 -11 q 156 208 201 107 q 111 431 111 308 q 149 650 111 546 q 255 836 186 754 q 416 964 323 917 q 618 1010 509 1010 q 787 975 715 1010 q 905 876 858 939 q 975 735 952 814 q 998 569 998 656 q 960 349 998 454 q 854 164 922 245 q 694 36 786 83 q 494 -11 602 -11 m 495 30 q 678 75 594 30 q 824 196 762 119 q 921 371 886 273 q 956 573 956 468 q 918 769 956 679 q 805 915 881 860 q 616 970 730 970 q 429 925 513 970 q 282 803 344 880 q 187 629 220 726 q 153 428 153 532 q 195 223 153 313 q 313 82 236 134 q 495 30 389 30 m 660 1055 l 508 1244 l 539 1274 l 694 1088 l 660 1055 z "},"Ỏ":{"ha":1053,"x_min":111,"x_max":998,"o":"m 494 -11 q 287 48 373 -11 q 156 208 201 107 q 111 431 111 308 q 149 650 111 546 q 255 836 186 754 q 416 964 323 917 q 618 1010 509 1010 q 787 975 715 1010 q 905 876 858 939 q 975 735 952 814 q 998 569 998 656 q 960 349 998 454 q 854 164 922 245 q 694 36 786 83 q 494 -11 602 -11 m 495 30 q 678 75 594 30 q 824 196 762 119 q 921 371 886 273 q 956 573 956 468 q 918 769 956 679 q 805 915 881 860 q 616 970 730 970 q 429 925 513 970 q 282 803 344 880 q 187 629 220 726 q 153 428 153 532 q 195 223 153 313 q 313 82 236 134 q 495 30 389 30 m 675 1097 l 654 1128 q 711 1167 686 1143 q 740 1218 735 1192 q 729 1258 745 1244 q 683 1272 713 1272 q 639 1267 662 1272 q 600 1255 616 1262 l 604 1297 q 648 1307 627 1304 q 686 1310 669 1310 q 762 1282 738 1310 q 777 1211 785 1254 q 742 1146 770 1178 q 675 1097 713 1114 z "},"Ơ":{"ha":1053,"x_min":111,"x_max":1069,"o":"m 494 -11 q 287 48 373 -11 q 156 208 201 107 q 111 431 111 308 q 149 650 111 546 q 255 836 186 754 q 416 964 323 917 q 618 1010 509 1010 q 787 975 715 1010 q 905 876 858 939 q 975 735 952 814 q 998 569 998 656 q 960 349 998 454 q 854 164 922 245 q 694 36 786 83 q 494 -11 602 -11 m 495 30 q 678 75 594 30 q 824 196 762 119 q 921 371 886 273 q 956 573 956 468 q 918 769 956 679 q 805 915 881 860 q 616 970 730 970 q 429 925 513 970 q 282 803 344 880 q 187 629 220 726 q 153 428 153 532 q 195 223 153 313 q 313 82 236 134 q 495 30 389 30 m 816 920 l 817 955 q 944 996 888 955 q 1016 1108 1001 1038 q 1021 1146 1020 1127 q 1023 1175 1023 1165 l 1067 1175 q 1066 1139 1069 1162 q 1060 1096 1064 1117 q 1030 1021 1052 1055 q 975 965 1008 988 q 902 930 942 941 q 816 920 861 918 z "},"Ớ":{"ha":1053,"x_min":111,"x_max":1069,"o":"m 494 -11 q 287 48 373 -11 q 156 208 201 107 q 111 431 111 308 q 149 650 111 546 q 255 836 186 754 q 416 964 323 917 q 618 1010 509 1010 q 787 975 715 1010 q 905 876 858 939 q 975 735 952 814 q 998 569 998 656 q 960 349 998 454 q 854 164 922 245 q 694 36 786 83 q 494 -11 602 -11 m 495 30 q 678 75 594 30 q 824 196 762 119 q 921 371 886 273 q 956 573 956 468 q 918 769 956 679 q 805 915 881 860 q 616 970 730 970 q 429 925 513 970 q 282 803 344 880 q 187 629 220 726 q 153 428 153 532 q 195 223 153 313 q 313 82 236 134 q 495 30 389 30 m 816 920 l 817 955 q 944 996 888 955 q 1016 1108 1001 1038 q 1021 1146 1020 1127 q 1023 1175 1023 1165 l 1067 1175 q 1066 1139 1069 1162 q 1060 1096 1064 1117 q 1030 1021 1052 1055 q 975 965 1008 988 q 902 930 942 941 q 816 920 861 918 m 677 1055 l 640 1088 l 784 1274 l 818 1244 l 677 1055 z "},"Ợ":{"ha":1053,"x_min":111,"x_max":1069,"o":"m 494 -11 q 287 48 373 -11 q 156 208 201 107 q 111 431 111 308 q 149 650 111 546 q 255 836 186 754 q 416 964 323 917 q 618 1010 509 1010 q 787 975 715 1010 q 905 876 858 939 q 975 735 952 814 q 998 569 998 656 q 960 349 998 454 q 854 164 922 245 q 694 36 786 83 q 494 -11 602 -11 m 495 30 q 678 75 594 30 q 824 196 762 119 q 921 371 886 273 q 956 573 956 468 q 918 769 956 679 q 805 915 881 860 q 616 970 730 970 q 429 925 513 970 q 282 803 344 880 q 187 629 220 726 q 153 428 153 532 q 195 223 153 313 q 313 82 236 134 q 495 30 389 30 m 816 920 l 817 955 q 944 996 888 955 q 1016 1108 1001 1038 q 1021 1146 1020 1127 q 1023 1175 1023 1165 l 1067 1175 q 1066 1139 1069 1162 q 1060 1096 1064 1117 q 1030 1021 1052 1055 q 975 965 1008 988 q 902 930 942 941 q 816 920 861 918 m 441 -208 q 400 -191 417 -208 q 383 -149 383 -174 q 400 -108 383 -125 q 441 -91 417 -91 q 483 -108 466 -91 q 500 -149 500 -125 q 483 -191 500 -174 q 441 -208 466 -208 z "},"Ờ":{"ha":1053,"x_min":111,"x_max":1069,"o":"m 494 -11 q 287 48 373 -11 q 156 208 201 107 q 111 431 111 308 q 149 650 111 546 q 255 836 186 754 q 416 964 323 917 q 618 1010 509 1010 q 787 975 715 1010 q 905 876 858 939 q 975 735 952 814 q 998 569 998 656 q 960 349 998 454 q 854 164 922 245 q 694 36 786 83 q 494 -11 602 -11 m 495 30 q 678 75 594 30 q 824 196 762 119 q 921 371 886 273 q 956 573 956 468 q 918 769 956 679 q 805 915 881 860 q 616 970 730 970 q 429 925 513 970 q 282 803 344 880 q 187 629 220 726 q 153 428 153 532 q 195 223 153 313 q 313 82 236 134 q 495 30 389 30 m 816 920 l 817 955 q 944 996 888 955 q 1016 1108 1001 1038 q 1021 1146 1020 1127 q 1023 1175 1023 1165 l 1067 1175 q 1066 1139 1069 1162 q 1060 1096 1064 1117 q 1030 1021 1052 1055 q 975 965 1008 988 q 902 930 942 941 q 816 920 861 918 m 660 1055 l 508 1244 l 539 1274 l 694 1088 l 660 1055 z "},"Ở":{"ha":1053,"x_min":111,"x_max":1069,"o":"m 494 -11 q 287 48 373 -11 q 156 208 201 107 q 111 431 111 308 q 149 650 111 546 q 255 836 186 754 q 416 964 323 917 q 618 1010 509 1010 q 787 975 715 1010 q 905 876 858 939 q 975 735 952 814 q 998 569 998 656 q 960 349 998 454 q 854 164 922 245 q 694 36 786 83 q 494 -11 602 -11 m 495 30 q 678 75 594 30 q 824 196 762 119 q 921 371 886 273 q 956 573 956 468 q 918 769 956 679 q 805 915 881 860 q 616 970 730 970 q 429 925 513 970 q 282 803 344 880 q 187 629 220 726 q 153 428 153 532 q 195 223 153 313 q 313 82 236 134 q 495 30 389 30 m 816 920 l 817 955 q 944 996 888 955 q 1016 1108 1001 1038 q 1021 1146 1020 1127 q 1023 1175 1023 1165 l 1067 1175 q 1066 1139 1069 1162 q 1060 1096 1064 1117 q 1030 1021 1052 1055 q 975 965 1008 988 q 902 930 942 941 q 816 920 861 918 m 675 1097 l 654 1128 q 711 1167 686 1143 q 740 1218 735 1192 q 729 1258 745 1244 q 683 1272 713 1272 q 639 1267 662 1272 q 600 1255 616 1262 l 604 1297 q 648 1307 627 1304 q 686 1310 669 1310 q 762 1282 738 1310 q 777 1211 785 1254 q 742 1146 770 1178 q 675 1097 713 1114 z "},"Ỡ":{"ha":1053,"x_min":111,"x_max":1069,"o":"m 494 -11 q 287 48 373 -11 q 156 208 201 107 q 111 431 111 308 q 149 650 111 546 q 255 836 186 754 q 416 964 323 917 q 618 1010 509 1010 q 787 975 715 1010 q 905 876 858 939 q 975 735 952 814 q 998 569 998 656 q 960 349 998 454 q 854 164 922 245 q 694 36 786 83 q 494 -11 602 -11 m 495 30 q 678 75 594 30 q 824 196 762 119 q 921 371 886 273 q 956 573 956 468 q 918 769 956 679 q 805 915 881 860 q 616 970 730 970 q 429 925 513 970 q 282 803 344 880 q 187 629 220 726 q 153 428 153 532 q 195 223 153 313 q 313 82 236 134 q 495 30 389 30 m 816 920 l 817 955 q 944 996 888 955 q 1016 1108 1001 1038 q 1021 1146 1020 1127 q 1023 1175 1023 1165 l 1067 1175 q 1066 1139 1069 1162 q 1060 1096 1064 1117 q 1030 1021 1052 1055 q 975 965 1008 988 q 902 930 942 941 q 816 920 861 918 m 512 1080 l 471 1086 q 520 1177 484 1142 q 601 1213 556 1213 q 654 1199 634 1213 q 688 1167 674 1185 q 715 1135 701 1149 q 749 1121 728 1121 q 807 1149 783 1121 q 838 1215 831 1178 l 880 1210 q 834 1118 869 1154 q 751 1082 798 1082 q 701 1096 720 1082 q 667 1127 682 1109 q 635 1158 652 1145 q 595 1172 619 1172 q 545 1146 568 1172 q 512 1080 522 1120 z "},"Ő":{"ha":1053,"x_min":111,"x_max":998,"o":"m 494 -11 q 287 48 373 -11 q 156 208 201 107 q 111 431 111 308 q 149 650 111 546 q 255 836 186 754 q 416 964 323 917 q 618 1010 509 1010 q 787 975 715 1010 q 905 876 858 939 q 975 735 952 814 q 998 569 998 656 q 960 349 998 454 q 854 164 922 245 q 694 36 786 83 q 494 -11 602 -11 m 495 30 q 678 75 594 30 q 824 196 762 119 q 921 371 886 273 q 956 573 956 468 q 918 769 956 679 q 805 915 881 860 q 616 970 730 970 q 429 925 513 970 q 282 803 344 880 q 187 629 220 726 q 153 428 153 532 q 195 223 153 313 q 313 82 236 134 q 495 30 389 30 m 587 1086 l 559 1099 l 726 1322 l 759 1299 l 587 1086 m 780 1086 l 756 1099 l 920 1322 l 952 1299 l 780 1086 z "},"Ȏ":{"ha":1053,"x_min":111,"x_max":998,"o":"m 494 -11 q 287 48 373 -11 q 156 208 201 107 q 111 431 111 308 q 149 650 111 546 q 255 836 186 754 q 416 964 323 917 q 618 1010 509 1010 q 787 975 715 1010 q 905 876 858 939 q 975 735 952 814 q 998 569 998 656 q 960 349 998 454 q 854 164 922 245 q 694 36 786 83 q 494 -11 602 -11 m 495 30 q 678 75 594 30 q 824 196 762 119 q 921 371 886 273 q 956 573 956 468 q 918 769 956 679 q 805 915 881 860 q 616 970 730 970 q 429 925 513 970 q 282 803 344 880 q 187 629 220 726 q 153 428 153 532 q 195 223 153 313 q 313 82 236 134 q 495 30 389 30 m 848 1051 l 810 1058 q 786 1142 821 1109 q 685 1175 750 1175 q 569 1139 619 1175 q 507 1052 519 1104 l 469 1058 q 510 1137 479 1102 q 588 1192 542 1171 q 686 1213 634 1212 q 783 1189 743 1213 q 841 1128 823 1165 q 848 1051 859 1090 z "},"Ō":{"ha":1053,"x_min":111,"x_max":998,"o":"m 494 -11 q 287 48 373 -11 q 156 208 201 107 q 111 431 111 308 q 149 650 111 546 q 255 836 186 754 q 416 964 323 917 q 618 1010 509 1010 q 787 975 715 1010 q 905 876 858 939 q 975 735 952 814 q 998 569 998 656 q 960 349 998 454 q 854 164 922 245 q 694 36 786 83 q 494 -11 602 -11 m 495 30 q 678 75 594 30 q 824 196 762 119 q 921 371 886 273 q 956 573 956 468 q 918 769 956 679 q 805 915 881 860 q 616 970 730 970 q 429 925 513 970 q 282 803 344 880 q 187 629 220 726 q 153 428 153 532 q 195 223 153 313 q 313 82 236 134 q 495 30 389 30 m 446 1122 l 452 1162 l 907 1162 l 901 1122 l 446 1122 z "},"Ṓ":{"ha":1053,"x_min":111,"x_max":998,"o":"m 471 1122 l 478 1162 l 933 1162 l 926 1122 l 471 1122 m 734 1217 l 698 1251 l 842 1436 l 876 1407 l 734 1217 m 494 -11 q 287 48 373 -11 q 156 208 201 107 q 111 431 111 308 q 149 650 111 546 q 255 836 186 754 q 416 964 323 917 q 618 1010 509 1010 q 787 975 715 1010 q 905 876 858 939 q 975 735 952 814 q 998 569 998 656 q 960 349 998 454 q 854 164 922 245 q 694 36 786 83 q 494 -11 602 -11 m 495 30 q 678 75 594 30 q 824 196 762 119 q 921 371 886 273 q 956 573 956 468 q 918 769 956 679 q 805 915 881 860 q 616 970 730 970 q 429 925 513 970 q 282 803 344 880 q 187 629 220 726 q 153 428 153 532 q 195 223 153 313 q 313 82 236 134 q 495 30 389 30 z "},"Ṑ":{"ha":1053,"x_min":111,"x_max":998,"o":"m 494 -11 q 287 48 373 -11 q 156 208 201 107 q 111 431 111 308 q 149 650 111 546 q 255 836 186 754 q 416 964 323 917 q 618 1010 509 1010 q 787 975 715 1010 q 905 876 858 939 q 975 735 952 814 q 998 569 998 656 q 960 349 998 454 q 854 164 922 245 q 694 36 786 83 q 494 -11 602 -11 m 495 30 q 678 75 594 30 q 824 196 762 119 q 921 371 886 273 q 956 573 956 468 q 918 769 956 679 q 805 915 881 860 q 616 970 730 970 q 429 925 513 970 q 282 803 344 880 q 187 629 220 726 q 153 428 153 532 q 195 223 153 313 q 313 82 236 134 q 495 30 389 30 m 446 1122 l 452 1162 l 907 1162 l 901 1122 l 446 1122 m 692 1217 l 540 1407 l 571 1436 l 726 1251 l 692 1217 z "},"Ǫ":{"ha":1053,"x_min":111,"x_max":998,"o":"m 494 -11 q 287 48 373 -11 q 156 208 201 107 q 111 431 111 308 q 149 650 111 546 q 255 836 186 754 q 416 964 323 917 q 618 1010 509 1010 q 787 975 715 1010 q 905 876 858 939 q 975 735 952 814 q 998 569 998 656 q 960 349 998 454 q 854 164 922 245 q 694 36 786 83 q 494 -11 602 -11 m 495 30 q 678 75 594 30 q 824 196 762 119 q 921 371 886 273 q 956 573 956 468 q 918 769 956 679 q 805 915 881 860 q 616 970 730 970 q 429 925 513 970 q 282 803 344 880 q 187 629 220 726 q 153 428 153 532 q 195 223 153 313 q 313 82 236 134 q 495 30 389 30 m 474 -261 q 409 -233 431 -261 q 397 -161 388 -205 q 454 -64 408 -106 q 554 20 500 -22 l 584 0 q 524 -52 557 -25 q 465 -108 490 -79 q 433 -168 439 -137 q 441 -210 427 -197 q 481 -223 456 -223 q 534 -212 507 -223 q 575 -191 561 -200 l 567 -235 q 524 -254 551 -246 q 474 -261 498 -261 z "},"Ø":{"ha":1053,"x_min":-16,"x_max":1125,"o":"m 494 -11 q 287 48 373 -11 q 156 208 201 107 q 111 431 111 308 q 149 650 111 546 q 255 836 186 754 q 416 964 323 917 q 618 1010 509 1010 q 787 975 715 1010 q 905 876 858 939 q 975 735 952 814 q 998 569 998 656 q 960 349 998 454 q 854 164 922 245 q 694 36 786 83 q 494 -11 602 -11 m 495 30 q 678 75 594 30 q 824 196 762 119 q 921 371 886 273 q 956 573 956 468 q 918 769 956 679 q 805 915 881 860 q 616 970 730 970 q 429 925 513 970 q 282 803 344 880 q 187 629 220 726 q 153 428 153 532 q 195 223 153 313 q 313 82 236 134 q 495 30 389 30 m 8 -3 l -16 22 l 1101 1002 l 1125 978 l 8 -3 z "},"Ǿ":{"ha":1053,"x_min":-16,"x_max":1125,"o":"m 494 -11 q 287 48 373 -11 q 156 208 201 107 q 111 431 111 308 q 149 650 111 546 q 255 836 186 754 q 416 964 323 917 q 618 1010 509 1010 q 787 975 715 1010 q 905 876 858 939 q 975 735 952 814 q 998 569 998 656 q 960 349 998 454 q 854 164 922 245 q 694 36 786 83 q 494 -11 602 -11 m 495 30 q 678 75 594 30 q 824 196 762 119 q 921 371 886 273 q 956 573 956 468 q 918 769 956 679 q 805 915 881 860 q 616 970 730 970 q 429 925 513 970 q 282 803 344 880 q 187 629 220 726 q 153 428 153 532 q 195 223 153 313 q 313 82 236 134 q 495 30 389 30 m 8 -3 l -16 22 l 1101 1002 l 1125 978 l 8 -3 m 677 1055 l 640 1088 l 784 1274 l 818 1244 l 677 1055 z "},"Õ":{"ha":1053,"x_min":111,"x_max":998,"o":"m 494 -11 q 287 48 373 -11 q 156 208 201 107 q 111 431 111 308 q 149 650 111 546 q 255 836 186 754 q 416 964 323 917 q 618 1010 509 1010 q 787 975 715 1010 q 905 876 858 939 q 975 735 952 814 q 998 569 998 656 q 960 349 998 454 q 854 164 922 245 q 694 36 786 83 q 494 -11 602 -11 m 495 30 q 678 75 594 30 q 824 196 762 119 q 921 371 886 273 q 956 573 956 468 q 918 769 956 679 q 805 915 881 860 q 616 970 730 970 q 429 925 513 970 q 282 803 344 880 q 187 629 220 726 q 153 428 153 532 q 195 223 153 313 q 313 82 236 134 q 495 30 389 30 m 512 1080 l 471 1086 q 520 1177 484 1142 q 601 1213 556 1213 q 654 1199 634 1213 q 688 1167 674 1185 q 715 1135 701 1149 q 749 1121 728 1121 q 807 1149 783 1121 q 838 1215 831 1178 l 880 1210 q 834 1118 869 1154 q 751 1082 798 1082 q 701 1096 720 1082 q 667 1127 682 1109 q 635 1158 652 1145 q 595 1172 619 1172 q 545 1146 568 1172 q 512 1080 522 1120 z "},"Ṍ":{"ha":1053,"x_min":111,"x_max":998,"o":"m 494 -11 q 287 48 373 -11 q 156 208 201 107 q 111 431 111 308 q 149 650 111 546 q 255 836 186 754 q 416 964 323 917 q 618 1010 509 1010 q 787 975 715 1010 q 905 876 858 939 q 975 735 952 814 q 998 569 998 656 q 960 349 998 454 q 854 164 922 245 q 694 36 786 83 q 494 -11 602 -11 m 495 30 q 678 75 594 30 q 824 196 762 119 q 921 371 886 273 q 956 573 956 468 q 918 769 956 679 q 805 915 881 860 q 616 970 730 970 q 429 925 513 970 q 282 803 344 880 q 187 629 220 726 q 153 428 153 532 q 195 223 153 313 q 313 82 236 134 q 495 30 389 30 m 512 1080 l 471 1086 q 520 1177 484 1142 q 601 1213 556 1213 q 654 1199 634 1213 q 688 1167 674 1185 q 715 1135 701 1149 q 749 1121 728 1121 q 807 1149 783 1121 q 838 1215 831 1178 l 880 1210 q 834 1118 869 1154 q 751 1082 798 1082 q 701 1096 720 1082 q 667 1127 682 1109 q 635 1158 652 1145 q 595 1172 619 1172 q 545 1146 568 1172 q 512 1080 522 1120 m 713 1242 l 677 1276 l 821 1461 l 854 1432 l 713 1242 z "},"Ṏ":{"ha":1053,"x_min":111,"x_max":998,"o":"m 494 -11 q 287 48 373 -11 q 156 208 201 107 q 111 431 111 308 q 149 650 111 546 q 255 836 186 754 q 416 964 323 917 q 618 1010 509 1010 q 787 975 715 1010 q 905 876 858 939 q 975 735 952 814 q 998 569 998 656 q 960 349 998 454 q 854 164 922 245 q 694 36 786 83 q 494 -11 602 -11 m 495 30 q 678 75 594 30 q 824 196 762 119 q 921 371 886 273 q 956 573 956 468 q 918 769 956 679 q 805 915 881 860 q 616 970 730 970 q 429 925 513 970 q 282 803 344 880 q 187 629 220 726 q 153 428 153 532 q 195 223 153 313 q 313 82 236 134 q 495 30 389 30 m 512 1080 l 471 1086 q 520 1177 484 1142 q 601 1213 556 1213 q 654 1199 634 1213 q 688 1167 674 1185 q 715 1135 701 1149 q 749 1121 728 1121 q 807 1149 783 1121 q 838 1215 831 1178 l 880 1210 q 834 1118 869 1154 q 751 1082 798 1082 q 701 1096 720 1082 q 667 1127 682 1109 q 635 1158 652 1145 q 595 1172 619 1172 q 545 1146 568 1172 q 512 1080 522 1120 m 847 1274 q 805 1291 823 1274 q 788 1331 788 1308 q 804 1370 788 1354 q 844 1386 820 1386 q 885 1370 868 1386 q 901 1327 901 1353 q 886 1289 901 1305 q 847 1274 871 1274 m 578 1274 q 539 1291 556 1274 q 522 1331 522 1308 q 538 1370 522 1354 q 576 1386 553 1386 q 618 1369 601 1386 q 635 1327 635 1352 q 619 1290 635 1305 q 578 1274 603 1274 z "},"Ȭ":{"ha":1053,"x_min":111,"x_max":998,"o":"m 494 -11 q 287 48 373 -11 q 156 208 201 107 q 111 431 111 308 q 149 650 111 546 q 255 836 186 754 q 416 964 323 917 q 618 1010 509 1010 q 787 975 715 1010 q 905 876 858 939 q 975 735 952 814 q 998 569 998 656 q 960 349 998 454 q 854 164 922 245 q 694 36 786 83 q 494 -11 602 -11 m 495 30 q 678 75 594 30 q 824 196 762 119 q 921 371 886 273 q 956 573 956 468 q 918 769 956 679 q 805 915 881 860 q 616 970 730 970 q 429 925 513 970 q 282 803 344 880 q 187 629 220 726 q 153 428 153 532 q 195 223 153 313 q 313 82 236 134 q 495 30 389 30 m 512 1080 l 471 1086 q 520 1177 484 1142 q 601 1213 556 1213 q 654 1199 634 1213 q 688 1167 674 1185 q 715 1135 701 1149 q 749 1121 728 1121 q 807 1149 783 1121 q 838 1215 831 1178 l 880 1210 q 834 1118 869 1154 q 751 1082 798 1082 q 701 1096 720 1082 q 667 1127 682 1109 q 635 1158 652 1145 q 595 1172 619 1172 q 545 1146 568 1172 q 512 1080 522 1120 m 482 1310 l 489 1350 l 944 1350 l 937 1310 l 482 1310 z "},"Œ":{"ha":1538,"x_min":102,"x_max":1573,"o":"m 482 -11 q 326 19 395 -11 q 206 103 256 49 q 129 232 156 157 q 102 394 102 306 q 146 620 102 510 q 268 818 191 730 q 447 958 345 906 q 664 1010 549 1010 q 838 972 760 1010 q 963 861 916 933 q 1014 688 1010 789 l 1004 690 l 1065 1000 l 1573 1000 l 1565 959 l 1101 959 l 1017 532 l 1415 532 l 1407 492 l 1007 492 l 918 41 l 1380 41 l 1373 0 l 865 0 l 927 309 l 946 307 q 748 71 873 152 q 482 -11 623 -11 m 484 30 q 685 80 593 30 q 842 215 776 130 q 945 404 909 299 q 982 616 982 508 q 946 802 982 723 q 839 926 909 882 q 667 970 769 970 q 464 922 558 970 q 298 791 369 873 q 186 607 227 709 q 146 397 146 505 q 186 209 146 292 q 302 78 227 125 q 484 30 378 30 z "},"P":{"ha":751,"x_min":66,"x_max":754,"o":"m 184 452 l 193 492 l 446 492 q 586 528 526 492 q 678 622 645 563 q 711 753 711 682 q 683 866 711 821 q 606 936 654 912 q 500 959 558 959 l 284 959 l 294 1000 l 503 1000 q 631 970 574 1000 q 721 885 688 941 q 754 750 754 829 q 714 596 754 664 q 602 490 673 529 q 437 452 530 452 l 184 452 m 66 0 l 265 1000 l 309 1000 l 111 0 l 66 0 z "},"Þ":{"ha":780,"x_min":67,"x_max":741,"o":"m 145 224 l 153 264 l 431 264 q 570 305 509 264 q 664 412 630 345 q 699 555 699 478 q 641 689 699 648 q 494 731 583 731 l 245 731 l 254 772 l 494 772 q 671 717 600 772 q 741 553 741 663 q 699 388 741 463 q 585 269 657 313 q 422 224 513 224 l 145 224 m 67 0 l 265 1000 l 309 1000 l 111 0 l 67 0 z "},"Q":{"ha":1058,"x_min":111,"x_max":998,"o":"m 847 0 l 780 106 l 765 118 l 603 372 l 651 372 l 798 144 l 811 133 l 895 0 l 847 0 m 494 -11 q 287 48 373 -11 q 156 208 201 107 q 111 431 111 308 q 149 650 111 546 q 255 836 186 754 q 416 964 323 917 q 618 1010 509 1010 q 787 975 715 1010 q 905 876 858 939 q 975 735 952 814 q 998 569 998 656 q 960 349 998 454 q 854 164 922 245 q 694 36 786 83 q 494 -11 602 -11 m 495 30 q 678 75 594 30 q 824 196 762 119 q 921 371 886 273 q 956 573 956 468 q 918 769 956 679 q 805 915 881 860 q 616 970 730 970 q 429 925 513 970 q 282 803 344 880 q 187 629 220 726 q 153 428 153 532 q 195 223 153 313 q 313 82 236 134 q 495 30 389 30 z "},"R":{"ha":814,"x_min":67,"x_max":753,"o":"m 186 452 l 193 492 l 433 492 q 579 526 517 492 q 676 618 642 559 q 711 757 711 677 q 650 905 711 851 q 501 959 590 959 l 284 959 l 294 1000 l 503 1000 q 630 970 574 1000 q 720 885 687 940 q 753 755 753 830 q 711 594 753 662 q 594 489 669 526 q 420 452 519 452 l 186 452 m 67 0 l 265 1000 l 309 1000 l 111 0 l 67 0 m 622 0 l 400 457 l 434 487 l 670 0 l 622 0 z "},"Ŕ":{"ha":814,"x_min":67,"x_max":753,"o":"m 186 452 l 193 492 l 433 492 q 579 526 517 492 q 676 618 642 559 q 711 757 711 677 q 650 905 711 851 q 501 959 590 959 l 284 959 l 294 1000 l 503 1000 q 630 970 574 1000 q 720 885 687 940 q 753 755 753 830 q 711 594 753 662 q 594 489 669 526 q 420 452 519 452 l 186 452 m 67 0 l 265 1000 l 309 1000 l 111 0 l 67 0 m 622 0 l 400 457 l 434 487 l 670 0 l 622 0 m 535 1055 l 498 1088 l 642 1274 l 676 1244 l 535 1055 z "},"Ř":{"ha":814,"x_min":67,"x_max":753,"o":"m 186 452 l 193 492 l 433 492 q 579 526 517 492 q 676 618 642 559 q 711 757 711 677 q 650 905 711 851 q 501 959 590 959 l 284 959 l 294 1000 l 503 1000 q 630 970 574 1000 q 720 885 687 940 q 753 755 753 830 q 711 594 753 662 q 594 489 669 526 q 420 452 519 452 l 186 452 m 67 0 l 265 1000 l 309 1000 l 111 0 l 67 0 m 622 0 l 400 457 l 434 487 l 670 0 l 622 0 m 499 1055 l 345 1199 l 374 1232 l 511 1099 l 519 1099 l 713 1232 l 739 1199 l 524 1055 l 499 1055 z "},"Ŗ":{"ha":814,"x_min":67,"x_max":753,"o":"m 186 452 l 193 492 l 433 492 q 579 526 517 492 q 676 618 642 559 q 711 757 711 677 q 650 905 711 851 q 501 959 590 959 l 284 959 l 294 1000 l 503 1000 q 630 970 574 1000 q 720 885 687 940 q 753 755 753 830 q 711 594 753 662 q 594 489 669 526 q 420 452 519 452 l 186 452 m 67 0 l 265 1000 l 309 1000 l 111 0 l 67 0 m 622 0 l 400 457 l 434 487 l 670 0 l 622 0 m 244 -347 l 222 -322 l 290 -267 q 316 -242 306 -254 q 330 -219 326 -231 q 335 -194 335 -207 l 352 -194 q 338 -213 345 -207 q 319 -219 331 -219 q 288 -205 302 -219 q 273 -172 273 -192 q 285 -140 273 -155 q 319 -125 297 -125 q 354 -140 339 -125 q 370 -183 370 -155 q 350 -245 370 -216 q 313 -289 331 -274 l 244 -347 z "},"Ȑ":{"ha":814,"x_min":67,"x_max":753,"o":"m 186 452 l 193 492 l 433 492 q 579 526 517 492 q 676 618 642 559 q 711 757 711 677 q 650 905 711 851 q 501 959 590 959 l 284 959 l 294 1000 l 503 1000 q 630 970 574 1000 q 720 885 687 940 q 753 755 753 830 q 711 594 753 662 q 594 489 669 526 q 420 452 519 452 l 186 452 m 67 0 l 265 1000 l 309 1000 l 111 0 l 67 0 m 622 0 l 400 457 l 434 487 l 670 0 l 622 0 m 406 1086 l 315 1299 l 361 1322 l 439 1099 l 406 1086 m 597 1086 l 511 1299 l 558 1322 l 632 1099 l 597 1086 z "},"Ṛ":{"ha":814,"x_min":67,"x_max":753,"o":"m 186 452 l 193 492 l 433 492 q 579 526 517 492 q 676 618 642 559 q 711 757 711 677 q 650 905 711 851 q 501 959 590 959 l 284 959 l 294 1000 l 503 1000 q 630 970 574 1000 q 720 885 687 940 q 753 755 753 830 q 711 594 753 662 q 594 489 669 526 q 420 452 519 452 l 186 452 m 67 0 l 265 1000 l 309 1000 l 111 0 l 67 0 m 622 0 l 400 457 l 434 487 l 670 0 l 622 0 m 324 -208 q 283 -191 300 -208 q 266 -149 266 -174 q 283 -108 266 -125 q 324 -91 300 -91 q 366 -108 349 -91 q 382 -149 382 -125 q 366 -191 382 -174 q 324 -208 349 -208 z "},"Ȓ":{"ha":814,"x_min":67,"x_max":753,"o":"m 186 452 l 193 492 l 433 492 q 579 526 517 492 q 676 618 642 559 q 711 757 711 677 q 650 905 711 851 q 501 959 590 959 l 284 959 l 294 1000 l 503 1000 q 630 970 574 1000 q 720 885 687 940 q 753 755 753 830 q 711 594 753 662 q 594 489 669 526 q 420 452 519 452 l 186 452 m 67 0 l 265 1000 l 309 1000 l 111 0 l 67 0 m 622 0 l 400 457 l 434 487 l 670 0 l 622 0 m 707 1051 l 668 1058 q 644 1142 680 1109 q 543 1175 608 1175 q 427 1139 477 1175 q 366 1052 377 1104 l 327 1058 q 369 1137 337 1102 q 446 1192 400 1171 q 545 1213 492 1212 q 642 1189 602 1213 q 699 1128 682 1165 q 707 1051 717 1090 z "},"Ṟ":{"ha":814,"x_min":67,"x_max":753,"o":"m 186 452 l 193 492 l 433 492 q 579 526 517 492 q 676 618 642 559 q 711 757 711 677 q 650 905 711 851 q 501 959 590 959 l 284 959 l 294 1000 l 503 1000 q 630 970 574 1000 q 720 885 687 940 q 753 755 753 830 q 711 594 753 662 q 594 489 669 526 q 420 452 519 452 l 186 452 m 67 0 l 265 1000 l 309 1000 l 111 0 l 67 0 m 622 0 l 400 457 l 434 487 l 670 0 l 622 0 m 92 -255 l 99 -218 l 524 -218 l 517 -255 l 92 -255 z "},"S":{"ha":724,"x_min":53,"x_max":696,"o":"m 319 -11 q 189 18 245 -11 q 98 92 132 47 q 53 183 63 137 l 99 202 q 137 116 105 155 q 216 53 168 77 q 321 30 264 30 q 450 65 393 30 q 540 157 507 100 q 574 278 574 214 q 546 379 574 338 q 475 450 519 420 q 383 508 431 480 q 291 568 334 536 q 219 644 247 600 q 192 752 192 688 q 229 883 192 825 q 328 976 265 941 q 470 1010 391 1010 q 584 987 537 1010 q 659 928 631 964 q 696 853 686 892 l 655 837 q 626 897 647 866 q 567 948 605 927 q 471 970 530 970 q 349 939 402 970 q 266 859 296 909 q 235 751 235 810 q 263 655 235 694 q 334 585 290 615 q 426 527 378 555 q 518 465 475 498 q 590 387 562 432 q 617 275 617 341 q 578 133 617 198 q 472 28 539 68 q 319 -11 404 -11 z "},"Ś":{"ha":724,"x_min":53,"x_max":696,"o":"m 319 -11 q 189 18 245 -11 q 98 92 132 47 q 53 183 63 137 l 99 202 q 137 116 105 155 q 216 53 168 77 q 321 30 264 30 q 450 65 393 30 q 540 157 507 100 q 574 278 574 214 q 546 379 574 338 q 475 450 519 420 q 383 508 431 480 q 291 568 334 536 q 219 644 247 600 q 192 752 192 688 q 229 883 192 825 q 328 976 265 941 q 470 1010 391 1010 q 584 987 537 1010 q 659 928 631 964 q 696 853 686 892 l 655 837 q 626 897 647 866 q 567 948 605 927 q 471 970 530 970 q 349 939 402 970 q 266 859 296 909 q 235 751 235 810 q 263 655 235 694 q 334 585 290 615 q 426 527 378 555 q 518 465 475 498 q 590 387 562 432 q 617 275 617 341 q 578 133 617 198 q 472 28 539 68 q 319 -11 404 -11 m 523 1055 l 486 1088 l 630 1274 l 664 1244 l 523 1055 z "},"Ṥ":{"ha":724,"x_min":53,"x_max":731,"o":"m 319 -11 q 189 18 245 -11 q 98 92 132 47 q 53 183 63 137 l 99 202 q 137 116 105 155 q 216 53 168 77 q 321 30 264 30 q 450 65 393 30 q 540 157 507 100 q 574 278 574 214 q 546 379 574 338 q 475 450 519 420 q 383 508 431 480 q 291 568 334 536 q 219 644 247 600 q 192 752 192 688 q 229 883 192 825 q 328 976 265 941 q 470 1010 391 1010 q 584 987 537 1010 q 659 928 631 964 q 696 853 686 892 l 655 837 q 626 897 647 866 q 567 948 605 927 q 471 970 530 970 q 349 939 402 970 q 266 859 296 909 q 235 751 235 810 q 263 655 235 694 q 334 585 290 615 q 426 527 378 555 q 518 465 475 498 q 590 387 562 432 q 617 275 617 341 q 578 133 617 198 q 472 28 539 68 q 319 -11 404 -11 m 566 1097 l 535 1122 l 702 1338 l 731 1311 l 566 1097 m 439 1142 q 397 1159 414 1142 q 380 1200 380 1176 q 397 1242 380 1225 q 439 1259 414 1259 q 480 1242 463 1259 q 497 1200 497 1225 q 480 1159 497 1176 q 439 1142 463 1142 z "},"Š":{"ha":724,"x_min":53,"x_max":726,"o":"m 319 -11 q 189 18 245 -11 q 98 92 132 47 q 53 183 63 137 l 99 202 q 137 116 105 155 q 216 53 168 77 q 321 30 264 30 q 450 65 393 30 q 540 157 507 100 q 574 278 574 214 q 546 379 574 338 q 475 450 519 420 q 383 508 431 480 q 291 568 334 536 q 219 644 247 600 q 192 752 192 688 q 229 883 192 825 q 328 976 265 941 q 470 1010 391 1010 q 584 987 537 1010 q 659 928 631 964 q 696 853 686 892 l 655 837 q 626 897 647 866 q 567 948 605 927 q 471 970 530 970 q 349 939 402 970 q 266 859 296 909 q 235 751 235 810 q 263 655 235 694 q 334 585 290 615 q 426 527 378 555 q 518 465 475 498 q 590 387 562 432 q 617 275 617 341 q 578 133 617 198 q 472 28 539 68 q 319 -11 404 -11 m 487 1055 l 333 1199 l 361 1232 l 499 1099 l 507 1099 l 701 1232 l 726 1199 l 512 1055 l 487 1055 z "},"Ṧ":{"ha":724,"x_min":53,"x_max":726,"o":"m 319 -11 q 189 18 245 -11 q 98 92 132 47 q 53 183 63 137 l 99 202 q 137 116 105 155 q 216 53 168 77 q 321 30 264 30 q 450 65 393 30 q 540 157 507 100 q 574 278 574 214 q 546 379 574 338 q 475 450 519 420 q 383 508 431 480 q 291 568 334 536 q 219 644 247 600 q 192 752 192 688 q 229 883 192 825 q 328 976 265 941 q 470 1010 391 1010 q 584 987 537 1010 q 659 928 631 964 q 696 853 686 892 l 655 837 q 626 897 647 866 q 567 948 605 927 q 471 970 530 970 q 349 939 402 970 q 266 859 296 909 q 235 751 235 810 q 263 655 235 694 q 334 585 290 615 q 426 527 378 555 q 518 465 475 498 q 590 387 562 432 q 617 275 617 341 q 578 133 617 198 q 472 28 539 68 q 319 -11 404 -11 m 487 1055 l 333 1199 l 361 1232 l 499 1099 l 507 1099 l 701 1232 l 726 1199 l 512 1055 l 487 1055 m 548 1218 q 507 1235 524 1218 q 490 1276 490 1252 q 507 1318 490 1301 q 548 1335 524 1335 q 589 1318 572 1335 q 606 1276 606 1301 q 589 1235 606 1252 q 548 1218 572 1218 z "},"Ş":{"ha":724,"x_min":53,"x_max":696,"o":"m 319 -11 q 189 18 245 -11 q 98 92 132 47 q 53 183 63 137 l 99 202 q 137 116 105 155 q 216 53 168 77 q 321 30 264 30 q 450 65 393 30 q 540 157 507 100 q 574 278 574 214 q 546 379 574 338 q 475 450 519 420 q 383 508 431 480 q 291 568 334 536 q 219 644 247 600 q 192 752 192 688 q 229 883 192 825 q 328 976 265 941 q 470 1010 391 1010 q 584 987 537 1010 q 659 928 631 964 q 696 853 686 892 l 655 837 q 626 897 647 866 q 567 948 605 927 q 471 970 530 970 q 349 939 402 970 q 266 859 296 909 q 235 751 235 810 q 263 655 235 694 q 334 585 290 615 q 426 527 378 555 q 518 465 475 498 q 590 387 562 432 q 617 275 617 341 q 578 133 617 198 q 472 28 539 68 q 319 -11 404 -11 m 189 -291 l 193 -250 q 303 -237 258 -252 q 358 -178 349 -221 q 339 -132 363 -150 q 265 -114 315 -114 l 324 0 l 365 0 l 308 -109 l 302 -81 q 357 -95 334 -82 q 392 -131 380 -109 q 397 -183 403 -154 q 357 -251 388 -227 q 282 -282 326 -274 q 189 -291 238 -291 z "},"Ŝ":{"ha":724,"x_min":53,"x_max":709,"o":"m 319 -11 q 189 18 245 -11 q 98 92 132 47 q 53 183 63 137 l 99 202 q 137 116 105 155 q 216 53 168 77 q 321 30 264 30 q 450 65 393 30 q 540 157 507 100 q 574 278 574 214 q 546 379 574 338 q 475 450 519 420 q 383 508 431 480 q 291 568 334 536 q 219 644 247 600 q 192 752 192 688 q 229 883 192 825 q 328 976 265 941 q 470 1010 391 1010 q 584 987 537 1010 q 659 928 631 964 q 696 853 686 892 l 655 837 q 626 897 647 866 q 567 948 605 927 q 471 970 530 970 q 349 939 402 970 q 266 859 296 909 q 235 751 235 810 q 263 655 235 694 q 334 585 290 615 q 426 527 378 555 q 518 465 475 498 q 590 387 562 432 q 617 275 617 341 q 578 133 617 198 q 472 28 539 68 q 319 -11 404 -11 m 342 1055 l 317 1088 l 531 1232 l 556 1232 l 709 1088 l 681 1055 l 544 1188 l 535 1188 l 342 1055 z "},"Ș":{"ha":724,"x_min":53,"x_max":696,"o":"m 319 -11 q 189 18 245 -11 q 98 92 132 47 q 53 183 63 137 l 99 202 q 137 116 105 155 q 216 53 168 77 q 321 30 264 30 q 450 65 393 30 q 540 157 507 100 q 574 278 574 214 q 546 379 574 338 q 475 450 519 420 q 383 508 431 480 q 291 568 334 536 q 219 644 247 600 q 192 752 192 688 q 229 883 192 825 q 328 976 265 941 q 470 1010 391 1010 q 584 987 537 1010 q 659 928 631 964 q 696 853 686 892 l 655 837 q 626 897 647 866 q 567 948 605 927 q 471 970 530 970 q 349 939 402 970 q 266 859 296 909 q 235 751 235 810 q 263 655 235 694 q 334 585 290 615 q 426 527 378 555 q 518 465 475 498 q 590 387 562 432 q 617 275 617 341 q 578 133 617 198 q 472 28 539 68 q 319 -11 404 -11 m 205 -347 l 183 -322 l 251 -267 q 277 -242 267 -254 q 292 -219 287 -231 q 296 -194 296 -207 l 313 -194 q 299 -213 307 -207 q 280 -219 292 -219 q 249 -205 264 -219 q 235 -172 235 -192 q 247 -140 235 -155 q 280 -125 258 -125 q 316 -140 300 -125 q 331 -183 331 -155 q 312 -245 331 -216 q 275 -289 292 -274 l 205 -347 z "},"Ṡ":{"ha":724,"x_min":53,"x_max":696,"o":"m 319 -11 q 189 18 245 -11 q 98 92 132 47 q 53 183 63 137 l 99 202 q 137 116 105 155 q 216 53 168 77 q 321 30 264 30 q 450 65 393 30 q 540 157 507 100 q 574 278 574 214 q 546 379 574 338 q 475 450 519 420 q 383 508 431 480 q 291 568 334 536 q 219 644 247 600 q 192 752 192 688 q 229 883 192 825 q 328 976 265 941 q 470 1010 391 1010 q 584 987 537 1010 q 659 928 631 964 q 696 853 686 892 l 655 837 q 626 897 647 866 q 567 948 605 927 q 471 970 530 970 q 349 939 402 970 q 266 859 296 909 q 235 751 235 810 q 263 655 235 694 q 334 585 290 615 q 426 527 378 555 q 518 465 475 498 q 590 387 562 432 q 617 275 617 341 q 578 133 617 198 q 472 28 539 68 q 319 -11 404 -11 m 530 1080 q 488 1097 505 1080 q 471 1139 471 1114 q 488 1180 471 1163 q 530 1197 505 1197 q 571 1180 554 1197 q 588 1139 588 1163 q 571 1097 588 1114 q 530 1080 554 1080 z "},"Ṣ":{"ha":724,"x_min":53,"x_max":696,"o":"m 319 -11 q 189 18 245 -11 q 98 92 132 47 q 53 183 63 137 l 99 202 q 137 116 105 155 q 216 53 168 77 q 321 30 264 30 q 450 65 393 30 q 540 157 507 100 q 574 278 574 214 q 546 379 574 338 q 475 450 519 420 q 383 508 431 480 q 291 568 334 536 q 219 644 247 600 q 192 752 192 688 q 229 883 192 825 q 328 976 265 941 q 470 1010 391 1010 q 584 987 537 1010 q 659 928 631 964 q 696 853 686 892 l 655 837 q 626 897 647 866 q 567 948 605 927 q 471 970 530 970 q 349 939 402 970 q 266 859 296 909 q 235 751 235 810 q 263 655 235 694 q 334 585 290 615 q 426 527 378 555 q 518 465 475 498 q 590 387 562 432 q 617 275 617 341 q 578 133 617 198 q 472 28 539 68 q 319 -11 404 -11 m 286 -208 q 244 -191 261 -208 q 227 -149 227 -174 q 244 -108 227 -125 q 286 -91 261 -91 q 327 -108 310 -91 q 344 -149 344 -125 q 327 -191 344 -174 q 286 -208 310 -208 z "},"Ṩ":{"ha":724,"x_min":53,"x_max":696,"o":"m 319 -11 q 189 18 245 -11 q 98 92 132 47 q 53 183 63 137 l 99 202 q 137 116 105 155 q 216 53 168 77 q 321 30 264 30 q 450 65 393 30 q 540 157 507 100 q 574 278 574 214 q 546 379 574 338 q 475 450 519 420 q 383 508 431 480 q 291 568 334 536 q 219 644 247 600 q 192 752 192 688 q 229 883 192 825 q 328 976 265 941 q 470 1010 391 1010 q 584 987 537 1010 q 659 928 631 964 q 696 853 686 892 l 655 837 q 626 897 647 866 q 567 948 605 927 q 471 970 530 970 q 349 939 402 970 q 266 859 296 909 q 235 751 235 810 q 263 655 235 694 q 334 585 290 615 q 426 527 378 555 q 518 465 475 498 q 590 387 562 432 q 617 275 617 341 q 578 133 617 198 q 472 28 539 68 q 319 -11 404 -11 m 299 -208 q 258 -191 275 -208 q 241 -149 241 -174 q 258 -108 241 -125 q 299 -91 275 -91 q 340 -108 323 -91 q 357 -149 357 -125 q 340 -191 357 -174 q 299 -208 323 -208 m 553 1081 q 511 1098 528 1081 q 494 1139 494 1115 q 511 1181 494 1164 q 553 1198 528 1198 q 594 1181 577 1198 q 611 1139 611 1164 q 594 1098 611 1115 q 553 1081 577 1081 z "},"ẞ":{"ha":875,"x_min":58,"x_max":789,"o":"m 402 -10 q 336 -5 372 -10 q 267 8 301 -1 l 273 52 q 348 37 308 43 q 418 30 387 30 q 539 58 480 30 q 645 134 597 86 q 720 241 692 182 q 747 364 747 301 q 730 451 747 413 q 679 515 712 489 q 598 555 646 541 q 493 568 551 568 l 469 568 l 473 586 l 701 962 l 702 940 q 625 963 667 954 q 529 971 583 971 q 397 954 448 971 q 318 906 347 936 q 276 839 290 876 q 254 764 262 802 l 102 0 l 58 0 l 211 766 q 231 841 218 799 q 274 921 243 882 q 364 985 305 960 q 520 1010 422 1010 q 632 1001 572 1010 q 747 970 692 992 l 747 959 l 513 583 l 496 605 q 647 582 581 610 q 751 496 713 553 q 789 359 789 439 q 758 219 789 286 q 672 101 726 153 q 548 20 618 50 q 402 -10 479 -10 z "},"T":{"ha":681,"x_min":168,"x_max":760,"o":"m 248 0 l 441 971 l 485 971 l 292 0 l 248 0 m 168 959 l 176 1000 l 760 1000 l 753 959 l 168 959 z "},"Ŧ":{"ha":681,"x_min":168,"x_max":760,"o":"m 248 0 l 441 971 l 485 971 l 292 0 l 248 0 m 168 959 l 176 1000 l 760 1000 l 753 959 l 168 959 m 223 480 l 230 517 l 511 517 l 505 480 l 223 480 z "},"Ť":{"ha":681,"x_min":168,"x_max":760,"o":"m 248 0 l 441 971 l 485 971 l 292 0 l 248 0 m 168 959 l 176 1000 l 760 1000 l 753 959 l 168 959 m 463 1055 l 309 1199 l 337 1232 l 475 1099 l 483 1099 l 676 1232 l 702 1199 l 488 1055 l 463 1055 z "},"Ţ":{"ha":681,"x_min":114,"x_max":760,"o":"m 248 0 l 441 971 l 485 971 l 292 0 l 248 0 m 168 959 l 176 1000 l 760 1000 l 753 959 l 168 959 m 114 -291 l 118 -250 q 228 -237 182 -252 q 283 -178 274 -221 q 264 -132 288 -150 q 190 -114 239 -114 l 249 0 l 290 0 l 233 -109 l 227 -81 q 282 -95 258 -82 q 316 -131 305 -109 q 321 -183 328 -154 q 282 -251 313 -227 q 207 -282 251 -274 q 114 -291 163 -291 z "},"Ț":{"ha":681,"x_min":137,"x_max":760,"o":"m 248 0 l 441 971 l 485 971 l 292 0 l 248 0 m 168 959 l 176 1000 l 760 1000 l 753 959 l 168 959 m 159 -347 l 137 -322 l 205 -267 q 231 -242 221 -254 q 245 -219 241 -231 q 250 -194 250 -207 l 267 -194 q 253 -213 260 -207 q 234 -219 246 -219 q 203 -205 218 -219 q 189 -172 189 -192 q 200 -140 189 -155 q 234 -125 212 -125 q 270 -140 254 -125 q 285 -183 285 -155 q 266 -245 285 -216 q 229 -289 246 -274 l 159 -347 z "},"Ṭ":{"ha":681,"x_min":168,"x_max":760,"o":"m 248 0 l 441 971 l 485 971 l 292 0 l 248 0 m 168 959 l 176 1000 l 760 1000 l 753 959 l 168 959 m 239 -208 q 198 -191 215 -208 q 181 -149 181 -174 q 198 -108 181 -125 q 239 -91 215 -91 q 281 -108 264 -91 q 298 -149 298 -125 q 281 -191 298 -174 q 239 -208 264 -208 z "},"Ṯ":{"ha":681,"x_min":7,"x_max":760,"o":"m 248 0 l 441 971 l 485 971 l 292 0 l 248 0 m 168 959 l 176 1000 l 760 1000 l 753 959 l 168 959 m 7 -255 l 14 -218 l 439 -218 l 432 -255 l 7 -255 z "},"U":{"ha":909,"x_min":113,"x_max":901,"o":"m 415 -11 q 244 32 315 -11 q 143 153 174 75 q 133 334 113 231 l 266 1000 l 310 1000 l 178 339 q 185 170 158 239 q 271 65 212 101 q 410 30 331 30 q 612 110 530 30 q 723 336 694 190 l 857 1000 l 901 1000 l 764 319 q 646 78 733 168 q 415 -11 559 -11 z "},"Ú":{"ha":909,"x_min":113,"x_max":901,"o":"m 415 -11 q 244 32 315 -11 q 143 153 174 75 q 133 334 113 231 l 266 1000 l 310 1000 l 178 339 q 185 170 158 239 q 271 65 212 101 q 410 30 331 30 q 612 110 530 30 q 723 336 694 190 l 857 1000 l 901 1000 l 764 319 q 646 78 733 168 q 415 -11 559 -11 m 613 1055 l 576 1088 l 720 1274 l 754 1244 l 613 1055 z "},"Ŭ":{"ha":909,"x_min":113,"x_max":901,"o":"m 415 -11 q 244 32 315 -11 q 143 153 174 75 q 133 334 113 231 l 266 1000 l 310 1000 l 178 339 q 185 170 158 239 q 271 65 212 101 q 410 30 331 30 q 612 110 530 30 q 723 336 694 190 l 857 1000 l 901 1000 l 764 319 q 646 78 733 168 q 415 -11 559 -11 m 599 1055 q 503 1078 543 1054 q 446 1139 463 1102 q 437 1215 429 1177 l 475 1210 q 482 1149 468 1175 q 526 1110 496 1124 q 597 1096 557 1096 q 718 1130 666 1096 q 778 1215 769 1164 l 817 1210 q 777 1130 810 1164 q 696 1075 744 1095 q 599 1055 649 1055 z "},"Û":{"ha":909,"x_min":113,"x_max":901,"o":"m 415 -11 q 244 32 315 -11 q 143 153 174 75 q 133 334 113 231 l 266 1000 l 310 1000 l 178 339 q 185 170 158 239 q 271 65 212 101 q 410 30 331 30 q 612 110 530 30 q 723 336 694 190 l 857 1000 l 901 1000 l 764 319 q 646 78 733 168 q 415 -11 559 -11 m 433 1055 l 407 1088 l 621 1232 l 646 1232 l 800 1088 l 771 1055 l 634 1188 l 625 1188 l 433 1055 z "},"Ȕ":{"ha":909,"x_min":113,"x_max":901,"o":"m 415 -11 q 244 32 315 -11 q 143 153 174 75 q 133 334 113 231 l 266 1000 l 310 1000 l 178 339 q 185 170 158 239 q 271 65 212 101 q 410 30 331 30 q 612 110 530 30 q 723 336 694 190 l 857 1000 l 901 1000 l 764 319 q 646 78 733 168 q 415 -11 559 -11 m 484 1086 l 393 1299 l 439 1322 l 517 1099 l 484 1086 m 675 1086 l 589 1299 l 636 1322 l 710 1099 l 675 1086 z "},"Ü":{"ha":909,"x_min":113,"x_max":901,"o":"m 415 -11 q 244 32 315 -11 q 143 153 174 75 q 133 334 113 231 l 266 1000 l 310 1000 l 178 339 q 185 170 158 239 q 271 65 212 101 q 410 30 331 30 q 612 110 530 30 q 723 336 694 190 l 857 1000 l 901 1000 l 764 319 q 646 78 733 168 q 415 -11 559 -11 m 747 1086 q 705 1103 722 1086 q 688 1143 688 1120 q 704 1182 688 1166 q 744 1198 720 1198 q 784 1182 768 1198 q 801 1139 801 1165 q 786 1101 801 1117 q 747 1086 770 1086 m 478 1086 q 439 1103 456 1086 q 422 1143 422 1120 q 437 1182 422 1166 q 475 1198 453 1198 q 517 1181 500 1198 q 534 1139 534 1164 q 518 1102 534 1118 q 478 1086 503 1086 z "},"Ụ":{"ha":909,"x_min":113,"x_max":901,"o":"m 415 -11 q 244 32 315 -11 q 143 153 174 75 q 133 334 113 231 l 266 1000 l 310 1000 l 178 339 q 185 170 158 239 q 271 65 212 101 q 410 30 331 30 q 612 110 530 30 q 723 336 694 190 l 857 1000 l 901 1000 l 764 319 q 646 78 733 168 q 415 -11 559 -11 m 380 -208 q 339 -191 356 -208 q 322 -149 322 -174 q 339 -108 322 -125 q 380 -91 356 -91 q 422 -108 405 -91 q 439 -149 439 -125 q 422 -191 439 -174 q 380 -208 405 -208 z "},"Ù":{"ha":909,"x_min":113,"x_max":901,"o":"m 415 -11 q 244 32 315 -11 q 143 153 174 75 q 133 334 113 231 l 266 1000 l 310 1000 l 178 339 q 185 170 158 239 q 271 65 212 101 q 410 30 331 30 q 612 110 530 30 q 723 336 694 190 l 857 1000 l 901 1000 l 764 319 q 646 78 733 168 q 415 -11 559 -11 m 596 1055 l 444 1244 l 475 1274 l 630 1088 l 596 1055 z "},"Ủ":{"ha":909,"x_min":113,"x_max":901,"o":"m 415 -11 q 244 32 315 -11 q 143 153 174 75 q 133 334 113 231 l 266 1000 l 310 1000 l 178 339 q 185 170 158 239 q 271 65 212 101 q 410 30 331 30 q 612 110 530 30 q 723 336 694 190 l 857 1000 l 901 1000 l 764 319 q 646 78 733 168 q 415 -11 559 -11 m 612 1097 l 590 1128 q 647 1167 623 1143 q 676 1218 671 1192 q 665 1258 682 1244 q 619 1272 649 1272 q 575 1267 598 1272 q 536 1255 553 1262 l 540 1297 q 584 1307 563 1304 q 622 1310 605 1310 q 698 1282 674 1310 q 713 1211 722 1254 q 678 1146 706 1178 q 612 1097 650 1114 z "},"Ư":{"ha":909,"x_min":113,"x_max":1123,"o":"m 415 -11 q 244 32 315 -11 q 143 153 174 75 q 133 334 113 231 l 266 1000 l 310 1000 l 178 339 q 185 170 158 239 q 271 65 212 101 q 410 30 331 30 q 612 110 530 30 q 723 336 694 190 l 857 1000 l 901 1000 l 764 319 q 646 78 733 168 q 415 -11 559 -11 m 870 964 l 871 1000 q 999 1041 942 1000 q 1070 1153 1055 1082 q 1076 1191 1074 1172 q 1077 1219 1077 1210 l 1121 1219 q 1121 1184 1123 1206 q 1114 1141 1118 1162 q 1084 1066 1106 1099 q 1029 1009 1062 1033 q 956 975 996 986 q 870 964 916 963 z "},"Ứ":{"ha":909,"x_min":113,"x_max":1123,"o":"m 415 -11 q 244 32 315 -11 q 143 153 174 75 q 133 334 113 231 l 266 1000 l 310 1000 l 178 339 q 185 170 158 239 q 271 65 212 101 q 410 30 331 30 q 612 110 530 30 q 723 336 694 190 l 857 1000 l 901 1000 l 764 319 q 646 78 733 168 q 415 -11 559 -11 m 870 964 l 871 1000 q 999 1041 942 1000 q 1070 1153 1055 1082 q 1076 1191 1074 1172 q 1077 1219 1077 1210 l 1121 1219 q 1121 1184 1123 1206 q 1114 1141 1118 1162 q 1084 1066 1106 1099 q 1029 1009 1062 1033 q 956 975 996 986 q 870 964 916 963 m 613 1055 l 576 1088 l 720 1274 l 754 1244 l 613 1055 z "},"Ự":{"ha":909,"x_min":113,"x_max":1123,"o":"m 415 -11 q 244 32 315 -11 q 143 153 174 75 q 133 334 113 231 l 266 1000 l 310 1000 l 178 339 q 185 170 158 239 q 271 65 212 101 q 410 30 331 30 q 612 110 530 30 q 723 336 694 190 l 857 1000 l 901 1000 l 764 319 q 646 78 733 168 q 415 -11 559 -11 m 870 964 l 871 1000 q 999 1041 942 1000 q 1070 1153 1055 1082 q 1076 1191 1074 1172 q 1077 1219 1077 1210 l 1121 1219 q 1121 1184 1123 1206 q 1114 1141 1118 1162 q 1084 1066 1106 1099 q 1029 1009 1062 1033 q 956 975 996 986 q 870 964 916 963 m 380 -208 q 339 -191 356 -208 q 322 -149 322 -174 q 339 -108 322 -125 q 380 -91 356 -91 q 422 -108 405 -91 q 439 -149 439 -125 q 422 -191 439 -174 q 380 -208 405 -208 z "},"Ừ":{"ha":909,"x_min":113,"x_max":1123,"o":"m 415 -11 q 244 32 315 -11 q 143 153 174 75 q 133 334 113 231 l 266 1000 l 310 1000 l 178 339 q 185 170 158 239 q 271 65 212 101 q 410 30 331 30 q 612 110 530 30 q 723 336 694 190 l 857 1000 l 901 1000 l 764 319 q 646 78 733 168 q 415 -11 559 -11 m 870 964 l 871 1000 q 999 1041 942 1000 q 1070 1153 1055 1082 q 1076 1191 1074 1172 q 1077 1219 1077 1210 l 1121 1219 q 1121 1184 1123 1206 q 1114 1141 1118 1162 q 1084 1066 1106 1099 q 1029 1009 1062 1033 q 956 975 996 986 q 870 964 916 963 m 596 1055 l 444 1244 l 475 1274 l 630 1088 l 596 1055 z "},"Ử":{"ha":909,"x_min":113,"x_max":1123,"o":"m 415 -11 q 244 32 315 -11 q 143 153 174 75 q 133 334 113 231 l 266 1000 l 310 1000 l 178 339 q 185 170 158 239 q 271 65 212 101 q 410 30 331 30 q 612 110 530 30 q 723 336 694 190 l 857 1000 l 901 1000 l 764 319 q 646 78 733 168 q 415 -11 559 -11 m 870 964 l 871 1000 q 999 1041 942 1000 q 1070 1153 1055 1082 q 1076 1191 1074 1172 q 1077 1219 1077 1210 l 1121 1219 q 1121 1184 1123 1206 q 1114 1141 1118 1162 q 1084 1066 1106 1099 q 1029 1009 1062 1033 q 956 975 996 986 q 870 964 916 963 m 612 1097 l 590 1128 q 647 1167 623 1143 q 676 1218 671 1192 q 665 1258 682 1244 q 619 1272 649 1272 q 575 1267 598 1272 q 536 1255 553 1262 l 540 1297 q 584 1307 563 1304 q 622 1310 605 1310 q 698 1282 674 1310 q 713 1211 722 1254 q 678 1146 706 1178 q 612 1097 650 1114 z "},"Ữ":{"ha":909,"x_min":113,"x_max":1123,"o":"m 415 -11 q 244 32 315 -11 q 143 153 174 75 q 133 334 113 231 l 266 1000 l 310 1000 l 178 339 q 185 170 158 239 q 271 65 212 101 q 410 30 331 30 q 612 110 530 30 q 723 336 694 190 l 857 1000 l 901 1000 l 764 319 q 646 78 733 168 q 415 -11 559 -11 m 870 964 l 871 1000 q 999 1041 942 1000 q 1070 1153 1055 1082 q 1076 1191 1074 1172 q 1077 1219 1077 1210 l 1121 1219 q 1121 1184 1123 1206 q 1114 1141 1118 1162 q 1084 1066 1106 1099 q 1029 1009 1062 1033 q 956 975 996 986 q 870 964 916 963 m 448 1080 l 407 1086 q 456 1177 420 1142 q 537 1213 492 1213 q 590 1199 570 1213 q 624 1167 610 1185 q 651 1135 637 1149 q 686 1121 665 1121 q 743 1149 719 1121 q 774 1215 768 1178 l 817 1210 q 770 1118 806 1154 q 687 1082 734 1082 q 637 1096 656 1082 q 603 1127 618 1109 q 572 1158 588 1145 q 532 1172 555 1172 q 481 1146 505 1172 q 448 1080 458 1120 z "},"Ű":{"ha":909,"x_min":113,"x_max":901,"o":"m 415 -11 q 244 32 315 -11 q 143 153 174 75 q 133 334 113 231 l 266 1000 l 310 1000 l 178 339 q 185 170 158 239 q 271 65 212 101 q 410 30 331 30 q 612 110 530 30 q 723 336 694 190 l 857 1000 l 901 1000 l 764 319 q 646 78 733 168 q 415 -11 559 -11 m 523 1086 l 496 1099 l 662 1322 l 695 1299 l 523 1086 m 716 1086 l 692 1099 l 856 1322 l 888 1299 l 716 1086 z "},"Ȗ":{"ha":909,"x_min":113,"x_max":901,"o":"m 415 -11 q 244 32 315 -11 q 143 153 174 75 q 133 334 113 231 l 266 1000 l 310 1000 l 178 339 q 185 170 158 239 q 271 65 212 101 q 410 30 331 30 q 612 110 530 30 q 723 336 694 190 l 857 1000 l 901 1000 l 764 319 q 646 78 733 168 q 415 -11 559 -11 m 785 1051 l 746 1058 q 722 1142 758 1109 q 621 1175 686 1175 q 505 1139 555 1175 q 444 1052 455 1104 l 405 1058 q 447 1137 415 1102 q 524 1192 478 1171 q 623 1213 570 1212 q 720 1189 680 1213 q 777 1128 760 1165 q 785 1051 795 1090 z "},"Ū":{"ha":909,"x_min":113,"x_max":901,"o":"m 415 -11 q 244 32 315 -11 q 143 153 174 75 q 133 334 113 231 l 266 1000 l 310 1000 l 178 339 q 185 170 158 239 q 271 65 212 101 q 410 30 331 30 q 612 110 530 30 q 723 336 694 190 l 857 1000 l 901 1000 l 764 319 q 646 78 733 168 q 415 -11 559 -11 m 382 1122 l 389 1162 l 844 1162 l 837 1122 l 382 1122 z "},"Ṻ":{"ha":909,"x_min":113,"x_max":901,"o":"m 415 -11 q 244 32 315 -11 q 143 153 174 75 q 133 334 113 231 l 266 1000 l 310 1000 l 178 339 q 185 170 158 239 q 271 65 212 101 q 410 30 331 30 q 612 110 530 30 q 723 336 694 190 l 857 1000 l 901 1000 l 764 319 q 646 78 733 168 q 415 -11 559 -11 m 382 1122 l 389 1162 l 844 1162 l 837 1122 l 382 1122 m 779 1249 q 737 1265 754 1249 q 720 1305 720 1282 q 735 1345 720 1329 q 776 1361 751 1361 q 816 1344 800 1361 q 833 1302 833 1328 q 818 1264 833 1280 q 779 1249 802 1249 m 510 1249 q 471 1265 488 1249 q 454 1305 454 1282 q 469 1345 454 1329 q 507 1361 485 1361 q 549 1344 532 1361 q 566 1302 566 1327 q 550 1264 566 1280 q 510 1249 534 1249 z "},"Ų":{"ha":909,"x_min":113,"x_max":901,"o":"m 415 -11 q 244 32 315 -11 q 143 153 174 75 q 133 334 113 231 l 266 1000 l 310 1000 l 178 339 q 185 170 158 239 q 271 65 212 101 q 410 30 331 30 q 612 110 530 30 q 723 336 694 190 l 857 1000 l 901 1000 l 764 319 q 646 78 733 168 q 415 -11 559 -11 m 378 -261 q 314 -233 335 -261 q 301 -161 292 -205 q 359 -64 313 -106 q 458 20 405 -22 l 488 0 q 428 -52 461 -25 q 369 -108 395 -79 q 337 -168 343 -137 q 346 -210 332 -197 q 385 -223 360 -223 q 438 -212 411 -223 q 479 -191 465 -200 l 471 -235 q 429 -254 455 -246 q 378 -261 402 -261 z "},"Ů":{"ha":909,"x_min":113,"x_max":901,"o":"m 415 -11 q 244 32 315 -11 q 143 153 174 75 q 133 334 113 231 l 266 1000 l 310 1000 l 178 339 q 185 170 158 239 q 271 65 212 101 q 410 30 331 30 q 612 110 530 30 q 723 336 694 190 l 857 1000 l 901 1000 l 764 319 q 646 78 733 168 q 415 -11 559 -11 m 598 1044 q 536 1060 563 1044 q 497 1106 509 1077 q 492 1174 484 1135 q 546 1266 503 1231 q 641 1301 589 1301 q 705 1284 678 1301 q 744 1237 732 1267 q 748 1171 755 1208 q 719 1104 741 1133 q 665 1060 696 1076 q 598 1044 633 1044 m 597 1085 q 672 1113 641 1085 q 709 1176 703 1140 q 697 1238 717 1216 q 638 1261 677 1261 q 570 1236 604 1261 q 528 1168 536 1211 q 542 1108 522 1131 q 597 1085 562 1085 z "},"Ũ":{"ha":909,"x_min":113,"x_max":901,"o":"m 415 -11 q 244 32 315 -11 q 143 153 174 75 q 133 334 113 231 l 266 1000 l 310 1000 l 178 339 q 185 170 158 239 q 271 65 212 101 q 410 30 331 30 q 612 110 530 30 q 723 336 694 190 l 857 1000 l 901 1000 l 764 319 q 646 78 733 168 q 415 -11 559 -11 m 448 1080 l 407 1086 q 456 1177 420 1142 q 537 1213 492 1213 q 590 1199 570 1213 q 624 1167 610 1185 q 651 1135 637 1149 q 686 1121 665 1121 q 743 1149 719 1121 q 774 1215 768 1178 l 817 1210 q 770 1118 806 1154 q 687 1082 734 1082 q 637 1096 656 1082 q 603 1127 618 1109 q 572 1158 588 1145 q 532 1172 555 1172 q 481 1146 505 1172 q 448 1080 458 1120 z "},"Ṹ":{"ha":909,"x_min":113,"x_max":901,"o":"m 415 -11 q 244 32 315 -11 q 143 153 174 75 q 133 334 113 231 l 266 1000 l 310 1000 l 178 339 q 185 170 158 239 q 271 65 212 101 q 410 30 331 30 q 612 110 530 30 q 723 336 694 190 l 857 1000 l 901 1000 l 764 319 q 646 78 733 168 q 415 -11 559 -11 m 448 1080 l 407 1086 q 456 1177 420 1142 q 537 1213 492 1213 q 590 1199 570 1213 q 624 1167 610 1185 q 651 1135 637 1149 q 686 1121 665 1121 q 743 1149 719 1121 q 774 1215 768 1178 l 817 1210 q 770 1118 806 1154 q 687 1082 734 1082 q 637 1096 656 1082 q 603 1127 618 1109 q 572 1158 588 1145 q 532 1172 555 1172 q 481 1146 505 1172 q 448 1080 458 1120 m 650 1242 l 613 1276 l 757 1461 l 791 1432 l 650 1242 z "},"V":{"ha":918,"x_min":171,"x_max":1004,"o":"m 368 0 l 171 1000 l 215 1000 l 328 407 l 392 60 l 397 60 l 602 407 l 952 1000 l 1004 1000 l 404 0 l 368 0 z "},"W":{"ha":1246,"x_min":171,"x_max":1331,"o":"m 254 0 l 171 1000 l 214 1000 l 275 182 l 285 49 l 290 49 l 708 935 l 742 935 l 846 49 l 852 49 l 907 182 l 1283 1000 l 1331 1000 l 868 0 l 814 0 l 715 843 l 708 843 l 308 0 l 254 0 z "},"Ẃ":{"ha":1246,"x_min":171,"x_max":1331,"o":"m 254 0 l 171 1000 l 214 1000 l 275 182 l 285 49 l 290 49 l 708 935 l 742 935 l 846 49 l 852 49 l 907 182 l 1283 1000 l 1331 1000 l 868 0 l 814 0 l 715 843 l 708 843 l 308 0 l 254 0 m 769 1055 l 732 1088 l 876 1274 l 910 1244 l 769 1055 z "},"Ŵ":{"ha":1246,"x_min":171,"x_max":1331,"o":"m 254 0 l 171 1000 l 214 1000 l 275 182 l 285 49 l 290 49 l 708 935 l 742 935 l 846 49 l 852 49 l 907 182 l 1283 1000 l 1331 1000 l 868 0 l 814 0 l 715 843 l 708 843 l 308 0 l 254 0 m 589 1055 l 563 1088 l 777 1232 l 802 1232 l 956 1088 l 927 1055 l 790 1188 l 781 1188 l 589 1055 z "},"Ẅ":{"ha":1246,"x_min":171,"x_max":1331,"o":"m 254 0 l 171 1000 l 214 1000 l 275 182 l 285 49 l 290 49 l 708 935 l 742 935 l 846 49 l 852 49 l 907 182 l 1283 1000 l 1331 1000 l 868 0 l 814 0 l 715 843 l 708 843 l 308 0 l 254 0 m 903 1086 q 861 1103 878 1086 q 844 1143 844 1120 q 860 1182 844 1166 q 900 1198 876 1198 q 940 1182 924 1198 q 957 1139 957 1165 q 942 1101 957 1117 q 903 1086 926 1086 m 634 1086 q 595 1103 612 1086 q 578 1143 578 1120 q 593 1182 578 1166 q 631 1198 609 1198 q 673 1181 656 1198 q 690 1139 690 1164 q 674 1102 690 1118 q 634 1086 659 1086 z "},"Ẁ":{"ha":1246,"x_min":171,"x_max":1331,"o":"m 254 0 l 171 1000 l 214 1000 l 275 182 l 285 49 l 290 49 l 708 935 l 742 935 l 846 49 l 852 49 l 907 182 l 1283 1000 l 1331 1000 l 868 0 l 814 0 l 715 843 l 708 843 l 308 0 l 254 0 m 752 1055 l 600 1244 l 631 1274 l 786 1088 l 752 1055 z "},"X":{"ha":845,"x_min":-4,"x_max":901,"o":"m 665 0 l 454 472 l 448 472 l 429 503 l 429 509 l 187 1000 l 232 1000 l 458 536 l 464 536 l 484 502 l 484 496 l 709 0 l 665 0 m -4 0 l 429 505 l 429 511 l 456 536 l 461 536 l 849 1000 l 901 1000 l 484 499 l 484 495 l 457 472 l 452 472 l 52 0 l -4 0 z "},"Y":{"ha":802,"x_min":171,"x_max":887,"o":"m 308 0 l 401 464 l 171 1000 l 215 1000 l 341 707 l 427 509 l 433 509 l 595 707 l 834 1000 l 887 1000 l 445 458 l 351 0 l 308 0 z "},"Ý":{"ha":802,"x_min":171,"x_max":887,"o":"m 308 0 l 401 464 l 171 1000 l 215 1000 l 341 707 l 427 509 l 433 509 l 595 707 l 834 1000 l 887 1000 l 445 458 l 351 0 l 308 0 m 557 1055 l 521 1088 l 665 1274 l 699 1244 l 557 1055 z "},"Ŷ":{"ha":802,"x_min":171,"x_max":887,"o":"m 308 0 l 401 464 l 171 1000 l 215 1000 l 341 707 l 427 509 l 433 509 l 595 707 l 834 1000 l 887 1000 l 445 458 l 351 0 l 308 0 m 377 1055 l 351 1088 l 566 1232 l 591 1232 l 744 1088 l 715 1055 l 578 1188 l 570 1188 l 377 1055 z "},"Ÿ":{"ha":802,"x_min":171,"x_max":887,"o":"m 308 0 l 401 464 l 171 1000 l 215 1000 l 341 707 l 427 509 l 433 509 l 595 707 l 834 1000 l 887 1000 l 445 458 l 351 0 l 308 0 m 691 1086 q 649 1103 667 1086 q 632 1143 632 1120 q 648 1182 632 1166 q 688 1198 664 1198 q 729 1182 712 1198 q 745 1139 745 1165 q 730 1101 745 1117 q 691 1086 715 1086 m 422 1086 q 383 1103 400 1086 q 366 1143 366 1120 q 382 1182 366 1166 q 420 1198 397 1198 q 462 1181 445 1198 q 479 1139 479 1164 q 463 1102 479 1118 q 422 1086 447 1086 z "},"Ẏ":{"ha":802,"x_min":171,"x_max":887,"o":"m 308 0 l 401 464 l 171 1000 l 215 1000 l 341 707 l 427 509 l 433 509 l 595 707 l 834 1000 l 887 1000 l 445 458 l 351 0 l 308 0 m 564 1080 q 523 1097 540 1080 q 506 1139 506 1114 q 523 1180 506 1163 q 564 1197 540 1197 q 606 1180 589 1197 q 623 1139 623 1163 q 606 1097 623 1114 q 564 1080 589 1080 z "},"Ỵ":{"ha":802,"x_min":171,"x_max":887,"o":"m 308 0 l 401 464 l 171 1000 l 215 1000 l 341 707 l 427 509 l 433 509 l 595 707 l 834 1000 l 887 1000 l 445 458 l 351 0 l 308 0 m 313 -208 q 272 -191 289 -208 q 255 -149 255 -174 q 272 -108 255 -125 q 313 -91 289 -91 q 355 -108 338 -91 q 372 -149 372 -125 q 355 -191 372 -174 q 313 -208 338 -208 z "},"Ỳ":{"ha":802,"x_min":171,"x_max":887,"o":"m 308 0 l 401 464 l 171 1000 l 215 1000 l 341 707 l 427 509 l 433 509 l 595 707 l 834 1000 l 887 1000 l 445 458 l 351 0 l 308 0 m 541 1055 l 389 1244 l 420 1274 l 574 1088 l 541 1055 z "},"Ỷ":{"ha":802,"x_min":171,"x_max":887,"o":"m 308 0 l 401 464 l 171 1000 l 215 1000 l 341 707 l 427 509 l 433 509 l 595 707 l 834 1000 l 887 1000 l 445 458 l 351 0 l 308 0 m 556 1097 l 534 1128 q 591 1167 567 1143 q 621 1218 616 1192 q 610 1258 626 1244 q 564 1272 593 1272 q 520 1267 543 1272 q 480 1255 497 1262 l 484 1297 q 528 1307 507 1304 q 566 1310 549 1310 q 642 1282 618 1310 q 657 1211 666 1254 q 622 1146 650 1178 q 556 1097 594 1114 z "},"Ȳ":{"ha":802,"x_min":171,"x_max":887,"o":"m 308 0 l 401 464 l 171 1000 l 215 1000 l 341 707 l 427 509 l 433 509 l 595 707 l 834 1000 l 887 1000 l 445 458 l 351 0 l 308 0 m 326 1122 l 333 1162 l 788 1162 l 781 1122 l 326 1122 z "},"Ỹ":{"ha":802,"x_min":171,"x_max":887,"o":"m 308 0 l 401 464 l 171 1000 l 215 1000 l 341 707 l 427 509 l 433 509 l 595 707 l 834 1000 l 887 1000 l 445 458 l 351 0 l 308 0 m 393 1080 l 351 1086 q 400 1177 364 1142 q 481 1213 437 1213 q 535 1199 515 1213 q 568 1167 555 1185 q 595 1135 582 1149 q 630 1121 609 1121 q 688 1149 663 1121 q 719 1215 712 1178 l 761 1210 q 714 1118 750 1154 q 631 1082 679 1082 q 582 1096 601 1082 q 547 1127 562 1109 q 516 1158 532 1145 q 476 1172 500 1172 q 426 1146 449 1172 q 393 1080 402 1120 z "},"Z":{"ha":819,"x_min":23,"x_max":837,"o":"m 23 0 l 27 27 l 764 956 l 764 959 l 235 959 l 243 1000 l 837 1000 l 831 975 l 92 43 l 92 41 l 663 41 l 655 0 l 23 0 z "},"Ź":{"ha":819,"x_min":23,"x_max":837,"o":"m 23 0 l 27 27 l 764 956 l 764 959 l 235 959 l 243 1000 l 837 1000 l 831 975 l 92 43 l 92 41 l 663 41 l 655 0 l 23 0 m 585 1055 l 548 1088 l 692 1274 l 726 1244 l 585 1055 z "},"Ž":{"ha":819,"x_min":23,"x_max":837,"o":"m 23 0 l 27 27 l 764 956 l 764 959 l 235 959 l 243 1000 l 837 1000 l 831 975 l 92 43 l 92 41 l 663 41 l 655 0 l 23 0 m 549 1055 l 395 1199 l 423 1232 l 561 1099 l 569 1099 l 762 1232 l 788 1199 l 574 1055 l 549 1055 z "},"Ż":{"ha":819,"x_min":23,"x_max":837,"o":"m 23 0 l 27 27 l 764 956 l 764 959 l 235 959 l 243 1000 l 837 1000 l 831 975 l 92 43 l 92 41 l 663 41 l 655 0 l 23 0 m 591 1080 q 550 1097 567 1080 q 533 1139 533 1114 q 550 1180 533 1163 q 591 1197 567 1197 q 633 1180 616 1197 q 650 1139 650 1163 q 633 1097 650 1114 q 591 1080 616 1080 z "},"Ẓ":{"ha":819,"x_min":23,"x_max":837,"o":"m 23 0 l 27 27 l 764 956 l 764 959 l 235 959 l 243 1000 l 837 1000 l 831 975 l 92 43 l 92 41 l 663 41 l 655 0 l 23 0 m 330 -208 q 288 -191 305 -208 q 271 -149 271 -174 q 288 -108 271 -125 q 330 -91 305 -91 q 371 -108 354 -91 q 388 -149 388 -125 q 371 -191 388 -174 q 330 -208 354 -208 z "},"a":{"ha":758,"x_min":71,"x_max":711,"o":"m 313 -11 q 184 26 238 -11 q 100 129 130 63 q 71 283 71 195 q 96 443 71 365 q 166 584 121 521 q 275 684 212 647 q 416 722 338 722 q 566 668 508 722 q 636 529 623 614 l 614 544 l 656 544 l 633 529 l 669 711 l 711 711 l 600 155 q 594 75 591 108 q 627 27 597 41 l 610 -11 q 571 26 585 5 q 553 73 557 47 q 555 132 550 100 l 556 121 l 548 121 l 562 136 q 450 25 515 62 q 313 -11 385 -11 m 316 27 q 441 63 387 27 q 532 159 495 99 q 588 292 569 219 q 607 437 607 364 q 556 621 607 559 q 418 684 505 684 q 293 649 349 684 q 196 556 237 614 q 134 427 156 498 q 112 282 112 356 q 166 96 112 165 q 316 27 220 27 z "},"á":{"ha":758,"x_min":71,"x_max":711,"o":"m 313 -11 q 184 26 238 -11 q 100 129 130 63 q 71 283 71 195 q 96 443 71 365 q 166 584 121 521 q 275 684 212 647 q 416 722 338 722 q 566 668 508 722 q 636 529 623 614 l 614 544 l 656 544 l 633 529 l 669 711 l 711 711 l 600 155 q 594 75 591 108 q 627 27 597 41 l 610 -11 q 571 26 585 5 q 553 73 557 47 q 555 132 550 100 l 556 121 l 548 121 l 562 136 q 450 25 515 62 q 313 -11 385 -11 m 316 27 q 441 63 387 27 q 532 159 495 99 q 588 292 569 219 q 607 437 607 364 q 556 621 607 559 q 418 684 505 684 q 293 649 349 684 q 196 556 237 614 q 134 427 156 498 q 112 282 112 356 q 166 96 112 165 q 316 27 220 27 m 476 808 l 445 833 l 612 1049 l 641 1022 l 476 808 z "},"ă":{"ha":758,"x_min":71,"x_max":713,"o":"m 313 -11 q 184 26 238 -11 q 100 129 130 63 q 71 283 71 195 q 96 443 71 365 q 166 584 121 521 q 275 684 212 647 q 416 722 338 722 q 566 668 508 722 q 636 529 623 614 l 614 544 l 656 544 l 633 529 l 669 711 l 711 711 l 600 155 q 594 75 591 108 q 627 27 597 41 l 610 -11 q 571 26 585 5 q 553 73 557 47 q 555 132 550 100 l 556 121 l 548 121 l 562 136 q 450 25 515 62 q 313 -11 385 -11 m 316 27 q 441 63 387 27 q 532 159 495 99 q 588 292 569 219 q 607 437 607 364 q 556 621 607 559 q 418 684 505 684 q 293 649 349 684 q 196 556 237 614 q 134 427 156 498 q 112 282 112 356 q 166 96 112 165 q 316 27 220 27 m 489 831 q 396 857 435 831 q 339 926 357 882 q 331 1022 321 970 l 370 1017 q 391 912 357 955 q 490 869 425 869 q 572 889 532 869 q 640 945 612 910 q 675 1022 668 980 l 713 1017 q 671 922 704 964 q 590 855 637 880 q 489 831 543 831 z "},"ắ":{"ha":758,"x_min":71,"x_max":711,"o":"m 313 -11 q 184 26 238 -11 q 100 129 130 63 q 71 283 71 195 q 96 443 71 365 q 166 584 121 521 q 275 684 212 647 q 416 722 338 722 q 566 668 508 722 q 636 529 623 614 l 614 544 l 656 544 l 633 529 l 669 711 l 711 711 l 600 155 q 594 75 591 108 q 627 27 597 41 l 610 -11 q 571 26 585 5 q 553 73 557 47 q 555 132 550 100 l 556 121 l 548 121 l 562 136 q 450 25 515 62 q 313 -11 385 -11 m 316 27 q 441 63 387 27 q 532 159 495 99 q 588 292 569 219 q 607 437 607 364 q 556 621 607 559 q 418 684 505 684 q 293 649 349 684 q 196 556 237 614 q 134 427 156 498 q 112 282 112 356 q 166 96 112 165 q 316 27 220 27 m 488 927 l 449 952 l 571 1166 l 604 1141 l 488 927 m 476 831 q 384 855 424 831 q 323 919 343 880 q 311 1003 303 959 l 349 997 q 358 935 342 964 q 407 887 374 905 q 481 869 440 869 q 593 909 546 869 q 652 1003 641 950 l 690 997 q 653 915 683 953 q 578 854 624 877 q 476 831 533 831 z "},"ặ":{"ha":758,"x_min":71,"x_max":713,"o":"m 313 -11 q 184 26 238 -11 q 100 129 130 63 q 71 283 71 195 q 96 443 71 365 q 166 584 121 521 q 275 684 212 647 q 416 722 338 722 q 566 668 508 722 q 636 529 623 614 l 614 544 l 656 544 l 633 529 l 669 711 l 711 711 l 600 155 q 594 75 591 108 q 627 27 597 41 l 610 -11 q 571 26 585 5 q 553 73 557 47 q 555 132 550 100 l 556 121 l 548 121 l 562 136 q 450 25 515 62 q 313 -11 385 -11 m 316 27 q 441 63 387 27 q 532 159 495 99 q 588 292 569 219 q 607 437 607 364 q 556 621 607 559 q 418 684 505 684 q 293 649 349 684 q 196 556 237 614 q 134 427 156 498 q 112 282 112 356 q 166 96 112 165 q 316 27 220 27 m 287 -208 q 245 -191 262 -208 q 229 -149 229 -174 q 245 -108 229 -125 q 287 -91 262 -91 q 328 -108 311 -91 q 345 -149 345 -125 q 328 -191 345 -174 q 287 -208 311 -208 m 489 831 q 396 857 435 831 q 339 926 357 882 q 331 1022 321 970 l 370 1017 q 391 912 357 955 q 490 869 425 869 q 572 889 532 869 q 640 945 612 910 q 675 1022 668 980 l 713 1017 q 671 922 704 964 q 590 855 637 880 q 489 831 543 831 z "},"ằ":{"ha":758,"x_min":71,"x_max":711,"o":"m 313 -11 q 184 26 238 -11 q 100 129 130 63 q 71 283 71 195 q 96 443 71 365 q 166 584 121 521 q 275 684 212 647 q 416 722 338 722 q 566 668 508 722 q 636 529 623 614 l 614 544 l 656 544 l 633 529 l 669 711 l 711 711 l 600 155 q 594 75 591 108 q 627 27 597 41 l 610 -11 q 571 26 585 5 q 553 73 557 47 q 555 132 550 100 l 556 121 l 548 121 l 562 136 q 450 25 515 62 q 313 -11 385 -11 m 316 27 q 441 63 387 27 q 532 159 495 99 q 588 292 569 219 q 607 437 607 364 q 556 621 607 559 q 418 684 505 684 q 293 649 349 684 q 196 556 237 614 q 134 427 156 498 q 112 282 112 356 q 166 96 112 165 q 316 27 220 27 m 493 935 l 338 1125 l 370 1154 l 525 966 l 493 935 m 467 831 q 375 855 415 831 q 314 919 334 880 q 302 1003 294 959 l 340 997 q 349 935 333 964 q 398 887 366 905 q 473 869 431 869 q 585 909 537 869 q 644 1003 632 950 l 682 997 q 645 915 674 953 q 570 854 615 877 q 467 831 524 831 z "},"ẳ":{"ha":758,"x_min":71,"x_max":711,"o":"m 313 -11 q 184 26 238 -11 q 100 129 130 63 q 71 283 71 195 q 96 443 71 365 q 166 584 121 521 q 275 684 212 647 q 416 722 338 722 q 566 668 508 722 q 636 529 623 614 l 614 544 l 656 544 l 633 529 l 669 711 l 711 711 l 600 155 q 594 75 591 108 q 627 27 597 41 l 610 -11 q 571 26 585 5 q 553 73 557 47 q 555 132 550 100 l 556 121 l 548 121 l 562 136 q 450 25 515 62 q 313 -11 385 -11 m 316 27 q 441 63 387 27 q 532 159 495 99 q 588 292 569 219 q 607 437 607 364 q 556 621 607 559 q 418 684 505 684 q 293 649 349 684 q 196 556 237 614 q 134 427 156 498 q 112 282 112 356 q 166 96 112 165 q 316 27 220 27 m 492 831 q 399 855 439 831 q 339 919 359 880 q 327 1003 319 959 l 365 997 q 374 935 357 964 q 423 887 390 905 q 497 869 456 869 q 609 909 562 869 q 668 1003 656 950 l 706 997 q 669 915 699 953 q 594 854 640 877 q 492 831 549 831 m 507 942 l 485 972 q 542 1012 517 987 q 571 1063 566 1037 q 560 1103 576 1088 q 514 1117 544 1117 q 470 1112 493 1117 q 431 1100 448 1107 l 435 1141 q 479 1152 458 1149 q 517 1155 500 1155 q 593 1127 569 1155 q 608 1056 616 1099 q 573 991 601 1023 q 507 942 545 959 z "},"ẵ":{"ha":758,"x_min":71,"x_max":740,"o":"m 313 -11 q 184 26 238 -11 q 100 129 130 63 q 71 283 71 195 q 96 443 71 365 q 166 584 121 521 q 275 684 212 647 q 416 722 338 722 q 566 668 508 722 q 636 529 623 614 l 614 544 l 656 544 l 633 529 l 669 711 l 711 711 l 600 155 q 594 75 591 108 q 627 27 597 41 l 610 -11 q 571 26 585 5 q 553 73 557 47 q 555 132 550 100 l 556 121 l 548 121 l 562 136 q 450 25 515 62 q 313 -11 385 -11 m 316 27 q 441 63 387 27 q 532 159 495 99 q 588 292 569 219 q 607 437 607 364 q 556 621 607 559 q 418 684 505 684 q 293 649 349 684 q 196 556 237 614 q 134 427 156 498 q 112 282 112 356 q 166 96 112 165 q 316 27 220 27 m 374 1042 l 336 1047 q 380 1133 346 1103 q 463 1163 415 1163 q 515 1152 495 1163 q 548 1124 534 1140 q 576 1097 562 1109 q 611 1086 590 1086 q 667 1106 642 1086 q 699 1165 691 1126 l 740 1160 q 715 1098 734 1124 q 671 1058 697 1072 q 612 1044 644 1044 q 562 1057 582 1044 q 527 1085 543 1069 q 496 1113 512 1101 q 457 1125 480 1125 q 407 1104 430 1125 q 374 1042 383 1084 m 481 831 q 388 855 429 831 q 328 919 348 880 q 316 1003 308 959 l 354 997 q 363 935 347 964 q 412 887 379 905 q 486 869 445 869 q 598 909 551 869 q 657 1003 646 950 l 695 997 q 658 915 688 953 q 583 854 629 877 q 481 831 538 831 z "},"ǎ":{"ha":758,"x_min":71,"x_max":711,"o":"m 313 -11 q 184 26 238 -11 q 100 129 130 63 q 71 283 71 195 q 96 443 71 365 q 166 584 121 521 q 275 684 212 647 q 416 722 338 722 q 566 668 508 722 q 636 529 623 614 l 614 544 l 656 544 l 633 529 l 669 711 l 711 711 l 600 155 q 594 75 591 108 q 627 27 597 41 l 610 -11 q 571 26 585 5 q 553 73 557 47 q 555 132 550 100 l 556 121 l 548 121 l 562 136 q 450 25 515 62 q 313 -11 385 -11 m 316 27 q 441 63 387 27 q 532 159 495 99 q 588 292 569 219 q 607 437 607 364 q 556 621 607 559 q 418 684 505 684 q 293 649 349 684 q 196 556 237 614 q 134 427 156 498 q 112 282 112 356 q 166 96 112 165 q 316 27 220 27 m 463 823 l 320 1000 l 349 1027 l 474 866 l 479 866 l 665 1027 l 691 1000 l 485 823 l 463 823 z "},"â":{"ha":758,"x_min":71,"x_max":711,"o":"m 313 -11 q 184 26 238 -11 q 100 129 130 63 q 71 283 71 195 q 96 443 71 365 q 166 584 121 521 q 275 684 212 647 q 416 722 338 722 q 566 668 508 722 q 636 529 623 614 l 614 544 l 656 544 l 633 529 l 669 711 l 711 711 l 600 155 q 594 75 591 108 q 627 27 597 41 l 610 -11 q 571 26 585 5 q 553 73 557 47 q 555 132 550 100 l 556 121 l 548 121 l 562 136 q 450 25 515 62 q 313 -11 385 -11 m 316 27 q 441 63 387 27 q 532 159 495 99 q 588 292 569 219 q 607 437 607 364 q 556 621 607 559 q 418 684 505 684 q 293 649 349 684 q 196 556 237 614 q 134 427 156 498 q 112 282 112 356 q 166 96 112 165 q 316 27 220 27 m 325 823 l 299 850 l 505 1027 l 528 1027 l 670 850 l 642 823 l 517 984 l 511 984 l 325 823 z "},"ấ":{"ha":758,"x_min":71,"x_max":855,"o":"m 313 -11 q 184 26 238 -11 q 100 129 130 63 q 71 283 71 195 q 96 443 71 365 q 166 584 121 521 q 275 684 212 647 q 416 722 338 722 q 566 668 508 722 q 636 529 623 614 l 614 544 l 656 544 l 633 529 l 669 711 l 711 711 l 600 155 q 594 75 591 108 q 627 27 597 41 l 610 -11 q 571 26 585 5 q 553 73 557 47 q 555 132 550 100 l 556 121 l 548 121 l 562 136 q 450 25 515 62 q 313 -11 385 -11 m 316 27 q 441 63 387 27 q 532 159 495 99 q 588 292 569 219 q 607 437 607 364 q 556 621 607 559 q 418 684 505 684 q 293 649 349 684 q 196 556 237 614 q 134 427 156 498 q 112 282 112 356 q 166 96 112 165 q 316 27 220 27 m 641 950 l 616 980 l 825 1154 l 855 1122 l 641 950 m 315 822 l 290 852 l 501 1000 l 526 1000 l 682 852 l 654 822 l 514 953 l 505 953 l 315 822 z "},"ậ":{"ha":758,"x_min":71,"x_max":711,"o":"m 313 -11 q 184 26 238 -11 q 100 129 130 63 q 71 283 71 195 q 96 443 71 365 q 166 584 121 521 q 275 684 212 647 q 416 722 338 722 q 566 668 508 722 q 636 529 623 614 l 614 544 l 656 544 l 633 529 l 669 711 l 711 711 l 600 155 q 594 75 591 108 q 627 27 597 41 l 610 -11 q 571 26 585 5 q 553 73 557 47 q 555 132 550 100 l 556 121 l 548 121 l 562 136 q 450 25 515 62 q 313 -11 385 -11 m 316 27 q 441 63 387 27 q 532 159 495 99 q 588 292 569 219 q 607 437 607 364 q 556 621 607 559 q 418 684 505 684 q 293 649 349 684 q 196 556 237 614 q 134 427 156 498 q 112 282 112 356 q 166 96 112 165 q 316 27 220 27 m 287 -208 q 245 -191 262 -208 q 229 -149 229 -174 q 245 -108 229 -125 q 287 -91 262 -91 q 328 -108 311 -91 q 345 -149 345 -125 q 328 -191 345 -174 q 287 -208 311 -208 m 325 823 l 299 850 l 505 1027 l 528 1027 l 670 850 l 642 823 l 517 984 l 511 984 l 325 823 z "},"ầ":{"ha":758,"x_min":71,"x_max":711,"o":"m 313 -11 q 184 26 238 -11 q 100 129 130 63 q 71 283 71 195 q 96 443 71 365 q 166 584 121 521 q 275 684 212 647 q 416 722 338 722 q 566 668 508 722 q 636 529 623 614 l 614 544 l 656 544 l 633 529 l 669 711 l 711 711 l 600 155 q 594 75 591 108 q 627 27 597 41 l 610 -11 q 571 26 585 5 q 553 73 557 47 q 555 132 550 100 l 556 121 l 548 121 l 562 136 q 450 25 515 62 q 313 -11 385 -11 m 316 27 q 441 63 387 27 q 532 159 495 99 q 588 292 569 219 q 607 437 607 364 q 556 621 607 559 q 418 684 505 684 q 293 649 349 684 q 196 556 237 614 q 134 427 156 498 q 112 282 112 356 q 166 96 112 165 q 316 27 220 27 m 349 951 l 216 1138 l 249 1162 l 382 973 l 349 951 m 313 822 l 287 852 l 498 1000 l 524 1000 l 680 852 l 651 822 l 511 953 l 503 953 l 313 822 z "},"ẩ":{"ha":758,"x_min":71,"x_max":730,"o":"m 313 -11 q 184 26 238 -11 q 100 129 130 63 q 71 283 71 195 q 96 443 71 365 q 166 584 121 521 q 275 684 212 647 q 416 722 338 722 q 566 668 508 722 q 636 529 623 614 l 614 544 l 656 544 l 633 529 l 669 711 l 711 711 l 600 155 q 594 75 591 108 q 627 27 597 41 l 610 -11 q 571 26 585 5 q 553 73 557 47 q 555 132 550 100 l 556 121 l 548 121 l 562 136 q 450 25 515 62 q 313 -11 385 -11 m 316 27 q 441 63 387 27 q 532 159 495 99 q 588 292 569 219 q 607 437 607 364 q 556 621 607 559 q 418 684 505 684 q 293 649 349 684 q 196 556 237 614 q 134 427 156 498 q 112 282 112 356 q 166 96 112 165 q 316 27 220 27 m 631 945 l 604 969 q 652 1015 630 987 q 680 1065 675 1042 q 669 1105 685 1090 q 623 1120 654 1120 q 581 1117 604 1120 q 539 1108 558 1115 l 543 1147 q 583 1155 561 1152 q 621 1157 604 1157 q 702 1131 675 1157 q 720 1061 730 1105 q 686 996 713 1028 q 631 945 659 964 m 315 822 l 290 852 l 501 1000 l 526 1000 l 682 852 l 654 822 l 514 953 l 505 953 l 315 822 z "},"ẫ":{"ha":758,"x_min":71,"x_max":719,"o":"m 313 -11 q 184 26 238 -11 q 100 129 130 63 q 71 283 71 195 q 96 443 71 365 q 166 584 121 521 q 275 684 212 647 q 416 722 338 722 q 566 668 508 722 q 636 529 623 614 l 614 544 l 656 544 l 633 529 l 669 711 l 711 711 l 600 155 q 594 75 591 108 q 627 27 597 41 l 610 -11 q 571 26 585 5 q 553 73 557 47 q 555 132 550 100 l 556 121 l 548 121 l 562 136 q 450 25 515 62 q 313 -11 385 -11 m 316 27 q 441 63 387 27 q 532 159 495 99 q 588 292 569 219 q 607 437 607 364 q 556 621 607 559 q 418 684 505 684 q 293 649 349 684 q 196 556 237 614 q 134 427 156 498 q 112 282 112 356 q 166 96 112 165 q 316 27 220 27 m 353 1042 l 315 1047 q 359 1133 325 1103 q 441 1163 394 1163 q 494 1152 474 1163 q 527 1124 513 1140 q 555 1097 541 1109 q 590 1086 569 1086 q 646 1106 621 1086 q 677 1165 670 1126 l 719 1160 q 694 1098 713 1124 q 650 1058 676 1072 q 591 1044 623 1044 q 541 1057 561 1044 q 506 1085 522 1069 q 475 1113 491 1101 q 436 1125 459 1125 q 387 1104 411 1125 q 353 1042 362 1084 m 318 822 l 292 852 l 504 1000 l 529 1000 l 685 852 l 656 822 l 517 953 l 508 953 l 318 822 z "},"ȁ":{"ha":758,"x_min":71,"x_max":711,"o":"m 313 -11 q 184 26 238 -11 q 100 129 130 63 q 71 283 71 195 q 96 443 71 365 q 166 584 121 521 q 275 684 212 647 q 416 722 338 722 q 566 668 508 722 q 636 529 623 614 l 614 544 l 656 544 l 633 529 l 669 711 l 711 711 l 600 155 q 594 75 591 108 q 627 27 597 41 l 610 -11 q 571 26 585 5 q 553 73 557 47 q 555 132 550 100 l 556 121 l 548 121 l 562 136 q 450 25 515 62 q 313 -11 385 -11 m 316 27 q 441 63 387 27 q 532 159 495 99 q 588 292 569 219 q 607 437 607 364 q 556 621 607 559 q 418 684 505 684 q 293 649 349 684 q 196 556 237 614 q 134 427 156 498 q 112 282 112 356 q 166 96 112 165 q 316 27 220 27 m 406 808 l 297 1050 l 335 1075 l 435 822 l 406 808 m 587 808 l 477 1050 l 517 1075 l 615 822 l 587 808 z "},"ä":{"ha":758,"x_min":71,"x_max":711,"o":"m 313 -11 q 184 26 238 -11 q 100 129 130 63 q 71 283 71 195 q 96 443 71 365 q 166 584 121 521 q 275 684 212 647 q 416 722 338 722 q 566 668 508 722 q 636 529 623 614 l 614 544 l 656 544 l 633 529 l 669 711 l 711 711 l 600 155 q 594 75 591 108 q 627 27 597 41 l 610 -11 q 571 26 585 5 q 553 73 557 47 q 555 132 550 100 l 556 121 l 548 121 l 562 136 q 450 25 515 62 q 313 -11 385 -11 m 316 27 q 441 63 387 27 q 532 159 495 99 q 588 292 569 219 q 607 437 607 364 q 556 621 607 559 q 418 684 505 684 q 293 649 349 684 q 196 556 237 614 q 134 427 156 498 q 112 282 112 356 q 166 96 112 165 q 316 27 220 27 m 608 853 q 567 870 583 853 q 550 911 550 886 q 567 953 550 937 q 608 970 583 970 q 650 953 633 970 q 667 911 667 937 q 650 870 667 886 q 608 853 633 853 m 386 853 q 344 870 361 853 q 328 911 328 886 q 344 953 328 937 q 386 970 361 970 q 428 953 411 970 q 444 911 444 937 q 428 870 444 886 q 386 853 411 853 z "},"ȧ":{"ha":758,"x_min":71,"x_max":711,"o":"m 313 -11 q 184 26 238 -11 q 100 129 130 63 q 71 283 71 195 q 96 443 71 365 q 166 584 121 521 q 275 684 212 647 q 416 722 338 722 q 566 668 508 722 q 636 529 623 614 l 614 544 l 656 544 l 633 529 l 669 711 l 711 711 l 600 155 q 594 75 591 108 q 627 27 597 41 l 610 -11 q 571 26 585 5 q 553 73 557 47 q 555 132 550 100 l 556 121 l 548 121 l 562 136 q 450 25 515 62 q 313 -11 385 -11 m 316 27 q 441 63 387 27 q 532 159 495 99 q 588 292 569 219 q 607 437 607 364 q 556 621 607 559 q 418 684 505 684 q 293 649 349 684 q 196 556 237 614 q 134 427 156 498 q 112 282 112 356 q 166 96 112 165 q 316 27 220 27 m 498 853 q 457 870 474 853 q 440 911 440 887 q 457 953 440 936 q 498 970 474 970 q 540 953 523 970 q 557 911 557 936 q 540 870 557 887 q 498 853 523 853 z "},"ạ":{"ha":758,"x_min":71,"x_max":711,"o":"m 313 -11 q 184 26 238 -11 q 100 129 130 63 q 71 283 71 195 q 96 443 71 365 q 166 584 121 521 q 275 684 212 647 q 416 722 338 722 q 566 668 508 722 q 636 529 623 614 l 614 544 l 656 544 l 633 529 l 669 711 l 711 711 l 600 155 q 594 75 591 108 q 627 27 597 41 l 610 -11 q 571 26 585 5 q 553 73 557 47 q 555 132 550 100 l 556 121 l 548 121 l 562 136 q 450 25 515 62 q 313 -11 385 -11 m 316 27 q 441 63 387 27 q 532 159 495 99 q 588 292 569 219 q 607 437 607 364 q 556 621 607 559 q 418 684 505 684 q 293 649 349 684 q 196 556 237 614 q 134 427 156 498 q 112 282 112 356 q 166 96 112 165 q 316 27 220 27 m 287 -208 q 245 -191 262 -208 q 229 -149 229 -174 q 245 -108 229 -125 q 287 -91 262 -91 q 328 -108 311 -91 q 345 -149 345 -125 q 328 -191 345 -174 q 287 -208 311 -208 z "},"à":{"ha":758,"x_min":71,"x_max":711,"o":"m 313 -11 q 184 26 238 -11 q 100 129 130 63 q 71 283 71 195 q 96 443 71 365 q 166 584 121 521 q 275 684 212 647 q 416 722 338 722 q 566 668 508 722 q 636 529 623 614 l 614 544 l 656 544 l 633 529 l 669 711 l 711 711 l 600 155 q 594 75 591 108 q 627 27 597 41 l 610 -11 q 571 26 585 5 q 553 73 557 47 q 555 132 550 100 l 556 121 l 548 121 l 562 136 q 450 25 515 62 q 313 -11 385 -11 m 316 27 q 441 63 387 27 q 532 159 495 99 q 588 292 569 219 q 607 437 607 364 q 556 621 607 559 q 418 684 505 684 q 293 649 349 684 q 196 556 237 614 q 134 427 156 498 q 112 282 112 356 q 166 96 112 165 q 316 27 220 27 m 479 811 l 347 1022 l 379 1046 l 512 833 l 479 811 z "},"ả":{"ha":758,"x_min":71,"x_max":711,"o":"m 313 -11 q 184 26 238 -11 q 100 129 130 63 q 71 283 71 195 q 96 443 71 365 q 166 584 121 521 q 275 684 212 647 q 416 722 338 722 q 566 668 508 722 q 636 529 623 614 l 614 544 l 656 544 l 633 529 l 669 711 l 711 711 l 600 155 q 594 75 591 108 q 627 27 597 41 l 610 -11 q 571 26 585 5 q 553 73 557 47 q 555 132 550 100 l 556 121 l 548 121 l 562 136 q 450 25 515 62 q 313 -11 385 -11 m 316 27 q 441 63 387 27 q 532 159 495 99 q 588 292 569 219 q 607 437 607 364 q 556 621 607 559 q 418 684 505 684 q 293 649 349 684 q 196 556 237 614 q 134 427 156 498 q 112 282 112 356 q 166 96 112 165 q 316 27 220 27 m 486 808 l 465 839 q 522 879 497 854 q 551 929 546 903 q 540 969 556 955 q 494 983 524 983 q 450 978 473 983 q 410 966 427 973 l 414 1008 q 458 1018 437 1015 q 496 1021 479 1021 q 572 993 549 1021 q 587 922 596 965 q 552 857 581 889 q 486 808 524 825 z "},"ȃ":{"ha":758,"x_min":71,"x_max":711,"o":"m 313 -11 q 184 26 238 -11 q 100 129 130 63 q 71 283 71 195 q 96 443 71 365 q 166 584 121 521 q 275 684 212 647 q 416 722 338 722 q 566 668 508 722 q 636 529 623 614 l 614 544 l 656 544 l 633 529 l 669 711 l 711 711 l 600 155 q 594 75 591 108 q 627 27 597 41 l 610 -11 q 571 26 585 5 q 553 73 557 47 q 555 132 550 100 l 556 121 l 548 121 l 562 136 q 450 25 515 62 q 313 -11 385 -11 m 316 27 q 441 63 387 27 q 532 159 495 99 q 588 292 569 219 q 607 437 607 364 q 556 621 607 559 q 418 684 505 684 q 293 649 349 684 q 196 556 237 614 q 134 427 156 498 q 112 282 112 356 q 166 96 112 165 q 316 27 220 27 m 677 836 l 639 842 q 619 946 653 906 q 517 987 585 987 q 397 942 444 987 q 338 836 349 897 l 298 842 q 341 940 310 899 q 419 1003 372 981 q 522 1025 466 1025 q 617 1000 577 1025 q 673 931 656 975 q 677 836 690 888 z "},"ā":{"ha":758,"x_min":71,"x_max":715,"o":"m 313 -11 q 184 26 238 -11 q 100 129 130 63 q 71 283 71 195 q 96 443 71 365 q 166 584 121 521 q 275 684 212 647 q 416 722 338 722 q 566 668 508 722 q 636 529 623 614 l 614 544 l 656 544 l 633 529 l 669 711 l 711 711 l 600 155 q 594 75 591 108 q 627 27 597 41 l 610 -11 q 571 26 585 5 q 553 73 557 47 q 555 132 550 100 l 556 121 l 548 121 l 562 136 q 450 25 515 62 q 313 -11 385 -11 m 316 27 q 441 63 387 27 q 532 159 495 99 q 588 292 569 219 q 607 437 607 364 q 556 621 607 559 q 418 684 505 684 q 293 649 349 684 q 196 556 237 614 q 134 427 156 498 q 112 282 112 356 q 166 96 112 165 q 316 27 220 27 m 283 895 l 290 932 l 715 932 l 707 895 l 283 895 z "},"ą":{"ha":758,"x_min":71,"x_max":711,"o":"m 313 -11 q 184 26 238 -11 q 100 129 130 63 q 71 283 71 195 q 96 443 71 365 q 166 584 121 521 q 275 684 212 647 q 416 722 338 722 q 566 668 508 722 q 636 529 623 614 l 614 544 l 656 544 l 633 529 l 669 711 l 711 711 l 600 155 q 594 75 591 108 q 627 27 597 41 l 610 -11 q 571 26 585 5 q 553 73 557 47 q 555 132 550 100 l 556 121 l 548 121 l 562 136 q 450 25 515 62 q 313 -11 385 -11 m 316 27 q 441 63 387 27 q 532 159 495 99 q 588 292 569 219 q 607 437 607 364 q 556 621 607 559 q 418 684 505 684 q 293 649 349 684 q 196 556 237 614 q 134 427 156 498 q 112 282 112 356 q 166 96 112 165 q 316 27 220 27 m 514 -264 q 447 -234 465 -264 q 437 -170 430 -203 q 468 -105 445 -134 q 523 -45 492 -75 q 587 24 555 -14 l 610 -11 q 556 -67 584 -41 q 506 -120 528 -94 q 477 -173 484 -146 q 485 -214 469 -202 q 518 -226 500 -226 q 549 -220 530 -226 q 591 -201 568 -214 l 582 -245 q 549 -259 567 -254 q 514 -264 532 -264 z "},"å":{"ha":758,"x_min":71,"x_max":711,"o":"m 313 -11 q 184 26 238 -11 q 100 129 130 63 q 71 283 71 195 q 96 443 71 365 q 166 584 121 521 q 275 684 212 647 q 416 722 338 722 q 566 668 508 722 q 636 529 623 614 l 614 544 l 656 544 l 633 529 l 669 711 l 711 711 l 600 155 q 594 75 591 108 q 627 27 597 41 l 610 -11 q 571 26 585 5 q 553 73 557 47 q 555 132 550 100 l 556 121 l 548 121 l 562 136 q 450 25 515 62 q 313 -11 385 -11 m 316 27 q 441 63 387 27 q 532 159 495 99 q 588 292 569 219 q 607 437 607 364 q 556 621 607 559 q 418 684 505 684 q 293 649 349 684 q 196 556 237 614 q 134 427 156 498 q 112 282 112 356 q 166 96 112 165 q 316 27 220 27 m 490 811 q 428 828 454 811 q 389 875 401 846 q 383 941 376 905 q 432 1022 393 989 q 520 1055 472 1055 q 582 1037 556 1055 q 619 990 608 1019 q 624 926 631 960 q 577 845 615 878 q 490 811 538 811 m 490 849 q 551 872 522 849 q 587 928 581 896 q 573 991 594 966 q 517 1017 551 1017 q 456 994 486 1017 q 420 935 427 970 q 433 877 414 905 q 490 849 452 849 z "},"ǻ":{"ha":758,"x_min":71,"x_max":725,"o":"m 490 811 q 428 828 454 811 q 389 875 401 846 q 383 941 376 905 q 432 1022 393 989 q 520 1055 472 1055 q 582 1037 556 1055 q 619 990 608 1019 q 624 926 631 960 q 577 845 615 878 q 490 811 538 811 m 490 849 q 551 872 522 849 q 587 928 581 896 q 573 991 594 966 q 517 1017 551 1017 q 456 994 486 1017 q 420 935 427 970 q 433 877 414 905 q 490 849 452 849 m 584 1083 l 547 1116 l 691 1302 l 725 1272 l 584 1083 m 313 -11 q 184 26 238 -11 q 100 129 130 63 q 71 283 71 195 q 96 443 71 365 q 166 584 121 521 q 275 684 212 647 q 416 722 338 722 q 566 668 508 722 q 636 529 623 614 l 614 544 l 656 544 l 633 529 l 669 711 l 711 711 l 600 155 q 594 75 591 108 q 627 27 597 41 l 610 -11 q 571 26 585 5 q 553 73 557 47 q 555 132 550 100 l 556 121 l 548 121 l 562 136 q 450 25 515 62 q 313 -11 385 -11 m 316 27 q 441 63 387 27 q 532 159 495 99 q 588 292 569 219 q 607 437 607 364 q 556 621 607 559 q 418 684 505 684 q 293 649 349 684 q 196 556 237 614 q 134 427 156 498 q 112 282 112 356 q 166 96 112 165 q 316 27 220 27 z "},"ã":{"ha":758,"x_min":71,"x_max":711,"o":"m 313 -11 q 184 26 238 -11 q 100 129 130 63 q 71 283 71 195 q 96 443 71 365 q 166 584 121 521 q 275 684 212 647 q 416 722 338 722 q 566 668 508 722 q 636 529 623 614 l 614 544 l 656 544 l 633 529 l 669 711 l 711 711 l 600 155 q 594 75 591 108 q 627 27 597 41 l 610 -11 q 571 26 585 5 q 553 73 557 47 q 555 132 550 100 l 556 121 l 548 121 l 562 136 q 450 25 515 62 q 313 -11 385 -11 m 316 27 q 441 63 387 27 q 532 159 495 99 q 588 292 569 219 q 607 437 607 364 q 556 621 607 559 q 418 684 505 684 q 293 649 349 684 q 196 556 237 614 q 134 427 156 498 q 112 282 112 356 q 166 96 112 165 q 316 27 220 27 m 335 839 l 294 844 q 319 910 300 881 q 364 955 337 939 q 424 972 391 972 q 476 958 456 972 q 509 927 495 945 q 536 897 522 910 q 572 883 551 883 q 629 910 604 883 q 661 975 654 937 l 701 969 q 674 904 693 933 q 629 859 656 876 q 571 842 603 842 q 521 856 541 842 q 488 887 502 869 q 458 919 473 905 q 421 933 443 933 q 367 907 391 933 q 335 839 342 881 z "},"æ":{"ha":1199,"x_min":72,"x_max":1139,"o":"m 304 -11 q 134 71 196 -11 q 72 285 72 152 q 96 445 72 367 q 163 585 119 523 q 269 685 208 648 q 405 722 330 722 q 549 668 494 722 q 616 529 604 615 l 597 544 l 636 544 l 612 534 l 648 711 l 689 711 l 597 247 q 584 130 585 191 q 586 0 583 69 l 545 0 q 544 72 544 30 q 544 152 543 115 l 553 127 l 530 127 l 557 153 q 440 27 508 66 q 304 -11 372 -11 m 309 27 q 429 64 377 27 q 517 160 481 100 q 570 293 552 220 q 589 436 589 365 q 567 569 589 514 q 505 654 546 625 q 406 684 465 684 q 285 648 339 684 q 192 554 231 613 q 133 425 153 496 q 112 282 112 354 q 164 97 112 168 q 309 27 216 27 m 821 -11 q 673 34 728 -11 q 598 156 618 79 q 589 332 577 234 q 630 492 599 420 q 707 615 661 564 q 809 694 753 667 q 926 722 865 722 q 1039 691 991 722 q 1113 603 1087 660 q 1139 468 1139 547 q 1135 403 1139 436 q 1123 342 1131 370 l 616 342 l 625 380 l 1093 380 q 1099 421 1097 401 q 1101 461 1101 441 q 1053 624 1101 564 q 924 684 1005 684 q 800 644 856 684 q 704 540 744 604 q 641 400 663 475 q 619 254 619 326 q 644 128 619 178 q 715 52 669 77 q 822 27 760 27 q 930 50 882 27 q 1021 109 979 72 l 1035 69 q 945 14 998 39 q 821 -11 892 -11 z "},"ǽ":{"ha":1199,"x_min":72,"x_max":1139,"o":"m 304 -11 q 134 71 196 -11 q 72 285 72 152 q 96 445 72 367 q 163 585 119 523 q 269 685 208 648 q 405 722 330 722 q 549 668 494 722 q 616 529 604 615 l 597 544 l 636 544 l 612 534 l 648 711 l 689 711 l 597 247 q 584 130 585 191 q 586 0 583 69 l 545 0 q 544 72 544 30 q 544 152 543 115 l 553 127 l 530 127 l 557 153 q 440 27 508 66 q 304 -11 372 -11 m 309 27 q 429 64 377 27 q 517 160 481 100 q 570 293 552 220 q 589 436 589 365 q 567 569 589 514 q 505 654 546 625 q 406 684 465 684 q 285 648 339 684 q 192 554 231 613 q 133 425 153 496 q 112 282 112 354 q 164 97 112 168 q 309 27 216 27 m 821 -11 q 673 34 728 -11 q 598 156 618 79 q 589 332 577 234 q 630 492 599 420 q 707 615 661 564 q 809 694 753 667 q 926 722 865 722 q 1039 691 991 722 q 1113 603 1087 660 q 1139 468 1139 547 q 1135 403 1139 436 q 1123 342 1131 370 l 616 342 l 625 380 l 1093 380 q 1099 421 1097 401 q 1101 461 1101 441 q 1053 624 1101 564 q 924 684 1005 684 q 800 644 856 684 q 704 540 744 604 q 641 400 663 475 q 619 254 619 326 q 644 128 619 178 q 715 52 669 77 q 822 27 760 27 q 930 50 882 27 q 1021 109 979 72 l 1035 69 q 945 14 998 39 q 821 -11 892 -11 m 621 808 l 590 833 l 757 1049 l 786 1022 l 621 808 z "},"b":{"ha":785,"x_min":45,"x_max":713,"o":"m 45 0 l 254 1044 l 295 1044 l 204 590 l 225 590 l 182 517 l 129 250 l 144 176 l 121 176 l 87 0 l 45 0 m 366 -11 q 240 18 298 -11 q 149 111 183 47 q 114 279 114 175 q 137 440 114 361 q 206 583 161 519 q 317 685 252 647 q 466 722 382 722 q 591 693 534 722 q 680 600 647 663 q 713 432 713 536 q 690 270 713 349 q 623 128 667 191 q 514 27 578 64 q 366 -11 449 -11 m 364 26 q 495 62 437 26 q 592 156 553 97 q 653 286 632 214 q 673 431 673 358 q 616 621 673 557 q 465 685 559 685 q 333 649 391 685 q 234 554 275 614 q 172 423 193 495 q 151 278 151 351 q 210 89 151 151 q 364 26 270 26 z "},"c":{"ha":665,"x_min":73,"x_max":647,"o":"m 330 -11 q 195 28 252 -11 q 105 137 137 67 q 73 298 73 206 q 99 455 73 379 q 173 591 125 531 q 288 686 220 651 q 437 722 355 722 q 558 701 501 722 q 647 647 616 680 l 624 612 q 549 664 599 644 q 439 684 498 684 q 306 651 366 684 q 202 564 245 619 q 137 440 159 509 q 114 297 114 371 q 139 159 114 220 q 212 62 164 98 q 327 27 260 27 q 438 52 385 27 q 527 113 492 77 l 546 72 q 443 12 497 35 q 330 -11 389 -11 z "},"ć":{"ha":665,"x_min":73,"x_max":647,"o":"m 330 -11 q 195 28 252 -11 q 105 137 137 67 q 73 298 73 206 q 99 455 73 379 q 173 591 125 531 q 288 686 220 651 q 437 722 355 722 q 558 701 501 722 q 647 647 616 680 l 624 612 q 549 664 599 644 q 439 684 498 684 q 306 651 366 684 q 202 564 245 619 q 137 440 159 509 q 114 297 114 371 q 139 159 114 220 q 212 62 164 98 q 327 27 260 27 q 438 52 385 27 q 527 113 492 77 l 546 72 q 443 12 497 35 q 330 -11 389 -11 m 463 808 l 432 833 l 599 1049 l 628 1022 l 463 808 z "},"č":{"ha":665,"x_min":73,"x_max":678,"o":"m 330 -11 q 195 28 252 -11 q 105 137 137 67 q 73 298 73 206 q 99 455 73 379 q 173 591 125 531 q 288 686 220 651 q 437 722 355 722 q 558 701 501 722 q 647 647 616 680 l 624 612 q 549 664 599 644 q 439 684 498 684 q 306 651 366 684 q 202 564 245 619 q 137 440 159 509 q 114 297 114 371 q 139 159 114 220 q 212 62 164 98 q 327 27 260 27 q 438 52 385 27 q 527 113 492 77 l 546 72 q 443 12 497 35 q 330 -11 389 -11 m 450 823 l 307 1000 l 336 1027 l 461 866 l 467 866 l 652 1027 l 678 1000 l 472 823 l 450 823 z "},"ç":{"ha":665,"x_min":73,"x_max":647,"o":"m 330 -11 q 195 28 252 -11 q 105 137 137 67 q 73 298 73 206 q 99 455 73 379 q 173 591 125 531 q 288 686 220 651 q 437 722 355 722 q 558 701 501 722 q 647 647 616 680 l 624 612 q 549 664 599 644 q 439 684 498 684 q 306 651 366 684 q 202 564 245 619 q 137 440 159 509 q 114 297 114 371 q 139 159 114 220 q 212 62 164 98 q 327 27 260 27 q 438 52 385 27 q 527 113 492 77 l 546 72 q 443 12 497 35 q 330 -11 389 -11 m 160 -291 l 164 -250 q 274 -237 229 -252 q 329 -178 320 -221 q 310 -132 334 -150 q 236 -114 286 -114 l 295 0 l 336 0 l 279 -109 l 273 -81 q 328 -95 304 -82 q 362 -131 351 -109 q 368 -183 374 -154 q 328 -251 359 -227 q 253 -282 297 -274 q 160 -291 209 -291 z "},"ḉ":{"ha":665,"x_min":73,"x_max":647,"o":"m 330 -11 q 195 28 252 -11 q 105 137 137 67 q 73 298 73 206 q 99 455 73 379 q 173 591 125 531 q 288 686 220 651 q 437 722 355 722 q 558 701 501 722 q 647 647 616 680 l 624 612 q 549 664 599 644 q 439 684 498 684 q 306 651 366 684 q 202 564 245 619 q 137 440 159 509 q 114 297 114 371 q 139 159 114 220 q 212 62 164 98 q 327 27 260 27 q 438 52 385 27 q 527 113 492 77 l 546 72 q 443 12 497 35 q 330 -11 389 -11 m 160 -291 l 164 -250 q 274 -237 229 -252 q 329 -178 320 -221 q 310 -132 334 -150 q 236 -114 286 -114 l 295 0 l 336 0 l 279 -109 l 273 -81 q 328 -95 304 -82 q 362 -131 351 -109 q 368 -183 374 -154 q 328 -251 359 -227 q 253 -282 297 -274 q 160 -291 209 -291 m 463 808 l 432 833 l 599 1049 l 628 1022 l 463 808 z "},"ĉ":{"ha":665,"x_min":73,"x_max":657,"o":"m 330 -11 q 195 28 252 -11 q 105 137 137 67 q 73 298 73 206 q 99 455 73 379 q 173 591 125 531 q 288 686 220 651 q 437 722 355 722 q 558 701 501 722 q 647 647 616 680 l 624 612 q 549 664 599 644 q 439 684 498 684 q 306 651 366 684 q 202 564 245 619 q 137 440 159 509 q 114 297 114 371 q 139 159 114 220 q 212 62 164 98 q 327 27 260 27 q 438 52 385 27 q 527 113 492 77 l 546 72 q 443 12 497 35 q 330 -11 389 -11 m 312 823 l 286 850 l 492 1027 l 515 1027 l 657 850 l 629 823 l 504 984 l 498 984 l 312 823 z "},"ċ":{"ha":665,"x_min":73,"x_max":647,"o":"m 330 -11 q 195 28 252 -11 q 105 137 137 67 q 73 298 73 206 q 99 455 73 379 q 173 591 125 531 q 288 686 220 651 q 437 722 355 722 q 558 701 501 722 q 647 647 616 680 l 624 612 q 549 664 599 644 q 439 684 498 684 q 306 651 366 684 q 202 564 245 619 q 137 440 159 509 q 114 297 114 371 q 139 159 114 220 q 212 62 164 98 q 327 27 260 27 q 438 52 385 27 q 527 113 492 77 l 546 72 q 443 12 497 35 q 330 -11 389 -11 m 486 853 q 444 870 461 853 q 427 911 427 887 q 444 953 427 936 q 486 970 461 970 q 527 953 510 970 q 544 911 544 936 q 527 870 544 887 q 486 853 510 853 z "},"d":{"ha":798,"x_min":73,"x_max":806,"o":"m 636 -11 q 598 22 614 7 q 579 63 583 37 q 585 144 574 90 l 589 129 l 571 129 l 598 176 l 659 484 l 648 526 l 661 526 l 764 1044 l 806 1044 l 629 160 q 620 83 621 117 q 659 27 620 50 l 636 -11 m 326 -11 q 185 30 242 -11 q 101 139 129 70 q 73 292 73 208 q 98 451 73 374 q 170 589 123 528 q 281 686 216 650 q 426 722 347 722 q 562 683 508 722 q 643 578 616 645 q 669 426 669 511 q 646 267 669 345 q 579 126 623 189 q 471 26 535 64 q 326 -11 408 -11 m 326 27 q 454 62 397 27 q 551 154 511 96 q 613 283 591 212 q 634 425 634 353 q 580 611 634 539 q 424 684 526 684 q 297 649 354 684 q 198 557 239 615 q 135 430 157 500 q 113 287 113 359 q 168 100 113 174 q 326 27 224 27 z "},"ď":{"ha":798,"x_min":73,"x_max":943,"o":"m 636 -11 q 598 22 614 7 q 579 63 583 37 q 585 144 574 90 l 589 129 l 571 129 l 598 176 l 659 484 l 648 526 l 661 526 l 764 1044 l 806 1044 l 629 160 q 620 83 621 117 q 659 27 620 50 l 636 -11 m 326 -11 q 185 30 242 -11 q 101 139 129 70 q 73 292 73 208 q 98 451 73 374 q 170 589 123 528 q 281 686 216 650 q 426 722 347 722 q 562 683 508 722 q 643 578 616 645 q 669 426 669 511 q 646 267 669 345 q 579 126 623 189 q 471 26 535 64 q 326 -11 408 -11 m 326 27 q 454 62 397 27 q 551 154 511 96 q 613 283 591 212 q 634 425 634 353 q 580 611 634 539 q 424 684 526 684 q 297 649 354 684 q 198 557 239 615 q 135 430 157 500 q 113 287 113 359 q 168 100 113 174 q 326 27 224 27 m 841 770 l 901 1044 l 943 1044 l 879 770 l 841 770 z "},"đ":{"ha":798,"x_min":73,"x_max":905,"o":"m 636 -11 q 598 22 614 7 q 579 63 583 37 q 585 144 574 90 l 589 129 l 571 129 l 598 176 l 659 484 l 648 526 l 661 526 l 764 1044 l 806 1044 l 629 160 q 620 83 621 117 q 659 27 620 50 l 636 -11 m 326 -11 q 185 30 242 -11 q 101 139 129 70 q 73 292 73 208 q 98 451 73 374 q 170 589 123 528 q 281 686 216 650 q 426 722 347 722 q 562 683 508 722 q 643 578 616 645 q 669 426 669 511 q 646 267 669 345 q 579 126 623 189 q 471 26 535 64 q 326 -11 408 -11 m 326 27 q 454 62 397 27 q 551 154 511 96 q 613 283 591 212 q 634 425 634 353 q 580 611 634 539 q 424 684 526 684 q 297 649 354 684 q 198 557 239 615 q 135 430 157 500 q 113 287 113 359 q 168 100 113 174 q 326 27 224 27 m 617 837 l 624 874 l 905 874 l 899 837 l 617 837 z "},"ḍ":{"ha":798,"x_min":73,"x_max":806,"o":"m 636 -11 q 598 22 614 7 q 579 63 583 37 q 585 144 574 90 l 589 129 l 571 129 l 598 176 l 659 484 l 648 526 l 661 526 l 764 1044 l 806 1044 l 629 160 q 620 83 621 117 q 659 27 620 50 l 636 -11 m 326 -11 q 185 30 242 -11 q 101 139 129 70 q 73 292 73 208 q 98 451 73 374 q 170 589 123 528 q 281 686 216 650 q 426 722 347 722 q 562 683 508 722 q 643 578 616 645 q 669 426 669 511 q 646 267 669 345 q 579 126 623 189 q 471 26 535 64 q 326 -11 408 -11 m 326 27 q 454 62 397 27 q 551 154 511 96 q 613 283 591 212 q 634 425 634 353 q 580 611 634 539 q 424 684 526 684 q 297 649 354 684 q 198 557 239 615 q 135 430 157 500 q 113 287 113 359 q 168 100 113 174 q 326 27 224 27 m 326 -208 q 284 -191 301 -208 q 267 -149 267 -174 q 284 -108 267 -125 q 326 -91 301 -91 q 367 -108 350 -91 q 384 -149 384 -125 q 367 -191 384 -174 q 326 -208 350 -208 z "},"ḏ":{"ha":798,"x_min":73,"x_max":806,"o":"m 636 -11 q 598 22 614 7 q 579 63 583 37 q 585 144 574 90 l 589 129 l 571 129 l 598 176 l 659 484 l 648 526 l 661 526 l 764 1044 l 806 1044 l 629 160 q 620 83 621 117 q 659 27 620 50 l 636 -11 m 326 -11 q 185 30 242 -11 q 101 139 129 70 q 73 292 73 208 q 98 451 73 374 q 170 589 123 528 q 281 686 216 650 q 426 722 347 722 q 562 683 508 722 q 643 578 616 645 q 669 426 669 511 q 646 267 669 345 q 579 126 623 189 q 471 26 535 64 q 326 -11 408 -11 m 326 27 q 454 62 397 27 q 551 154 511 96 q 613 283 591 212 q 634 425 634 353 q 580 611 634 539 q 424 684 526 684 q 297 649 354 684 q 198 557 239 615 q 135 430 157 500 q 113 287 113 359 q 168 100 113 174 q 326 27 224 27 m 94 -255 l 100 -218 l 526 -218 l 518 -255 l 94 -255 z "},"ǆ":{"ha":1421,"x_min":73,"x_max":1411,"o":"m 636 -11 q 598 22 614 7 q 579 63 583 37 q 585 144 574 90 l 589 129 l 571 129 l 598 176 l 659 484 l 648 526 l 661 526 l 764 1044 l 806 1044 l 629 160 q 620 83 621 117 q 659 27 620 50 l 636 -11 m 326 -11 q 185 30 242 -11 q 101 139 129 70 q 73 292 73 208 q 98 451 73 374 q 170 589 123 528 q 281 686 216 650 q 426 722 347 722 q 562 683 508 722 q 643 578 616 645 q 669 426 669 511 q 646 267 669 345 q 579 126 623 189 q 471 26 535 64 q 326 -11 408 -11 m 326 27 q 454 62 397 27 q 551 154 511 96 q 613 283 591 212 q 634 425 634 353 q 580 611 634 539 q 424 684 526 684 q 297 649 354 684 q 198 557 239 615 q 135 430 157 500 q 113 287 113 359 q 168 100 113 174 q 326 27 224 27 m 798 0 l 803 26 l 1343 671 l 1343 674 l 951 674 l 959 711 l 1411 711 l 1409 692 l 868 42 l 868 38 l 1282 38 l 1275 0 l 798 0 m 1183 823 l 1040 1000 l 1069 1027 l 1194 866 l 1200 866 l 1385 1027 l 1411 1000 l 1205 823 l 1183 823 z "},"ð":{"ha":791,"x_min":78,"x_max":746,"o":"m 357 -11 q 210 29 273 -11 q 112 138 146 68 q 78 296 78 207 q 105 447 78 375 q 180 574 132 518 q 294 662 229 630 q 435 694 359 694 q 543 676 492 694 q 633 621 595 657 q 689 533 672 585 l 662 563 l 693 563 l 680 557 q 641 731 673 654 q 561 867 608 809 q 458 965 513 926 q 350 1023 403 1004 l 368 1058 q 562 928 484 1013 q 678 733 640 844 q 717 497 717 623 q 694 311 717 401 q 626 147 671 220 q 514 32 581 75 q 357 -11 447 -11 m 355 30 q 482 65 425 30 q 581 158 539 100 q 644 286 622 216 q 667 424 667 355 q 605 598 667 539 q 445 656 544 656 q 275 605 348 656 q 161 472 201 554 q 120 296 120 390 q 154 149 120 208 q 241 60 187 90 q 355 30 295 30 m 315 795 l 304 829 l 734 1055 l 746 1022 l 315 795 z "},"e":{"ha":719,"x_min":71,"x_max":658,"o":"m 324 -11 q 189 22 245 -11 q 101 120 132 56 q 71 277 71 184 q 95 438 71 359 q 164 581 119 517 q 274 683 210 645 q 419 722 338 722 q 548 687 495 722 q 630 595 602 653 q 658 466 658 538 q 655 419 658 444 q 650 375 653 395 q 643 343 646 355 l 106 343 l 114 381 l 609 381 q 615 422 613 402 q 616 458 616 441 q 563 623 616 563 q 419 684 510 684 q 290 648 347 684 q 193 552 233 612 q 132 420 153 492 q 111 275 111 348 q 165 94 111 161 q 326 27 219 27 q 439 50 389 27 q 535 109 490 72 l 551 69 q 455 14 512 39 q 324 -11 397 -11 z "},"é":{"ha":719,"x_min":71,"x_max":658,"o":"m 324 -11 q 189 22 245 -11 q 101 120 132 56 q 71 277 71 184 q 95 438 71 359 q 164 581 119 517 q 274 683 210 645 q 419 722 338 722 q 548 687 495 722 q 630 595 602 653 q 658 466 658 538 q 655 419 658 444 q 650 375 653 395 q 643 343 646 355 l 106 343 l 114 381 l 609 381 q 615 422 613 402 q 616 458 616 441 q 563 623 616 563 q 419 684 510 684 q 290 648 347 684 q 193 552 233 612 q 132 420 153 492 q 111 275 111 348 q 165 94 111 161 q 326 27 219 27 q 439 50 389 27 q 535 109 490 72 l 551 69 q 455 14 512 39 q 324 -11 397 -11 m 452 808 l 420 833 l 587 1049 l 616 1022 l 452 808 z "},"ĕ":{"ha":719,"x_min":71,"x_max":689,"o":"m 324 -11 q 189 22 245 -11 q 101 120 132 56 q 71 277 71 184 q 95 438 71 359 q 164 581 119 517 q 274 683 210 645 q 419 722 338 722 q 548 687 495 722 q 630 595 602 653 q 658 466 658 538 q 655 419 658 444 q 650 375 653 395 q 643 343 646 355 l 106 343 l 114 381 l 609 381 q 615 422 613 402 q 616 458 616 441 q 563 623 616 563 q 419 684 510 684 q 290 648 347 684 q 193 552 233 612 q 132 420 153 492 q 111 275 111 348 q 165 94 111 161 q 326 27 219 27 q 439 50 389 27 q 535 109 490 72 l 551 69 q 455 14 512 39 q 324 -11 397 -11 m 465 831 q 371 857 410 831 q 315 926 332 882 q 307 1022 297 970 l 345 1017 q 366 912 332 955 q 466 869 400 869 q 548 889 508 869 q 615 945 587 910 q 650 1022 644 980 l 689 1017 q 646 922 680 964 q 566 855 613 880 q 465 831 518 831 z "},"ě":{"ha":719,"x_min":71,"x_max":667,"o":"m 324 -11 q 189 22 245 -11 q 101 120 132 56 q 71 277 71 184 q 95 438 71 359 q 164 581 119 517 q 274 683 210 645 q 419 722 338 722 q 548 687 495 722 q 630 595 602 653 q 658 466 658 538 q 655 419 658 444 q 650 375 653 395 q 643 343 646 355 l 106 343 l 114 381 l 609 381 q 615 422 613 402 q 616 458 616 441 q 563 623 616 563 q 419 684 510 684 q 290 648 347 684 q 193 552 233 612 q 132 420 153 492 q 111 275 111 348 q 165 94 111 161 q 326 27 219 27 q 439 50 389 27 q 535 109 490 72 l 551 69 q 455 14 512 39 q 324 -11 397 -11 m 438 823 l 296 1000 l 324 1027 l 450 866 l 455 866 l 641 1027 l 667 1000 l 460 823 l 438 823 z "},"ḝ":{"ha":719,"x_min":71,"x_max":689,"o":"m 324 -11 q 189 22 245 -11 q 101 120 132 56 q 71 277 71 184 q 95 438 71 359 q 164 581 119 517 q 274 683 210 645 q 419 722 338 722 q 548 687 495 722 q 630 595 602 653 q 658 466 658 538 q 655 419 658 444 q 650 375 653 395 q 643 343 646 355 l 106 343 l 114 381 l 609 381 q 615 422 613 402 q 616 458 616 441 q 563 623 616 563 q 419 684 510 684 q 290 648 347 684 q 193 552 233 612 q 132 420 153 492 q 111 275 111 348 q 165 94 111 161 q 326 27 219 27 q 439 50 389 27 q 535 109 490 72 l 551 69 q 455 14 512 39 q 324 -11 397 -11 m 143 -291 l 147 -250 q 257 -237 212 -252 q 312 -178 303 -221 q 293 -132 317 -150 q 219 -114 269 -114 l 278 0 l 319 0 l 262 -109 l 256 -81 q 311 -95 288 -82 q 346 -131 334 -109 q 351 -183 357 -154 q 311 -251 342 -227 q 236 -282 280 -274 q 143 -291 192 -291 m 465 831 q 371 857 410 831 q 315 926 332 882 q 307 1022 297 970 l 345 1017 q 366 912 332 955 q 466 869 400 869 q 548 889 508 869 q 615 945 587 910 q 650 1022 644 980 l 689 1017 q 646 922 680 964 q 566 855 613 880 q 465 831 518 831 z "},"ê":{"ha":719,"x_min":71,"x_max":658,"o":"m 324 -11 q 189 22 245 -11 q 101 120 132 56 q 71 277 71 184 q 95 438 71 359 q 164 581 119 517 q 274 683 210 645 q 419 722 338 722 q 548 687 495 722 q 630 595 602 653 q 658 466 658 538 q 655 419 658 444 q 650 375 653 395 q 643 343 646 355 l 106 343 l 114 381 l 609 381 q 615 422 613 402 q 616 458 616 441 q 563 623 616 563 q 419 684 510 684 q 290 648 347 684 q 193 552 233 612 q 132 420 153 492 q 111 275 111 348 q 165 94 111 161 q 326 27 219 27 q 439 50 389 27 q 535 109 490 72 l 551 69 q 455 14 512 39 q 324 -11 397 -11 m 300 823 l 275 850 l 481 1027 l 503 1027 l 646 850 l 617 823 l 492 984 l 487 984 l 300 823 z "},"ế":{"ha":719,"x_min":71,"x_max":831,"o":"m 324 -11 q 189 22 245 -11 q 101 120 132 56 q 71 277 71 184 q 95 438 71 359 q 164 581 119 517 q 274 683 210 645 q 419 722 338 722 q 548 687 495 722 q 630 595 602 653 q 658 466 658 538 q 655 419 658 444 q 650 375 653 395 q 643 343 646 355 l 106 343 l 114 381 l 609 381 q 615 422 613 402 q 616 458 616 441 q 563 623 616 563 q 419 684 510 684 q 290 648 347 684 q 193 552 233 612 q 132 420 153 492 q 111 275 111 348 q 165 94 111 161 q 326 27 219 27 q 439 50 389 27 q 535 109 490 72 l 551 69 q 455 14 512 39 q 324 -11 397 -11 m 616 950 l 591 980 l 800 1154 l 831 1122 l 616 950 m 291 822 l 265 852 l 477 1000 l 502 1000 l 658 852 l 629 822 l 490 953 l 481 953 l 291 822 z "},"ệ":{"ha":719,"x_min":71,"x_max":658,"o":"m 324 -11 q 189 22 245 -11 q 101 120 132 56 q 71 277 71 184 q 95 438 71 359 q 164 581 119 517 q 274 683 210 645 q 419 722 338 722 q 548 687 495 722 q 630 595 602 653 q 658 466 658 538 q 655 419 658 444 q 650 375 653 395 q 643 343 646 355 l 106 343 l 114 381 l 609 381 q 615 422 613 402 q 616 458 616 441 q 563 623 616 563 q 419 684 510 684 q 290 648 347 684 q 193 552 233 612 q 132 420 153 492 q 111 275 111 348 q 165 94 111 161 q 326 27 219 27 q 439 50 389 27 q 535 109 490 72 l 551 69 q 455 14 512 39 q 324 -11 397 -11 m 277 -208 q 236 -191 253 -208 q 219 -149 219 -174 q 236 -108 219 -125 q 277 -91 253 -91 q 319 -108 302 -91 q 336 -149 336 -125 q 319 -191 336 -174 q 277 -208 302 -208 m 300 823 l 275 850 l 481 1027 l 503 1027 l 646 850 l 617 823 l 492 984 l 487 984 l 300 823 z "},"ề":{"ha":719,"x_min":71,"x_max":658,"o":"m 324 -11 q 189 22 245 -11 q 101 120 132 56 q 71 277 71 184 q 95 438 71 359 q 164 581 119 517 q 274 683 210 645 q 419 722 338 722 q 548 687 495 722 q 630 595 602 653 q 658 466 658 538 q 655 419 658 444 q 650 375 653 395 q 643 343 646 355 l 106 343 l 114 381 l 609 381 q 615 422 613 402 q 616 458 616 441 q 563 623 616 563 q 419 684 510 684 q 290 648 347 684 q 193 552 233 612 q 132 420 153 492 q 111 275 111 348 q 165 94 111 161 q 326 27 219 27 q 439 50 389 27 q 535 109 490 72 l 551 69 q 455 14 512 39 q 324 -11 397 -11 m 325 951 l 192 1138 l 224 1162 l 357 973 l 325 951 m 288 822 l 262 852 l 474 1000 l 499 1000 l 655 852 l 627 822 l 487 953 l 478 953 l 288 822 z "},"ể":{"ha":719,"x_min":71,"x_max":705,"o":"m 324 -11 q 189 22 245 -11 q 101 120 132 56 q 71 277 71 184 q 95 438 71 359 q 164 581 119 517 q 274 683 210 645 q 419 722 338 722 q 548 687 495 722 q 630 595 602 653 q 658 466 658 538 q 655 419 658 444 q 650 375 653 395 q 643 343 646 355 l 106 343 l 114 381 l 609 381 q 615 422 613 402 q 616 458 616 441 q 563 623 616 563 q 419 684 510 684 q 290 648 347 684 q 193 552 233 612 q 132 420 153 492 q 111 275 111 348 q 165 94 111 161 q 326 27 219 27 q 439 50 389 27 q 535 109 490 72 l 551 69 q 455 14 512 39 q 324 -11 397 -11 m 607 945 l 580 969 q 628 1015 606 987 q 655 1065 650 1042 q 645 1105 661 1090 q 598 1120 629 1120 q 556 1117 579 1120 q 515 1108 534 1115 l 519 1147 q 558 1155 536 1152 q 597 1157 580 1157 q 678 1131 650 1157 q 696 1061 705 1105 q 662 996 689 1028 q 607 945 634 964 m 291 822 l 265 852 l 477 1000 l 502 1000 l 658 852 l 629 822 l 490 953 l 481 953 l 291 822 z "},"ễ":{"ha":719,"x_min":71,"x_max":694,"o":"m 324 -11 q 189 22 245 -11 q 101 120 132 56 q 71 277 71 184 q 95 438 71 359 q 164 581 119 517 q 274 683 210 645 q 419 722 338 722 q 548 687 495 722 q 630 595 602 653 q 658 466 658 538 q 655 419 658 444 q 650 375 653 395 q 643 343 646 355 l 106 343 l 114 381 l 609 381 q 615 422 613 402 q 616 458 616 441 q 563 623 616 563 q 419 684 510 684 q 290 648 347 684 q 193 552 233 612 q 132 420 153 492 q 111 275 111 348 q 165 94 111 161 q 326 27 219 27 q 439 50 389 27 q 535 109 490 72 l 551 69 q 455 14 512 39 q 324 -11 397 -11 m 328 1042 l 290 1047 q 335 1133 300 1103 q 417 1163 370 1163 q 469 1152 450 1163 q 503 1124 489 1140 q 531 1097 517 1109 q 566 1086 545 1086 q 621 1106 597 1086 q 653 1165 646 1126 l 694 1160 q 670 1098 688 1124 q 625 1058 652 1072 q 567 1044 599 1044 q 517 1057 536 1044 q 482 1085 497 1069 q 451 1113 467 1101 q 412 1125 435 1125 q 362 1104 387 1125 q 328 1042 338 1084 m 294 822 l 268 852 l 479 1000 l 505 1000 l 661 852 l 632 822 l 492 953 l 484 953 l 294 822 z "},"ȅ":{"ha":719,"x_min":71,"x_max":658,"o":"m 324 -11 q 189 22 245 -11 q 101 120 132 56 q 71 277 71 184 q 95 438 71 359 q 164 581 119 517 q 274 683 210 645 q 419 722 338 722 q 548 687 495 722 q 630 595 602 653 q 658 466 658 538 q 655 419 658 444 q 650 375 653 395 q 643 343 646 355 l 106 343 l 114 381 l 609 381 q 615 422 613 402 q 616 458 616 441 q 563 623 616 563 q 419 684 510 684 q 290 648 347 684 q 193 552 233 612 q 132 420 153 492 q 111 275 111 348 q 165 94 111 161 q 326 27 219 27 q 439 50 389 27 q 535 109 490 72 l 551 69 q 455 14 512 39 q 324 -11 397 -11 m 382 808 l 273 1050 l 311 1075 l 410 822 l 382 808 m 562 808 l 452 1050 l 493 1075 l 591 822 l 562 808 z "},"ë":{"ha":719,"x_min":71,"x_max":658,"o":"m 324 -11 q 189 22 245 -11 q 101 120 132 56 q 71 277 71 184 q 95 438 71 359 q 164 581 119 517 q 274 683 210 645 q 419 722 338 722 q 548 687 495 722 q 630 595 602 653 q 658 466 658 538 q 655 419 658 444 q 650 375 653 395 q 643 343 646 355 l 106 343 l 114 381 l 609 381 q 615 422 613 402 q 616 458 616 441 q 563 623 616 563 q 419 684 510 684 q 290 648 347 684 q 193 552 233 612 q 132 420 153 492 q 111 275 111 348 q 165 94 111 161 q 326 27 219 27 q 439 50 389 27 q 535 109 490 72 l 551 69 q 455 14 512 39 q 324 -11 397 -11 m 584 853 q 542 870 559 853 q 526 911 526 886 q 542 953 526 937 q 584 970 559 970 q 626 953 609 970 q 642 911 642 937 q 626 870 642 886 q 584 853 609 853 m 361 853 q 320 870 336 853 q 303 911 303 886 q 320 953 303 937 q 361 970 336 970 q 403 953 387 970 q 420 911 420 937 q 403 870 420 886 q 361 853 387 853 z "},"ė":{"ha":719,"x_min":71,"x_max":658,"o":"m 324 -11 q 189 22 245 -11 q 101 120 132 56 q 71 277 71 184 q 95 438 71 359 q 164 581 119 517 q 274 683 210 645 q 419 722 338 722 q 548 687 495 722 q 630 595 602 653 q 658 466 658 538 q 655 419 658 444 q 650 375 653 395 q 643 343 646 355 l 106 343 l 114 381 l 609 381 q 615 422 613 402 q 616 458 616 441 q 563 623 616 563 q 419 684 510 684 q 290 648 347 684 q 193 552 233 612 q 132 420 153 492 q 111 275 111 348 q 165 94 111 161 q 326 27 219 27 q 439 50 389 27 q 535 109 490 72 l 551 69 q 455 14 512 39 q 324 -11 397 -11 m 474 853 q 433 870 450 853 q 416 911 416 887 q 433 953 416 936 q 474 970 450 970 q 515 953 498 970 q 532 911 532 936 q 515 870 532 887 q 474 853 498 853 z "},"ẹ":{"ha":719,"x_min":71,"x_max":658,"o":"m 324 -11 q 189 22 245 -11 q 101 120 132 56 q 71 277 71 184 q 95 438 71 359 q 164 581 119 517 q 274 683 210 645 q 419 722 338 722 q 548 687 495 722 q 630 595 602 653 q 658 466 658 538 q 655 419 658 444 q 650 375 653 395 q 643 343 646 355 l 106 343 l 114 381 l 609 381 q 615 422 613 402 q 616 458 616 441 q 563 623 616 563 q 419 684 510 684 q 290 648 347 684 q 193 552 233 612 q 132 420 153 492 q 111 275 111 348 q 165 94 111 161 q 326 27 219 27 q 439 50 389 27 q 535 109 490 72 l 551 69 q 455 14 512 39 q 324 -11 397 -11 m 277 -208 q 236 -191 253 -208 q 219 -149 219 -174 q 236 -108 219 -125 q 277 -91 253 -91 q 319 -108 302 -91 q 336 -149 336 -125 q 319 -191 336 -174 q 277 -208 302 -208 z "},"è":{"ha":719,"x_min":71,"x_max":658,"o":"m 324 -11 q 189 22 245 -11 q 101 120 132 56 q 71 277 71 184 q 95 438 71 359 q 164 581 119 517 q 274 683 210 645 q 419 722 338 722 q 548 687 495 722 q 630 595 602 653 q 658 466 658 538 q 655 419 658 444 q 650 375 653 395 q 643 343 646 355 l 106 343 l 114 381 l 609 381 q 615 422 613 402 q 616 458 616 441 q 563 623 616 563 q 419 684 510 684 q 290 648 347 684 q 193 552 233 612 q 132 420 153 492 q 111 275 111 348 q 165 94 111 161 q 326 27 219 27 q 439 50 389 27 q 535 109 490 72 l 551 69 q 455 14 512 39 q 324 -11 397 -11 m 455 811 l 322 1022 l 355 1046 l 488 833 l 455 811 z "},"ẻ":{"ha":719,"x_min":71,"x_max":658,"o":"m 324 -11 q 189 22 245 -11 q 101 120 132 56 q 71 277 71 184 q 95 438 71 359 q 164 581 119 517 q 274 683 210 645 q 419 722 338 722 q 548 687 495 722 q 630 595 602 653 q 658 466 658 538 q 655 419 658 444 q 650 375 653 395 q 643 343 646 355 l 106 343 l 114 381 l 609 381 q 615 422 613 402 q 616 458 616 441 q 563 623 616 563 q 419 684 510 684 q 290 648 347 684 q 193 552 233 612 q 132 420 153 492 q 111 275 111 348 q 165 94 111 161 q 326 27 219 27 q 439 50 389 27 q 535 109 490 72 l 551 69 q 455 14 512 39 q 324 -11 397 -11 m 462 808 l 440 839 q 497 879 473 854 q 526 929 522 903 q 515 969 532 955 q 469 983 499 983 q 426 978 448 983 q 386 966 403 973 l 390 1008 q 434 1018 413 1015 q 472 1021 455 1021 q 548 993 524 1021 q 563 922 572 965 q 528 857 556 889 q 462 808 500 825 z "},"ȇ":{"ha":719,"x_min":71,"x_max":666,"o":"m 324 -11 q 189 22 245 -11 q 101 120 132 56 q 71 277 71 184 q 95 438 71 359 q 164 581 119 517 q 274 683 210 645 q 419 722 338 722 q 548 687 495 722 q 630 595 602 653 q 658 466 658 538 q 655 419 658 444 q 650 375 653 395 q 643 343 646 355 l 106 343 l 114 381 l 609 381 q 615 422 613 402 q 616 458 616 441 q 563 623 616 563 q 419 684 510 684 q 290 648 347 684 q 193 552 233 612 q 132 420 153 492 q 111 275 111 348 q 165 94 111 161 q 326 27 219 27 q 439 50 389 27 q 535 109 490 72 l 551 69 q 455 14 512 39 q 324 -11 397 -11 m 652 836 l 614 842 q 595 946 629 906 q 492 987 561 987 q 372 942 420 987 q 313 836 325 897 l 273 842 q 317 940 286 899 q 395 1003 348 981 q 498 1025 441 1025 q 592 1000 553 1025 q 649 931 632 975 q 652 836 666 888 z "},"ē":{"ha":719,"x_min":71,"x_max":690,"o":"m 324 -11 q 189 22 245 -11 q 101 120 132 56 q 71 277 71 184 q 95 438 71 359 q 164 581 119 517 q 274 683 210 645 q 419 722 338 722 q 548 687 495 722 q 630 595 602 653 q 658 466 658 538 q 655 419 658 444 q 650 375 653 395 q 643 343 646 355 l 106 343 l 114 381 l 609 381 q 615 422 613 402 q 616 458 616 441 q 563 623 616 563 q 419 684 510 684 q 290 648 347 684 q 193 552 233 612 q 132 420 153 492 q 111 275 111 348 q 165 94 111 161 q 326 27 219 27 q 439 50 389 27 q 535 109 490 72 l 551 69 q 455 14 512 39 q 324 -11 397 -11 m 258 895 l 265 932 l 690 932 l 683 895 l 258 895 z "},"ḗ":{"ha":719,"x_min":71,"x_max":690,"o":"m 324 -11 q 189 22 245 -11 q 101 120 132 56 q 71 277 71 184 q 95 438 71 359 q 164 581 119 517 q 274 683 210 645 q 419 722 338 722 q 548 687 495 722 q 630 595 602 653 q 658 466 658 538 q 655 419 658 444 q 650 375 653 395 q 643 343 646 355 l 106 343 l 114 381 l 609 381 q 615 422 613 402 q 616 458 616 441 q 563 623 616 563 q 419 684 510 684 q 290 648 347 684 q 193 552 233 612 q 132 420 153 492 q 111 275 111 348 q 165 94 111 161 q 326 27 219 27 q 439 50 389 27 q 535 109 490 72 l 551 69 q 455 14 512 39 q 324 -11 397 -11 m 258 895 l 265 932 l 690 932 l 683 895 l 258 895 m 492 1014 l 460 1039 l 627 1255 l 656 1227 l 492 1014 z "},"ḕ":{"ha":719,"x_min":71,"x_max":690,"o":"m 324 -11 q 189 22 245 -11 q 101 120 132 56 q 71 277 71 184 q 95 438 71 359 q 164 581 119 517 q 274 683 210 645 q 419 722 338 722 q 548 687 495 722 q 630 595 602 653 q 658 466 658 538 q 655 419 658 444 q 650 375 653 395 q 643 343 646 355 l 106 343 l 114 381 l 609 381 q 615 422 613 402 q 616 458 616 441 q 563 623 616 563 q 419 684 510 684 q 290 648 347 684 q 193 552 233 612 q 132 420 153 492 q 111 275 111 348 q 165 94 111 161 q 326 27 219 27 q 439 50 389 27 q 535 109 490 72 l 551 69 q 455 14 512 39 q 324 -11 397 -11 m 258 895 l 265 932 l 690 932 l 683 895 l 258 895 m 495 1017 l 362 1227 l 395 1252 l 528 1039 l 495 1017 z "},"ę":{"ha":719,"x_min":71,"x_max":658,"o":"m 324 -11 q 189 22 245 -11 q 101 120 132 56 q 71 277 71 184 q 95 438 71 359 q 164 581 119 517 q 274 683 210 645 q 419 722 338 722 q 548 687 495 722 q 630 595 602 653 q 658 466 658 538 q 655 419 658 444 q 650 375 653 395 q 643 343 646 355 l 106 343 l 114 381 l 609 381 q 615 422 613 402 q 616 458 616 441 q 563 623 616 563 q 419 684 510 684 q 290 648 347 684 q 193 552 233 612 q 132 420 153 492 q 111 275 111 348 q 165 94 111 161 q 326 27 219 27 q 439 50 389 27 q 535 109 490 72 l 551 69 q 455 14 512 39 q 324 -11 397 -11 m 441 -192 q 376 -164 397 -192 q 363 -92 355 -136 q 421 5 375 -37 q 521 89 467 47 l 551 69 q 490 17 524 44 q 431 -39 457 -10 q 399 -99 406 -68 q 408 -141 394 -127 q 448 -154 422 -154 q 500 -142 473 -154 q 542 -121 528 -131 l 534 -166 q 491 -184 517 -177 q 441 -192 465 -192 z "},"ẽ":{"ha":719,"x_min":71,"x_max":676,"o":"m 324 -11 q 189 22 245 -11 q 101 120 132 56 q 71 277 71 184 q 95 438 71 359 q 164 581 119 517 q 274 683 210 645 q 419 722 338 722 q 548 687 495 722 q 630 595 602 653 q 658 466 658 538 q 655 419 658 444 q 650 375 653 395 q 643 343 646 355 l 106 343 l 114 381 l 609 381 q 615 422 613 402 q 616 458 616 441 q 563 623 616 563 q 419 684 510 684 q 290 648 347 684 q 193 552 233 612 q 132 420 153 492 q 111 275 111 348 q 165 94 111 161 q 326 27 219 27 q 439 50 389 27 q 535 109 490 72 l 551 69 q 455 14 512 39 q 324 -11 397 -11 m 311 839 l 269 844 q 294 910 276 881 q 340 955 313 939 q 399 972 367 972 q 451 958 432 972 q 484 927 471 945 q 512 897 498 910 q 548 883 526 883 q 605 910 580 883 q 637 975 630 937 l 676 969 q 650 904 669 933 q 605 859 631 876 q 547 842 578 842 q 497 856 516 842 q 463 887 477 869 q 434 919 449 905 q 397 933 418 933 q 342 907 366 933 q 311 839 318 881 z "},"ə":{"ha":719,"x_min":61,"x_max":648,"o":"m 395 722 q 531 688 474 722 q 618 591 587 655 q 648 434 648 527 q 624 273 648 352 q 555 130 600 194 q 445 27 509 66 q 300 -11 380 -11 q 171 23 224 -11 q 89 116 117 58 q 61 245 61 174 q 63 292 61 268 q 69 336 66 316 q 76 368 73 357 l 613 368 l 605 330 l 110 330 q 104 289 106 309 q 102 252 102 270 q 156 87 102 148 q 300 27 209 27 q 429 63 372 27 q 526 159 486 99 q 587 291 566 218 q 608 435 608 363 q 554 617 608 551 q 393 684 500 684 q 279 661 330 684 q 184 602 229 639 l 168 642 q 264 697 207 672 q 395 722 321 722 z "},"f":{"ha":458,"x_min":-71,"x_max":549,"o":"m -33 -216 q -52 -215 -41 -216 q -71 -212 -62 -214 l -68 -173 q -51 -177 -61 -175 q -34 -178 -41 -178 q 53 -134 19 -178 q 105 1 87 -90 l 276 857 q 346 1003 295 951 q 473 1055 397 1055 q 514 1051 495 1055 q 549 1038 534 1046 l 533 1003 q 503 1014 520 1010 q 469 1018 485 1018 q 371 973 412 1018 q 317 859 331 928 l 146 1 q 79 -163 125 -110 q -33 -216 34 -216 m 130 673 l 137 711 l 463 711 l 455 673 l 130 673 z "},"g":{"ha":784,"x_min":22,"x_max":739,"o":"m 282 -294 q 180 -281 230 -294 q 90 -248 131 -269 q 22 -203 49 -227 l 39 -161 q 104 -210 65 -189 q 190 -244 144 -231 q 284 -256 237 -256 q 415 -224 360 -256 q 506 -132 471 -191 q 557 5 542 -73 l 582 125 l 564 125 l 593 176 l 662 502 l 652 536 l 664 536 l 699 711 l 739 711 l 598 3 q 538 -155 581 -88 q 432 -258 496 -222 q 282 -294 368 -294 m 327 -11 q 188 29 243 -11 q 103 138 132 69 q 75 291 75 206 q 100 451 75 374 q 172 589 125 528 q 283 686 218 650 q 428 722 349 722 q 559 686 505 722 q 642 585 614 650 q 671 428 671 519 q 648 268 671 347 q 580 127 625 190 q 472 26 536 64 q 327 -11 408 -11 m 328 27 q 456 62 399 27 q 553 156 513 97 q 614 286 593 214 q 635 429 635 357 q 576 618 635 553 q 425 684 517 684 q 298 649 355 684 q 200 558 241 615 q 137 430 159 500 q 115 287 115 359 q 170 100 115 174 q 328 27 225 27 z "},"ǵ":{"ha":784,"x_min":22,"x_max":739,"o":"m 282 -294 q 180 -281 230 -294 q 90 -248 131 -269 q 22 -203 49 -227 l 39 -161 q 104 -210 65 -189 q 190 -244 144 -231 q 284 -256 237 -256 q 415 -224 360 -256 q 506 -132 471 -191 q 557 5 542 -73 l 582 125 l 564 125 l 593 176 l 662 502 l 652 536 l 664 536 l 699 711 l 739 711 l 598 3 q 538 -155 581 -88 q 432 -258 496 -222 q 282 -294 368 -294 m 327 -11 q 188 29 243 -11 q 103 138 132 69 q 75 291 75 206 q 100 451 75 374 q 172 589 125 528 q 283 686 218 650 q 428 722 349 722 q 559 686 505 722 q 642 585 614 650 q 671 428 671 519 q 648 268 671 347 q 580 127 625 190 q 472 26 536 64 q 327 -11 408 -11 m 328 27 q 456 62 399 27 q 553 156 513 97 q 614 286 593 214 q 635 429 635 357 q 576 618 635 553 q 425 684 517 684 q 298 649 355 684 q 200 558 241 615 q 137 430 159 500 q 115 287 115 359 q 170 100 115 174 q 328 27 225 27 m 475 808 l 444 833 l 610 1049 l 640 1022 l 475 808 z "},"ğ":{"ha":784,"x_min":22,"x_max":739,"o":"m 282 -294 q 180 -281 230 -294 q 90 -248 131 -269 q 22 -203 49 -227 l 39 -161 q 104 -210 65 -189 q 190 -244 144 -231 q 284 -256 237 -256 q 415 -224 360 -256 q 506 -132 471 -191 q 557 5 542 -73 l 582 125 l 564 125 l 593 176 l 662 502 l 652 536 l 664 536 l 699 711 l 739 711 l 598 3 q 538 -155 581 -88 q 432 -258 496 -222 q 282 -294 368 -294 m 327 -11 q 188 29 243 -11 q 103 138 132 69 q 75 291 75 206 q 100 451 75 374 q 172 589 125 528 q 283 686 218 650 q 428 722 349 722 q 559 686 505 722 q 642 585 614 650 q 671 428 671 519 q 648 268 671 347 q 580 127 625 190 q 472 26 536 64 q 327 -11 408 -11 m 328 27 q 456 62 399 27 q 553 156 513 97 q 614 286 593 214 q 635 429 635 357 q 576 618 635 553 q 425 684 517 684 q 298 649 355 684 q 200 558 241 615 q 137 430 159 500 q 115 287 115 359 q 170 100 115 174 q 328 27 225 27 m 488 831 q 394 857 433 831 q 338 926 355 882 q 330 1022 320 970 l 368 1017 q 389 912 355 955 q 489 869 423 869 q 571 889 531 869 q 638 945 610 910 q 673 1022 667 980 l 712 1017 q 669 922 703 964 q 589 855 636 880 q 488 831 541 831 z "},"ǧ":{"ha":784,"x_min":22,"x_max":739,"o":"m 282 -294 q 180 -281 230 -294 q 90 -248 131 -269 q 22 -203 49 -227 l 39 -161 q 104 -210 65 -189 q 190 -244 144 -231 q 284 -256 237 -256 q 415 -224 360 -256 q 506 -132 471 -191 q 557 5 542 -73 l 582 125 l 564 125 l 593 176 l 662 502 l 652 536 l 664 536 l 699 711 l 739 711 l 598 3 q 538 -155 581 -88 q 432 -258 496 -222 q 282 -294 368 -294 m 327 -11 q 188 29 243 -11 q 103 138 132 69 q 75 291 75 206 q 100 451 75 374 q 172 589 125 528 q 283 686 218 650 q 428 722 349 722 q 559 686 505 722 q 642 585 614 650 q 671 428 671 519 q 648 268 671 347 q 580 127 625 190 q 472 26 536 64 q 327 -11 408 -11 m 328 27 q 456 62 399 27 q 553 156 513 97 q 614 286 593 214 q 635 429 635 357 q 576 618 635 553 q 425 684 517 684 q 298 649 355 684 q 200 558 241 615 q 137 430 159 500 q 115 287 115 359 q 170 100 115 174 q 328 27 225 27 m 461 823 l 319 1000 l 347 1027 l 473 866 l 478 866 l 664 1027 l 690 1000 l 484 823 l 461 823 z "},"ĝ":{"ha":784,"x_min":22,"x_max":739,"o":"m 282 -294 q 180 -281 230 -294 q 90 -248 131 -269 q 22 -203 49 -227 l 39 -161 q 104 -210 65 -189 q 190 -244 144 -231 q 284 -256 237 -256 q 415 -224 360 -256 q 506 -132 471 -191 q 557 5 542 -73 l 582 125 l 564 125 l 593 176 l 662 502 l 652 536 l 664 536 l 699 711 l 739 711 l 598 3 q 538 -155 581 -88 q 432 -258 496 -222 q 282 -294 368 -294 m 327 -11 q 188 29 243 -11 q 103 138 132 69 q 75 291 75 206 q 100 451 75 374 q 172 589 125 528 q 283 686 218 650 q 428 722 349 722 q 559 686 505 722 q 642 585 614 650 q 671 428 671 519 q 648 268 671 347 q 580 127 625 190 q 472 26 536 64 q 327 -11 408 -11 m 328 27 q 456 62 399 27 q 553 156 513 97 q 614 286 593 214 q 635 429 635 357 q 576 618 635 553 q 425 684 517 684 q 298 649 355 684 q 200 558 241 615 q 137 430 159 500 q 115 287 115 359 q 170 100 115 174 q 328 27 225 27 m 323 823 l 298 850 l 504 1027 l 526 1027 l 669 850 l 640 823 l 515 984 l 510 984 l 323 823 z "},"ģ":{"ha":784,"x_min":22,"x_max":739,"o":"m 282 -294 q 180 -281 230 -294 q 90 -248 131 -269 q 22 -203 49 -227 l 39 -161 q 104 -210 65 -189 q 190 -244 144 -231 q 284 -256 237 -256 q 415 -224 360 -256 q 506 -132 471 -191 q 557 5 542 -73 l 582 125 l 564 125 l 593 176 l 662 502 l 652 536 l 664 536 l 699 711 l 739 711 l 598 3 q 538 -155 581 -88 q 432 -258 496 -222 q 282 -294 368 -294 m 327 -11 q 188 29 243 -11 q 103 138 132 69 q 75 291 75 206 q 100 451 75 374 q 172 589 125 528 q 283 686 218 650 q 428 722 349 722 q 559 686 505 722 q 642 585 614 650 q 671 428 671 519 q 648 268 671 347 q 580 127 625 190 q 472 26 536 64 q 327 -11 408 -11 m 328 27 q 456 62 399 27 q 553 156 513 97 q 614 286 593 214 q 635 429 635 357 q 576 618 635 553 q 425 684 517 684 q 298 649 355 684 q 200 558 241 615 q 137 430 159 500 q 115 287 115 359 q 170 100 115 174 q 328 27 225 27 m 555 1053 l 578 1027 l 510 972 q 484 948 494 960 q 469 924 474 936 q 465 899 465 913 l 448 899 q 461 918 454 912 q 481 924 469 924 q 512 911 497 924 q 526 877 526 897 q 514 845 526 860 q 481 831 503 831 q 445 846 460 831 q 430 888 430 861 q 450 951 430 922 q 486 994 469 979 l 555 1053 z "},"ġ":{"ha":784,"x_min":22,"x_max":739,"o":"m 282 -294 q 180 -281 230 -294 q 90 -248 131 -269 q 22 -203 49 -227 l 39 -161 q 104 -210 65 -189 q 190 -244 144 -231 q 284 -256 237 -256 q 415 -224 360 -256 q 506 -132 471 -191 q 557 5 542 -73 l 582 125 l 564 125 l 593 176 l 662 502 l 652 536 l 664 536 l 699 711 l 739 711 l 598 3 q 538 -155 581 -88 q 432 -258 496 -222 q 282 -294 368 -294 m 327 -11 q 188 29 243 -11 q 103 138 132 69 q 75 291 75 206 q 100 451 75 374 q 172 589 125 528 q 283 686 218 650 q 428 722 349 722 q 559 686 505 722 q 642 585 614 650 q 671 428 671 519 q 648 268 671 347 q 580 127 625 190 q 472 26 536 64 q 327 -11 408 -11 m 328 27 q 456 62 399 27 q 553 156 513 97 q 614 286 593 214 q 635 429 635 357 q 576 618 635 553 q 425 684 517 684 q 298 649 355 684 q 200 558 241 615 q 137 430 159 500 q 115 287 115 359 q 170 100 115 174 q 328 27 225 27 m 497 853 q 456 870 473 853 q 439 911 439 887 q 456 953 439 936 q 497 970 473 970 q 538 953 522 970 q 555 911 555 936 q 538 870 555 887 q 497 853 522 853 z "},"ḡ":{"ha":784,"x_min":22,"x_max":739,"o":"m 282 -294 q 180 -281 230 -294 q 90 -248 131 -269 q 22 -203 49 -227 l 39 -161 q 104 -210 65 -189 q 190 -244 144 -231 q 284 -256 237 -256 q 415 -224 360 -256 q 506 -132 471 -191 q 557 5 542 -73 l 582 125 l 564 125 l 593 176 l 662 502 l 652 536 l 664 536 l 699 711 l 739 711 l 598 3 q 538 -155 581 -88 q 432 -258 496 -222 q 282 -294 368 -294 m 327 -11 q 188 29 243 -11 q 103 138 132 69 q 75 291 75 206 q 100 451 75 374 q 172 589 125 528 q 283 686 218 650 q 428 722 349 722 q 559 686 505 722 q 642 585 614 650 q 671 428 671 519 q 648 268 671 347 q 580 127 625 190 q 472 26 536 64 q 327 -11 408 -11 m 328 27 q 456 62 399 27 q 553 156 513 97 q 614 286 593 214 q 635 429 635 357 q 576 618 635 553 q 425 684 517 684 q 298 649 355 684 q 200 558 241 615 q 137 430 159 500 q 115 287 115 359 q 170 100 115 174 q 328 27 225 27 m 281 895 l 288 932 l 713 932 l 706 895 l 281 895 z "},"h":{"ha":724,"x_min":45,"x_max":641,"o":"m 580 -9 q 535 38 549 14 q 519 89 521 61 q 526 155 518 117 l 580 429 q 570 619 605 555 q 452 684 535 684 q 334 653 392 684 q 233 569 275 622 q 176 450 190 516 l 85 0 l 45 0 l 254 1044 l 295 1044 l 205 595 l 223 595 l 184 562 q 294 675 225 629 q 452 722 362 722 q 568 688 524 722 q 627 589 612 654 q 622 430 641 524 l 565 144 q 564 77 557 104 q 597 33 570 49 l 580 -9 z "},"ħ":{"ha":724,"x_min":45,"x_max":641,"o":"m 580 -9 q 535 38 549 14 q 519 89 521 61 q 526 155 518 117 l 580 429 q 570 619 605 555 q 452 684 535 684 q 334 653 392 684 q 233 569 275 622 q 176 450 190 516 l 85 0 l 45 0 l 254 1044 l 295 1044 l 205 595 l 223 595 l 184 562 q 294 675 225 629 q 452 722 362 722 q 568 688 524 722 q 627 589 612 654 q 622 430 641 524 l 565 144 q 564 77 557 104 q 597 33 570 49 l 580 -9 m 92 837 l 98 874 l 380 874 l 374 837 l 92 837 z "},"ḫ":{"ha":724,"x_min":45,"x_max":641,"o":"m 580 -9 q 535 38 549 14 q 519 89 521 61 q 526 155 518 117 l 580 429 q 570 619 605 555 q 452 684 535 684 q 334 653 392 684 q 233 569 275 622 q 176 450 190 516 l 85 0 l 45 0 l 254 1044 l 295 1044 l 205 595 l 223 595 l 184 562 q 294 675 225 629 q 452 722 362 722 q 568 688 524 722 q 627 589 612 654 q 622 430 641 524 l 565 144 q 564 77 557 104 q 597 33 570 49 l 580 -9 m 270 -269 q 177 -243 216 -269 q 120 -174 138 -218 q 112 -78 102 -130 l 151 -83 q 172 -188 138 -145 q 271 -231 205 -231 q 353 -211 313 -231 q 421 -155 393 -190 q 456 -78 449 -120 l 494 -83 q 452 -178 485 -136 q 371 -245 418 -220 q 270 -269 323 -269 z "},"ĥ":{"ha":724,"x_min":45,"x_max":641,"o":"m 580 -9 q 535 38 549 14 q 519 89 521 61 q 526 155 518 117 l 580 429 q 570 619 605 555 q 452 684 535 684 q 334 653 392 684 q 233 569 275 622 q 176 450 190 516 l 85 0 l 45 0 l 254 1044 l 295 1044 l 205 595 l 223 595 l 184 562 q 294 675 225 629 q 452 722 362 722 q 568 688 524 722 q 627 589 612 654 q 622 430 641 524 l 565 144 q 564 77 557 104 q 597 33 570 49 l 580 -9 m 120 1055 l 94 1088 l 309 1233 l 334 1233 l 487 1088 l 458 1055 l 321 1189 l 313 1189 l 120 1055 z "},"ḥ":{"ha":724,"x_min":45,"x_max":641,"o":"m 580 -9 q 535 38 549 14 q 519 89 521 61 q 526 155 518 117 l 580 429 q 570 619 605 555 q 452 684 535 684 q 334 653 392 684 q 233 569 275 622 q 176 450 190 516 l 85 0 l 45 0 l 254 1044 l 295 1044 l 205 595 l 223 595 l 184 562 q 294 675 225 629 q 452 722 362 722 q 568 688 524 722 q 627 589 612 654 q 622 430 641 524 l 565 144 q 564 77 557 104 q 597 33 570 49 l 580 -9 m 282 -208 q 241 -191 258 -208 q 224 -149 224 -174 q 241 -108 224 -125 q 282 -91 258 -91 q 323 -108 307 -91 q 340 -149 340 -125 q 323 -191 340 -174 q 282 -208 307 -208 z "},"i":{"ha":330,"x_min":81,"x_max":317,"o":"m 170 -11 q 100 30 119 3 q 81 90 81 56 q 88 160 81 123 l 198 711 l 239 711 l 125 134 q 124 73 117 93 q 148 44 131 53 q 187 28 165 35 l 170 -11 m 258 853 q 217 870 234 853 q 200 911 200 887 q 217 953 200 936 q 258 970 234 970 q 300 953 283 970 q 317 911 317 936 q 300 870 317 887 q 258 853 283 853 z "},"ı":{"ha":330,"x_min":81,"x_max":239,"o":"m 170 -11 q 100 30 119 3 q 81 90 81 56 q 88 160 81 123 l 198 711 l 239 711 l 125 134 q 124 73 117 93 q 148 44 131 53 q 187 28 165 35 l 170 -11 z "},"í":{"ha":330,"x_min":81,"x_max":401,"o":"m 170 -11 q 100 30 119 3 q 81 90 81 56 q 88 160 81 123 l 198 711 l 239 711 l 125 134 q 124 73 117 93 q 148 44 131 53 q 187 28 165 35 l 170 -11 m 236 808 l 205 833 l 372 1049 l 401 1022 l 236 808 z "},"ĭ":{"ha":330,"x_min":81,"x_max":473,"o":"m 170 -11 q 100 30 119 3 q 81 90 81 56 q 88 160 81 123 l 198 711 l 239 711 l 125 134 q 124 73 117 93 q 148 44 131 53 q 187 28 165 35 l 170 -11 m 249 831 q 156 857 195 831 q 99 926 117 882 q 91 1022 81 970 l 130 1017 q 151 912 117 955 q 250 869 184 869 q 332 889 292 869 q 400 945 372 910 q 435 1022 428 980 l 473 1017 q 431 922 464 964 q 350 855 397 880 q 249 831 302 831 z "},"ǐ":{"ha":410,"x_min":120,"x_max":491,"o":"m 210 -11 q 140 30 159 3 q 121 90 121 56 q 128 160 121 123 l 238 711 l 279 711 l 165 134 q 164 73 157 93 q 188 44 171 53 q 227 28 205 35 l 210 -11 m 262 823 l 120 1000 l 149 1027 l 274 866 l 279 866 l 465 1027 l 491 1000 l 285 823 l 262 823 z "},"î":{"ha":330,"x_min":59,"x_max":430,"o":"m 170 -11 q 100 30 119 3 q 81 90 81 56 q 88 160 81 123 l 198 711 l 239 711 l 125 134 q 124 73 117 93 q 148 44 131 53 q 187 28 165 35 l 170 -11 m 85 823 l 59 850 l 265 1027 l 288 1027 l 430 850 l 401 823 l 277 984 l 271 984 l 85 823 z "},"ȉ":{"ha":330,"x_min":57,"x_max":375,"o":"m 170 -11 q 100 30 119 3 q 81 90 81 56 q 88 160 81 123 l 198 711 l 239 711 l 125 134 q 124 73 117 93 q 148 44 131 53 q 187 28 165 35 l 170 -11 m 166 808 l 57 1050 l 95 1075 l 195 822 l 166 808 m 347 808 l 237 1050 l 277 1075 l 375 822 l 347 808 z "},"ï":{"ha":330,"x_min":81,"x_max":427,"o":"m 170 -11 q 100 30 119 3 q 81 90 81 56 q 88 160 81 123 l 198 711 l 239 711 l 125 134 q 124 73 117 93 q 148 44 131 53 q 187 28 165 35 l 170 -11 m 368 853 q 327 870 343 853 q 310 911 310 886 q 327 953 310 937 q 368 970 343 970 q 410 953 393 970 q 427 911 427 937 q 410 870 427 886 q 368 853 393 853 m 146 853 q 104 870 121 853 q 87 911 87 886 q 104 953 87 937 q 146 970 121 970 q 188 953 171 970 q 204 911 204 937 q 188 870 204 886 q 146 853 171 853 z "},"ḯ":{"ha":330,"x_min":81,"x_max":441,"o":"m 170 -11 q 100 30 119 3 q 81 90 81 56 q 88 160 81 123 l 198 711 l 239 711 l 125 134 q 124 73 117 93 q 148 44 131 53 q 187 28 165 35 l 170 -11 m 368 853 q 327 870 343 853 q 310 911 310 886 q 327 953 310 937 q 368 970 343 970 q 410 953 393 970 q 427 911 427 937 q 410 870 427 886 q 368 853 393 853 m 146 853 q 104 870 121 853 q 87 911 87 886 q 104 953 87 937 q 146 970 121 970 q 188 953 171 970 q 204 911 204 937 q 188 870 204 886 q 146 853 171 853 m 277 1009 l 245 1034 l 412 1250 l 441 1223 l 277 1009 z "},"ị":{"ha":330,"x_min":39,"x_max":317,"o":"m 170 -11 q 100 30 119 3 q 81 90 81 56 q 88 160 81 123 l 198 711 l 239 711 l 125 134 q 124 73 117 93 q 148 44 131 53 q 187 28 165 35 l 170 -11 m 258 853 q 217 870 234 853 q 200 911 200 887 q 217 953 200 936 q 258 970 234 970 q 300 953 283 970 q 317 911 317 936 q 300 870 317 887 q 258 853 283 853 m 97 -208 q 56 -191 73 -208 q 39 -149 39 -174 q 56 -108 39 -125 q 97 -91 73 -91 q 138 -108 121 -91 q 155 -149 155 -125 q 138 -191 155 -174 q 97 -208 121 -208 z "},"ì":{"ha":330,"x_min":81,"x_max":272,"o":"m 170 -11 q 100 30 119 3 q 81 90 81 56 q 88 160 81 123 l 198 711 l 239 711 l 125 134 q 124 73 117 93 q 148 44 131 53 q 187 28 165 35 l 170 -11 m 239 811 l 106 1022 l 139 1046 l 272 833 l 239 811 z "},"ỉ":{"ha":330,"x_min":81,"x_max":356,"o":"m 170 -11 q 100 30 119 3 q 81 90 81 56 q 88 160 81 123 l 198 711 l 239 711 l 125 134 q 124 73 117 93 q 148 44 131 53 q 187 28 165 35 l 170 -11 m 246 808 l 224 839 q 281 879 257 854 q 311 929 306 903 q 300 969 316 955 q 254 983 283 983 q 210 978 233 983 q 170 966 187 973 l 174 1008 q 218 1018 197 1015 q 256 1021 239 1021 q 332 993 309 1021 q 347 922 356 965 q 312 857 340 889 q 246 808 284 825 z "},"ȋ":{"ha":330,"x_min":58,"x_max":450,"o":"m 170 -11 q 100 30 119 3 q 81 90 81 56 q 88 160 81 123 l 198 711 l 239 711 l 125 134 q 124 73 117 93 q 148 44 131 53 q 187 28 165 35 l 170 -11 m 437 836 l 399 842 q 379 946 413 906 q 277 987 345 987 q 157 942 204 987 q 98 836 109 897 l 58 842 q 101 940 70 899 q 179 1003 132 981 q 282 1025 226 1025 q 377 1000 337 1025 q 433 931 416 975 q 437 836 450 888 z "},"ī":{"ha":330,"x_min":69,"x_max":437,"o":"m 170 -11 q 100 30 119 3 q 81 90 81 56 q 88 160 81 123 l 198 711 l 239 711 l 125 134 q 124 73 117 93 q 148 44 131 53 q 187 28 165 35 l 170 -11 m 69 895 l 75 932 l 437 932 l 430 895 l 69 895 z "},"į":{"ha":330,"x_min":-10,"x_max":317,"o":"m 170 -11 q 100 30 119 3 q 81 90 81 56 q 88 160 81 123 l 198 711 l 239 711 l 125 134 q 124 73 117 93 q 148 44 131 53 q 187 28 165 35 l 170 -11 m 258 853 q 217 870 234 853 q 200 911 200 887 q 217 953 200 936 q 258 970 234 970 q 300 953 283 970 q 317 911 317 936 q 300 870 317 887 q 258 853 283 853 m 74 -264 q 7 -234 24 -264 q -3 -170 -10 -203 q 28 -105 5 -134 q 83 -45 52 -75 q 146 24 115 -14 l 170 -11 q 116 -67 144 -41 q 66 -120 87 -94 q 37 -173 44 -146 q 44 -214 29 -202 q 78 -226 60 -226 q 109 -220 90 -226 q 151 -201 127 -214 l 142 -245 q 109 -259 127 -254 q 74 -264 92 -264 z "},"ĩ":{"ha":330,"x_min":54,"x_max":460,"o":"m 170 -11 q 100 30 119 3 q 81 90 81 56 q 88 160 81 123 l 198 711 l 239 711 l 125 134 q 124 73 117 93 q 148 44 131 53 q 187 28 165 35 l 170 -11 m 95 839 l 54 844 q 79 910 60 881 q 124 955 97 939 q 184 972 151 972 q 236 958 216 972 q 269 927 255 945 q 296 897 282 910 q 332 883 311 883 q 389 910 364 883 q 421 975 414 937 l 460 969 q 434 904 453 933 q 389 859 416 876 q 331 842 363 842 q 281 856 300 842 q 248 887 262 869 q 218 919 233 905 q 181 933 203 933 q 126 907 151 933 q 95 839 102 881 z "},"j":{"ha":297,"x_min":-160,"x_max":327,"o":"m -106 -297 q -132 -295 -118 -297 q -160 -289 -146 -293 l -152 -252 q -129 -257 -140 -256 q -111 -259 -117 -259 q -6 -212 -46 -259 q 47 -100 35 -164 l 210 711 l 251 711 l 90 -98 q 51 -200 78 -155 q -16 -271 24 -245 q -106 -297 -56 -297 m 269 853 q 227 870 244 853 q 210 911 210 887 q 227 953 210 936 q 269 970 244 970 q 310 953 293 970 q 327 911 327 936 q 310 870 327 887 q 269 853 293 853 z "},"ȷ":{"ha":297,"x_min":-160,"x_max":251,"o":"m -106 -297 q -132 -295 -118 -297 q -160 -289 -146 -293 l -152 -252 q -129 -257 -140 -256 q -111 -259 -117 -259 q -6 -212 -46 -259 q 47 -100 35 -164 l 210 711 l 251 711 l 90 -98 q 51 -200 78 -155 q -16 -271 24 -245 q -106 -297 -56 -297 z "},"ĵ":{"ha":349,"x_min":-160,"x_max":440,"o":"m -106 -297 q -132 -295 -118 -297 q -160 -289 -146 -293 l -152 -252 q -129 -257 -140 -256 q -111 -259 -117 -259 q -6 -212 -46 -259 q 47 -100 35 -164 l 210 711 l 251 711 l 90 -98 q 51 -200 78 -155 q -16 -271 24 -245 q -106 -297 -56 -297 m 95 823 l 69 850 l 275 1027 l 298 1027 l 440 850 l 412 823 l 287 984 l 281 984 l 95 823 z "},"k":{"ha":632,"x_min":45,"x_max":640,"o":"m 45 0 l 254 1044 l 295 1044 l 163 382 l 214 382 l 183 366 l 583 711 l 640 711 l 221 349 l 220 373 l 524 0 l 475 0 l 183 358 l 208 342 l 155 342 l 86 0 l 45 0 z "},"ķ":{"ha":632,"x_min":45,"x_max":640,"o":"m 45 0 l 254 1044 l 295 1044 l 163 382 l 214 382 l 183 366 l 583 711 l 640 711 l 221 349 l 220 373 l 524 0 l 475 0 l 183 358 l 208 342 l 155 342 l 86 0 l 45 0 m 163 -347 l 140 -322 l 208 -267 q 234 -242 224 -254 q 249 -219 244 -231 q 254 -194 254 -207 l 271 -194 q 257 -213 264 -207 q 237 -219 250 -219 q 207 -205 221 -219 q 192 -172 192 -192 q 204 -140 192 -155 q 237 -125 216 -125 q 273 -140 258 -125 q 288 -183 288 -155 q 269 -245 288 -216 q 232 -289 250 -274 l 163 -347 z "},"ĸ":{"ha":631,"x_min":45,"x_max":640,"o":"m 45 0 l 186 711 l 227 711 l 162 382 l 213 382 l 184 368 l 583 711 l 640 711 l 217 346 l 221 370 l 523 0 l 474 0 l 183 358 l 205 342 l 154 342 l 86 0 l 45 0 z "},"l":{"ha":309,"x_min":63,"x_max":296,"o":"m 138 -5 q 79 17 94 -5 q 64 71 63 39 q 70 127 65 102 l 254 1044 l 296 1044 l 109 115 q 140 33 92 33 q 171 36 154 33 q 197 46 187 40 l 191 5 q 165 -3 180 -1 q 138 -5 151 -5 z "},"ĺ":{"ha":309,"x_min":63,"x_max":456,"o":"m 138 -5 q 79 17 94 -5 q 64 71 63 39 q 70 127 65 102 l 254 1044 l 296 1044 l 109 115 q 140 33 92 33 q 171 36 154 33 q 197 46 187 40 l 191 5 q 165 -3 180 -1 q 138 -5 151 -5 m 291 1142 l 260 1167 l 427 1383 l 456 1356 l 291 1142 z "},"ľ":{"ha":309,"x_min":63,"x_max":433,"o":"m 138 -5 q 79 17 94 -5 q 64 71 63 39 q 70 127 65 102 l 254 1044 l 296 1044 l 109 115 q 140 33 92 33 q 171 36 154 33 q 197 46 187 40 l 191 5 q 165 -3 180 -1 q 138 -5 151 -5 m 331 770 l 391 1044 l 433 1044 l 369 770 l 331 770 z "},"ļ":{"ha":309,"x_min":-26,"x_max":296,"o":"m 138 -5 q 79 17 94 -5 q 64 71 63 39 q 70 127 65 102 l 254 1044 l 296 1044 l 109 115 q 140 33 92 33 q 171 36 154 33 q 197 46 187 40 l 191 5 q 165 -3 180 -1 q 138 -5 151 -5 m -4 -347 l -26 -322 l 41 -267 q 67 -242 58 -254 q 82 -219 77 -231 q 87 -194 87 -207 l 104 -194 q 90 -213 97 -207 q 71 -219 83 -219 q 40 -205 54 -219 q 25 -172 25 -192 q 37 -140 25 -155 q 71 -125 49 -125 q 106 -140 91 -125 q 121 -183 121 -155 q 102 -245 121 -216 q 65 -289 83 -274 l -4 -347 z "},"ŀ":{"ha":350,"x_min":63,"x_max":406,"o":"m 138 -5 q 79 17 94 -5 q 64 71 63 39 q 70 127 65 102 l 254 1044 l 296 1044 l 109 115 q 140 33 92 33 q 171 36 154 33 q 197 46 187 40 l 191 5 q 165 -3 180 -1 q 138 -5 151 -5 m 349 456 q 308 473 325 456 q 292 513 292 490 q 308 554 292 537 q 349 570 325 570 q 389 554 372 570 q 406 513 406 537 q 389 473 406 490 q 349 456 372 456 z "},"ḷ":{"ha":309,"x_min":18,"x_max":296,"o":"m 138 -5 q 79 17 94 -5 q 64 71 63 39 q 70 127 65 102 l 254 1044 l 296 1044 l 109 115 q 140 33 92 33 q 171 36 154 33 q 197 46 187 40 l 191 5 q 165 -3 180 -1 q 138 -5 151 -5 m 76 -208 q 35 -191 52 -208 q 18 -149 18 -174 q 35 -108 18 -125 q 76 -91 52 -91 q 117 -108 100 -91 q 134 -149 134 -125 q 117 -191 134 -174 q 76 -208 100 -208 z "},"ǉ":{"ha":568,"x_min":63,"x_max":598,"o":"m 138 -5 q 79 17 94 -5 q 64 71 63 39 q 70 127 65 102 l 254 1044 l 296 1044 l 109 115 q 140 33 92 33 q 171 36 154 33 q 197 46 187 40 l 191 5 q 165 -3 180 -1 q 138 -5 151 -5 m 165 -297 q 139 -295 153 -297 q 111 -289 125 -293 l 119 -252 q 143 -257 132 -256 q 160 -259 154 -259 q 266 -212 225 -259 q 319 -100 306 -164 l 481 711 l 522 711 l 361 -98 q 322 -200 349 -155 q 255 -271 295 -245 q 165 -297 216 -297 m 540 853 q 498 870 515 853 q 481 911 481 887 q 498 953 481 936 q 540 970 515 970 q 581 953 564 970 q 598 911 598 936 q 581 870 598 887 q 540 853 564 853 z "}}}
